G04 (created by PCBNEW (2013-07-07 BZR 4022)-stable) date 15/12/2015 05:16:37*
%MOIN*%
G04 Gerber Fmt 3.4, Leading zero omitted, Abs format*
%FSLAX34Y34*%
G01*
G70*
G90*
G04 APERTURE LIST*
%ADD10C,0.00590551*%
%ADD11C,0.0001*%
%ADD12C,0.137795*%
%ADD13R,0.0708661X0.0708661*%
%ADD14C,0.0708661*%
%ADD15O,0.06X0.1*%
%ADD16O,0.1X0.0607087*%
%ADD17O,0.1X0.06*%
G04 APERTURE END LIST*
G54D10*
G54D11*
G36*
X43513Y-35258D02*
X43527Y-35254D01*
X43552Y-35248D01*
X43585Y-35240D01*
X43624Y-35232D01*
X43667Y-35223D01*
X43713Y-35213D01*
X43758Y-35204D01*
X43802Y-35195D01*
X43842Y-35187D01*
X43862Y-35184D01*
X44002Y-35160D01*
X44141Y-35138D01*
X44280Y-35120D01*
X44422Y-35104D01*
X44570Y-35090D01*
X44613Y-35086D01*
X44613Y-33082D01*
X44613Y-33023D01*
X44615Y-32972D01*
X44619Y-32925D01*
X44624Y-32880D01*
X44632Y-32834D01*
X44641Y-32788D01*
X44672Y-32674D01*
X44712Y-32562D01*
X44762Y-32453D01*
X44821Y-32349D01*
X44888Y-32249D01*
X44964Y-32155D01*
X45047Y-32065D01*
X45138Y-31982D01*
X45236Y-31905D01*
X45340Y-31835D01*
X45451Y-31773D01*
X45458Y-31769D01*
X45571Y-31716D01*
X45685Y-31672D01*
X45803Y-31636D01*
X45925Y-31608D01*
X46054Y-31586D01*
X46055Y-31586D01*
X46091Y-31582D01*
X46135Y-31580D01*
X46185Y-31578D01*
X46239Y-31577D01*
X46293Y-31577D01*
X46348Y-31577D01*
X46399Y-31579D01*
X46445Y-31582D01*
X46484Y-31585D01*
X46495Y-31586D01*
X46631Y-31610D01*
X46763Y-31642D01*
X46889Y-31683D01*
X47009Y-31732D01*
X47124Y-31789D01*
X47233Y-31855D01*
X47335Y-31928D01*
X47430Y-32008D01*
X47519Y-32097D01*
X47600Y-32192D01*
X47674Y-32295D01*
X47674Y-32295D01*
X47736Y-32398D01*
X47788Y-32505D01*
X47830Y-32614D01*
X47863Y-32726D01*
X47886Y-32839D01*
X47899Y-32954D01*
X47902Y-33069D01*
X47895Y-33184D01*
X47878Y-33299D01*
X47851Y-33412D01*
X47820Y-33507D01*
X47773Y-33621D01*
X47716Y-33730D01*
X47651Y-33834D01*
X47578Y-33932D01*
X47497Y-34024D01*
X47410Y-34110D01*
X47315Y-34189D01*
X47214Y-34262D01*
X47107Y-34327D01*
X46995Y-34384D01*
X46878Y-34434D01*
X46756Y-34475D01*
X46630Y-34508D01*
X46500Y-34532D01*
X46433Y-34540D01*
X46402Y-34543D01*
X46364Y-34545D01*
X46319Y-34546D01*
X46272Y-34547D01*
X46223Y-34548D01*
X46176Y-34547D01*
X46133Y-34546D01*
X46095Y-34545D01*
X46067Y-34543D01*
X45937Y-34525D01*
X45809Y-34498D01*
X45686Y-34463D01*
X45568Y-34420D01*
X45454Y-34369D01*
X45345Y-34310D01*
X45242Y-34244D01*
X45146Y-34171D01*
X45055Y-34092D01*
X44972Y-34006D01*
X44896Y-33914D01*
X44829Y-33817D01*
X44769Y-33715D01*
X44718Y-33607D01*
X44680Y-33507D01*
X44657Y-33431D01*
X44639Y-33359D01*
X44626Y-33287D01*
X44618Y-33213D01*
X44614Y-33134D01*
X44613Y-33082D01*
X44613Y-35086D01*
X44688Y-35080D01*
X44778Y-35075D01*
X44860Y-35074D01*
X44937Y-35077D01*
X45009Y-35084D01*
X45080Y-35097D01*
X45150Y-35114D01*
X45223Y-35138D01*
X45299Y-35167D01*
X45381Y-35203D01*
X45402Y-35212D01*
X45470Y-35243D01*
X45530Y-35271D01*
X45582Y-35294D01*
X45629Y-35315D01*
X45669Y-35332D01*
X45706Y-35347D01*
X45739Y-35360D01*
X45770Y-35371D01*
X45799Y-35381D01*
X45828Y-35390D01*
X45858Y-35398D01*
X45867Y-35401D01*
X45982Y-35429D01*
X46094Y-35446D01*
X46202Y-35454D01*
X46280Y-35454D01*
X46315Y-35452D01*
X46349Y-35450D01*
X46385Y-35446D01*
X46422Y-35442D01*
X46462Y-35436D01*
X46506Y-35429D01*
X46554Y-35420D01*
X46608Y-35409D01*
X46668Y-35396D01*
X46736Y-35381D01*
X46812Y-35364D01*
X46891Y-35346D01*
X46994Y-35322D01*
X47088Y-35301D01*
X47173Y-35283D01*
X47252Y-35267D01*
X47324Y-35253D01*
X47391Y-35242D01*
X47454Y-35232D01*
X47514Y-35224D01*
X47572Y-35218D01*
X47629Y-35214D01*
X47685Y-35210D01*
X47742Y-35208D01*
X47801Y-35207D01*
X47833Y-35207D01*
X47883Y-35207D01*
X47924Y-35207D01*
X47958Y-35208D01*
X47987Y-35209D01*
X48013Y-35211D01*
X48037Y-35213D01*
X48062Y-35215D01*
X48090Y-35219D01*
X48090Y-35219D01*
X48234Y-35241D01*
X48377Y-35268D01*
X48523Y-35302D01*
X48673Y-35342D01*
X48696Y-35348D01*
X48743Y-35362D01*
X48788Y-35375D01*
X48832Y-35389D01*
X48877Y-35403D01*
X48923Y-35418D01*
X48970Y-35433D01*
X49020Y-35450D01*
X49074Y-35469D01*
X49117Y-35484D01*
X49117Y-33751D01*
X49125Y-33631D01*
X49143Y-33513D01*
X49157Y-33449D01*
X49190Y-33337D01*
X49232Y-33227D01*
X49283Y-33120D01*
X49342Y-33018D01*
X49408Y-32922D01*
X49433Y-32891D01*
X49453Y-32866D01*
X49479Y-32838D01*
X49507Y-32807D01*
X49536Y-32776D01*
X49565Y-32748D01*
X49591Y-32723D01*
X49611Y-32704D01*
X49613Y-32703D01*
X49627Y-32691D01*
X49640Y-32680D01*
X49645Y-32676D01*
X49656Y-32667D01*
X49672Y-32654D01*
X49691Y-32640D01*
X49709Y-32626D01*
X49725Y-32615D01*
X49731Y-32611D01*
X49745Y-32601D01*
X49757Y-32591D01*
X49767Y-32584D01*
X49773Y-32581D01*
X49780Y-32578D01*
X49792Y-32571D01*
X49794Y-32569D01*
X49807Y-32560D01*
X49817Y-32554D01*
X49818Y-32553D01*
X49828Y-32548D01*
X49841Y-32540D01*
X49847Y-32536D01*
X49884Y-32515D01*
X49929Y-32493D01*
X49979Y-32469D01*
X50031Y-32446D01*
X50084Y-32425D01*
X50135Y-32407D01*
X50153Y-32401D01*
X50258Y-32371D01*
X50369Y-32347D01*
X50483Y-32329D01*
X50527Y-32324D01*
X50559Y-32321D01*
X50599Y-32319D01*
X50644Y-32318D01*
X50692Y-32318D01*
X50741Y-32318D01*
X50788Y-32319D01*
X50830Y-32320D01*
X50866Y-32323D01*
X50876Y-32324D01*
X51015Y-32343D01*
X51152Y-32372D01*
X51285Y-32409D01*
X51415Y-32455D01*
X51541Y-32510D01*
X51663Y-32572D01*
X51779Y-32642D01*
X51890Y-32719D01*
X51995Y-32803D01*
X52093Y-32894D01*
X52185Y-32990D01*
X52269Y-33093D01*
X52346Y-33201D01*
X52415Y-33314D01*
X52475Y-33432D01*
X52526Y-33554D01*
X52548Y-33619D01*
X52580Y-33724D01*
X52603Y-33827D01*
X52619Y-33927D01*
X52628Y-34029D01*
X52629Y-34135D01*
X52629Y-34162D01*
X52624Y-34254D01*
X52614Y-34339D01*
X52599Y-34421D01*
X52579Y-34504D01*
X52557Y-34576D01*
X52513Y-34690D01*
X52461Y-34800D01*
X52400Y-34904D01*
X52330Y-35001D01*
X52253Y-35093D01*
X52167Y-35178D01*
X52074Y-35256D01*
X51974Y-35327D01*
X51866Y-35391D01*
X51832Y-35409D01*
X51721Y-35461D01*
X51608Y-35504D01*
X51492Y-35538D01*
X51372Y-35565D01*
X51246Y-35584D01*
X51237Y-35584D01*
X51207Y-35587D01*
X51169Y-35589D01*
X51124Y-35590D01*
X51075Y-35590D01*
X51024Y-35590D01*
X50973Y-35589D01*
X50924Y-35588D01*
X50879Y-35586D01*
X50839Y-35583D01*
X50808Y-35580D01*
X50805Y-35580D01*
X50659Y-35554D01*
X50518Y-35519D01*
X50381Y-35475D01*
X50249Y-35422D01*
X50121Y-35359D01*
X50104Y-35350D01*
X50083Y-35338D01*
X50063Y-35327D01*
X50047Y-35317D01*
X50041Y-35314D01*
X50029Y-35306D01*
X50018Y-35300D01*
X50018Y-35300D01*
X50008Y-35295D01*
X49996Y-35286D01*
X49994Y-35285D01*
X49982Y-35277D01*
X49972Y-35271D01*
X49971Y-35271D01*
X49963Y-35267D01*
X49949Y-35258D01*
X49933Y-35246D01*
X49928Y-35243D01*
X49910Y-35230D01*
X49894Y-35218D01*
X49883Y-35210D01*
X49882Y-35209D01*
X49868Y-35200D01*
X49860Y-35194D01*
X49850Y-35185D01*
X49836Y-35175D01*
X49834Y-35173D01*
X49818Y-35161D01*
X49799Y-35145D01*
X49774Y-35124D01*
X49751Y-35105D01*
X49717Y-35075D01*
X49679Y-35039D01*
X49637Y-34997D01*
X49595Y-34952D01*
X49554Y-34906D01*
X49515Y-34861D01*
X49480Y-34817D01*
X49469Y-34803D01*
X49394Y-34695D01*
X49327Y-34585D01*
X49270Y-34470D01*
X49221Y-34354D01*
X49182Y-34235D01*
X49151Y-34114D01*
X49130Y-33993D01*
X49119Y-33872D01*
X49117Y-33751D01*
X49117Y-35484D01*
X49132Y-35489D01*
X49196Y-35512D01*
X49266Y-35538D01*
X49343Y-35566D01*
X49428Y-35597D01*
X49513Y-35628D01*
X49612Y-35665D01*
X49703Y-35699D01*
X49786Y-35729D01*
X49862Y-35756D01*
X49931Y-35781D01*
X49995Y-35803D01*
X50055Y-35824D01*
X50111Y-35842D01*
X50165Y-35860D01*
X50202Y-35872D01*
X50410Y-35936D01*
X50612Y-35992D01*
X50811Y-36042D01*
X51007Y-36085D01*
X51202Y-36121D01*
X51398Y-36151D01*
X51597Y-36176D01*
X51800Y-36194D01*
X51967Y-36206D01*
X52060Y-36215D01*
X52151Y-36233D01*
X52241Y-36259D01*
X52332Y-36295D01*
X52424Y-36339D01*
X52485Y-36373D01*
X52541Y-36408D01*
X52595Y-36446D01*
X52648Y-36488D01*
X52702Y-36537D01*
X52760Y-36592D01*
X52764Y-36597D01*
X52791Y-36624D01*
X52817Y-36650D01*
X52841Y-36676D01*
X52865Y-36703D01*
X52889Y-36731D01*
X52914Y-36761D01*
X52941Y-36795D01*
X52970Y-36832D01*
X53002Y-36873D01*
X53037Y-36920D01*
X53076Y-36974D01*
X53120Y-37034D01*
X53170Y-37102D01*
X53234Y-37189D01*
X53234Y-35790D01*
X53236Y-35732D01*
X53239Y-35680D01*
X53241Y-35666D01*
X53260Y-35557D01*
X53289Y-35450D01*
X53329Y-35347D01*
X53378Y-35246D01*
X53436Y-35149D01*
X53505Y-35056D01*
X53582Y-34966D01*
X53614Y-34934D01*
X53704Y-34851D01*
X53802Y-34775D01*
X53906Y-34708D01*
X54015Y-34648D01*
X54130Y-34598D01*
X54248Y-34557D01*
X54266Y-34552D01*
X54391Y-34521D01*
X54519Y-34500D01*
X54649Y-34488D01*
X54779Y-34487D01*
X54911Y-34495D01*
X55042Y-34512D01*
X55173Y-34539D01*
X55303Y-34575D01*
X55431Y-34621D01*
X55556Y-34675D01*
X55679Y-34738D01*
X55798Y-34810D01*
X55906Y-34885D01*
X56022Y-34978D01*
X56131Y-35078D01*
X56232Y-35184D01*
X56325Y-35296D01*
X56410Y-35413D01*
X56485Y-35535D01*
X56551Y-35662D01*
X56554Y-35668D01*
X56608Y-35792D01*
X56652Y-35918D01*
X56687Y-36045D01*
X56712Y-36171D01*
X56729Y-36298D01*
X56735Y-36423D01*
X56733Y-36548D01*
X56721Y-36670D01*
X56701Y-36791D01*
X56671Y-36909D01*
X56632Y-37023D01*
X56584Y-37134D01*
X56528Y-37241D01*
X56463Y-37344D01*
X56388Y-37441D01*
X56324Y-37514D01*
X56240Y-37595D01*
X56153Y-37666D01*
X56060Y-37728D01*
X55964Y-37780D01*
X55863Y-37823D01*
X55757Y-37857D01*
X55646Y-37881D01*
X55530Y-37896D01*
X55513Y-37897D01*
X55489Y-37898D01*
X55458Y-37898D01*
X55421Y-37898D01*
X55381Y-37896D01*
X55341Y-37894D01*
X55303Y-37892D01*
X55271Y-37889D01*
X55254Y-37887D01*
X55129Y-37866D01*
X55002Y-37834D01*
X54875Y-37793D01*
X54748Y-37742D01*
X54620Y-37681D01*
X54493Y-37611D01*
X54367Y-37531D01*
X54241Y-37443D01*
X54117Y-37346D01*
X54099Y-37331D01*
X53975Y-37222D01*
X53861Y-37111D01*
X53755Y-36997D01*
X53658Y-36882D01*
X53571Y-36765D01*
X53493Y-36646D01*
X53425Y-36526D01*
X53367Y-36405D01*
X53319Y-36283D01*
X53280Y-36160D01*
X53253Y-36038D01*
X53249Y-36017D01*
X53242Y-35967D01*
X53238Y-35911D01*
X53235Y-35851D01*
X53234Y-35790D01*
X53234Y-37189D01*
X53237Y-37193D01*
X53299Y-37275D01*
X53358Y-37350D01*
X53414Y-37417D01*
X53468Y-37478D01*
X53520Y-37534D01*
X53572Y-37584D01*
X53623Y-37630D01*
X53675Y-37672D01*
X53729Y-37710D01*
X53784Y-37747D01*
X53843Y-37782D01*
X53904Y-37816D01*
X53946Y-37837D01*
X53985Y-37856D01*
X54023Y-37874D01*
X54063Y-37893D01*
X54105Y-37911D01*
X54149Y-37929D01*
X54196Y-37948D01*
X54247Y-37968D01*
X54302Y-37989D01*
X54363Y-38011D01*
X54430Y-38035D01*
X54504Y-38061D01*
X54586Y-38089D01*
X54675Y-38119D01*
X54774Y-38152D01*
X54805Y-38163D01*
X54868Y-38184D01*
X54932Y-38206D01*
X54994Y-38227D01*
X55054Y-38247D01*
X55110Y-38266D01*
X55162Y-38284D01*
X55208Y-38300D01*
X55247Y-38313D01*
X55277Y-38324D01*
X55294Y-38330D01*
X55432Y-38382D01*
X55561Y-38434D01*
X55680Y-38486D01*
X55790Y-38538D01*
X55892Y-38591D01*
X55986Y-38644D01*
X56073Y-38699D01*
X56153Y-38756D01*
X56226Y-38814D01*
X56294Y-38875D01*
X56356Y-38939D01*
X56413Y-39005D01*
X56467Y-39075D01*
X56496Y-39118D01*
X56523Y-39159D01*
X56547Y-39200D01*
X56570Y-39242D01*
X56593Y-39288D01*
X56616Y-39337D01*
X56639Y-39390D01*
X56663Y-39449D01*
X56688Y-39515D01*
X56714Y-39589D01*
X56743Y-39671D01*
X56753Y-39702D01*
X56781Y-39783D01*
X56806Y-39854D01*
X56830Y-39918D01*
X56851Y-39975D01*
X56872Y-40027D01*
X56893Y-40075D01*
X56909Y-40112D01*
X56970Y-40232D01*
X57040Y-40349D01*
X57117Y-40463D01*
X57202Y-40571D01*
X57291Y-40669D01*
X57337Y-40716D01*
X57386Y-40762D01*
X57437Y-40807D01*
X57491Y-40853D01*
X57551Y-40900D01*
X57615Y-40948D01*
X57648Y-40972D01*
X57648Y-38340D01*
X57648Y-38281D01*
X57649Y-38224D01*
X57653Y-38170D01*
X57657Y-38122D01*
X57660Y-38102D01*
X57682Y-37991D01*
X57711Y-37887D01*
X57748Y-37788D01*
X57794Y-37696D01*
X57848Y-37610D01*
X57910Y-37528D01*
X57960Y-37473D01*
X58038Y-37399D01*
X58123Y-37333D01*
X58214Y-37276D01*
X58311Y-37227D01*
X58413Y-37187D01*
X58521Y-37155D01*
X58634Y-37133D01*
X58752Y-37119D01*
X58876Y-37114D01*
X58885Y-37114D01*
X59021Y-37119D01*
X59159Y-37134D01*
X59297Y-37160D01*
X59436Y-37196D01*
X59576Y-37242D01*
X59631Y-37263D01*
X59673Y-37280D01*
X59721Y-37302D01*
X59774Y-37327D01*
X59828Y-37354D01*
X59882Y-37382D01*
X59932Y-37409D01*
X59977Y-37434D01*
X59997Y-37446D01*
X60121Y-37525D01*
X60240Y-37612D01*
X60353Y-37703D01*
X60461Y-37800D01*
X60560Y-37900D01*
X60650Y-38003D01*
X60670Y-38027D01*
X60760Y-38148D01*
X60841Y-38273D01*
X60912Y-38401D01*
X60973Y-38532D01*
X61025Y-38667D01*
X61067Y-38804D01*
X61098Y-38944D01*
X61119Y-39078D01*
X61121Y-39108D01*
X61123Y-39145D01*
X61125Y-39188D01*
X61125Y-39235D01*
X61125Y-39282D01*
X61125Y-39328D01*
X61123Y-39371D01*
X61122Y-39408D01*
X61119Y-39437D01*
X61119Y-39437D01*
X61099Y-39560D01*
X61071Y-39677D01*
X61034Y-39788D01*
X60988Y-39894D01*
X60934Y-39993D01*
X60872Y-40087D01*
X60801Y-40174D01*
X60737Y-40240D01*
X60656Y-40311D01*
X60570Y-40373D01*
X60478Y-40426D01*
X60382Y-40470D01*
X60280Y-40505D01*
X60175Y-40531D01*
X60065Y-40547D01*
X59952Y-40554D01*
X59836Y-40552D01*
X59799Y-40549D01*
X59672Y-40533D01*
X59543Y-40507D01*
X59414Y-40472D01*
X59284Y-40426D01*
X59154Y-40371D01*
X59025Y-40307D01*
X58896Y-40234D01*
X58769Y-40153D01*
X58660Y-40074D01*
X58524Y-39965D01*
X58396Y-39852D01*
X58278Y-39733D01*
X58168Y-39609D01*
X58069Y-39481D01*
X57978Y-39347D01*
X57897Y-39209D01*
X57857Y-39133D01*
X57796Y-39000D01*
X57745Y-38866D01*
X57705Y-38731D01*
X57674Y-38592D01*
X57658Y-38493D01*
X57653Y-38448D01*
X57650Y-38396D01*
X57648Y-38340D01*
X57648Y-40972D01*
X57686Y-40999D01*
X57764Y-41053D01*
X57850Y-41110D01*
X57899Y-41142D01*
X57982Y-41197D01*
X58061Y-41249D01*
X58134Y-41297D01*
X58201Y-41342D01*
X58262Y-41382D01*
X58316Y-41418D01*
X58362Y-41450D01*
X58401Y-41476D01*
X58431Y-41498D01*
X58442Y-41506D01*
X58549Y-41587D01*
X58648Y-41667D01*
X58737Y-41746D01*
X58819Y-41826D01*
X58893Y-41907D01*
X58962Y-41991D01*
X59025Y-42078D01*
X59083Y-42168D01*
X59138Y-42264D01*
X59190Y-42366D01*
X59193Y-42372D01*
X59214Y-42416D01*
X59234Y-42461D01*
X59255Y-42508D01*
X59276Y-42559D01*
X59298Y-42613D01*
X59322Y-42672D01*
X59347Y-42738D01*
X59374Y-42810D01*
X59405Y-42891D01*
X59434Y-42970D01*
X59465Y-43054D01*
X59493Y-43129D01*
X59518Y-43196D01*
X59541Y-43257D01*
X59562Y-43311D01*
X59582Y-43360D01*
X59601Y-43406D01*
X59619Y-43449D01*
X59637Y-43489D01*
X59655Y-43529D01*
X59674Y-43569D01*
X59694Y-43610D01*
X59702Y-43626D01*
X59748Y-43717D01*
X59797Y-43804D01*
X59848Y-43889D01*
X59904Y-43972D01*
X59965Y-44057D01*
X60032Y-44143D01*
X60106Y-44233D01*
X60139Y-44273D01*
X60164Y-44301D01*
X60187Y-44328D01*
X60210Y-44354D01*
X60234Y-44381D01*
X60259Y-44408D01*
X60285Y-44436D01*
X60313Y-44466D01*
X60344Y-44499D01*
X60379Y-44535D01*
X60417Y-44575D01*
X60460Y-44618D01*
X60502Y-44662D01*
X60502Y-42387D01*
X60505Y-42268D01*
X60517Y-42151D01*
X60538Y-42037D01*
X60567Y-41926D01*
X60606Y-41820D01*
X60641Y-41743D01*
X60683Y-41664D01*
X60729Y-41595D01*
X60779Y-41534D01*
X60833Y-41481D01*
X60892Y-41435D01*
X60957Y-41396D01*
X61016Y-41367D01*
X61076Y-41346D01*
X61138Y-41333D01*
X61205Y-41325D01*
X61257Y-41324D01*
X61329Y-41327D01*
X61399Y-41336D01*
X61468Y-41350D01*
X61539Y-41372D01*
X61613Y-41401D01*
X61676Y-41430D01*
X61783Y-41487D01*
X61885Y-41554D01*
X61983Y-41629D01*
X62076Y-41712D01*
X62163Y-41803D01*
X62245Y-41901D01*
X62321Y-42005D01*
X62391Y-42116D01*
X62453Y-42232D01*
X62508Y-42352D01*
X62556Y-42478D01*
X62596Y-42607D01*
X62627Y-42739D01*
X62628Y-42745D01*
X62636Y-42789D01*
X62643Y-42828D01*
X62648Y-42865D01*
X62652Y-42901D01*
X62655Y-42939D01*
X62656Y-42981D01*
X62657Y-43029D01*
X62657Y-43086D01*
X62657Y-43086D01*
X62657Y-43133D01*
X62657Y-43171D01*
X62656Y-43203D01*
X62656Y-43229D01*
X62654Y-43252D01*
X62652Y-43273D01*
X62649Y-43294D01*
X62646Y-43318D01*
X62645Y-43319D01*
X62624Y-43428D01*
X62597Y-43531D01*
X62563Y-43627D01*
X62524Y-43716D01*
X62479Y-43797D01*
X62428Y-43871D01*
X62372Y-43936D01*
X62312Y-43993D01*
X62259Y-44032D01*
X62203Y-44066D01*
X62145Y-44093D01*
X62086Y-44113D01*
X62021Y-44127D01*
X61949Y-44135D01*
X61920Y-44137D01*
X61910Y-44137D01*
X61892Y-44136D01*
X61869Y-44134D01*
X61847Y-44132D01*
X61751Y-44119D01*
X61655Y-44095D01*
X61559Y-44062D01*
X61463Y-44019D01*
X61366Y-43965D01*
X61269Y-43901D01*
X61220Y-43866D01*
X61195Y-43845D01*
X61164Y-43818D01*
X61129Y-43786D01*
X61092Y-43750D01*
X61055Y-43713D01*
X61019Y-43675D01*
X60985Y-43639D01*
X60956Y-43606D01*
X60931Y-43577D01*
X60927Y-43571D01*
X60848Y-43462D01*
X60778Y-43350D01*
X60715Y-43234D01*
X60660Y-43116D01*
X60613Y-42996D01*
X60574Y-42875D01*
X60543Y-42753D01*
X60521Y-42630D01*
X60507Y-42508D01*
X60502Y-42387D01*
X60502Y-44662D01*
X60508Y-44668D01*
X60561Y-44722D01*
X60621Y-44783D01*
X60683Y-44846D01*
X60747Y-44911D01*
X60804Y-44969D01*
X60855Y-45021D01*
X60901Y-45067D01*
X60941Y-45109D01*
X60977Y-45145D01*
X61008Y-45178D01*
X61037Y-45207D01*
X61062Y-45234D01*
X61085Y-45258D01*
X61106Y-45281D01*
X61126Y-45303D01*
X61146Y-45324D01*
X61165Y-45345D01*
X61185Y-45367D01*
X61201Y-45385D01*
X61295Y-45493D01*
X61381Y-45596D01*
X61460Y-45697D01*
X61534Y-45797D01*
X61603Y-45897D01*
X61668Y-45998D01*
X61730Y-46103D01*
X61741Y-46122D01*
X61868Y-46350D01*
X61985Y-46577D01*
X62092Y-46802D01*
X62191Y-47027D01*
X62282Y-47253D01*
X62364Y-47481D01*
X62439Y-47712D01*
X62506Y-47947D01*
X62519Y-47993D01*
X62532Y-48043D01*
X62546Y-48099D01*
X62560Y-48159D01*
X62575Y-48220D01*
X62589Y-48280D01*
X62601Y-48337D01*
X62612Y-48388D01*
X62618Y-48416D01*
X62623Y-48439D01*
X62627Y-48460D01*
X62630Y-48475D01*
X62631Y-48480D01*
X62634Y-48492D01*
X63419Y-48492D01*
X64204Y-48492D01*
X64201Y-48323D01*
X64193Y-48053D01*
X64181Y-47775D01*
X64164Y-47491D01*
X64143Y-47203D01*
X64119Y-46912D01*
X64090Y-46620D01*
X64058Y-46329D01*
X64022Y-46040D01*
X64019Y-46010D01*
X63949Y-45524D01*
X63869Y-45038D01*
X63778Y-44555D01*
X63678Y-44073D01*
X63567Y-43594D01*
X63446Y-43116D01*
X63315Y-42642D01*
X63174Y-42170D01*
X63023Y-41702D01*
X62863Y-41237D01*
X62692Y-40775D01*
X62512Y-40317D01*
X62504Y-40297D01*
X62484Y-40249D01*
X62463Y-40197D01*
X62441Y-40143D01*
X62420Y-40091D01*
X62401Y-40043D01*
X62384Y-40000D01*
X62377Y-39983D01*
X62249Y-39674D01*
X62115Y-39362D01*
X61973Y-39050D01*
X61826Y-38739D01*
X61673Y-38430D01*
X61516Y-38124D01*
X61355Y-37824D01*
X61191Y-37530D01*
X61025Y-37244D01*
X60886Y-37014D01*
X60836Y-36935D01*
X60785Y-36853D01*
X60733Y-36770D01*
X60680Y-36687D01*
X60627Y-36604D01*
X60575Y-36523D01*
X60523Y-36444D01*
X60474Y-36369D01*
X60426Y-36297D01*
X60382Y-36230D01*
X60341Y-36170D01*
X60304Y-36117D01*
X60272Y-36071D01*
X60263Y-36058D01*
X60249Y-36039D01*
X60234Y-36052D01*
X60134Y-36128D01*
X60032Y-36195D01*
X59926Y-36252D01*
X59816Y-36301D01*
X59700Y-36341D01*
X59580Y-36372D01*
X59453Y-36395D01*
X59429Y-36398D01*
X59395Y-36402D01*
X59352Y-36405D01*
X59304Y-36407D01*
X59253Y-36408D01*
X59200Y-36408D01*
X59148Y-36408D01*
X59100Y-36406D01*
X59057Y-36404D01*
X59023Y-36401D01*
X59022Y-36401D01*
X58878Y-36378D01*
X58738Y-36346D01*
X58602Y-36304D01*
X58469Y-36252D01*
X58341Y-36190D01*
X58216Y-36119D01*
X58096Y-36039D01*
X57981Y-35949D01*
X57870Y-35849D01*
X57818Y-35799D01*
X57721Y-35693D01*
X57634Y-35585D01*
X57555Y-35472D01*
X57485Y-35354D01*
X57423Y-35230D01*
X57397Y-35172D01*
X57355Y-35062D01*
X57319Y-34948D01*
X57291Y-34831D01*
X57271Y-34713D01*
X57258Y-34596D01*
X57253Y-34481D01*
X57257Y-34375D01*
X57271Y-34246D01*
X57294Y-34122D01*
X57325Y-34003D01*
X57367Y-33889D01*
X57417Y-33779D01*
X57477Y-33673D01*
X57501Y-33636D01*
X57534Y-33588D01*
X57565Y-33545D01*
X57597Y-33506D01*
X57632Y-33466D01*
X57672Y-33424D01*
X57687Y-33410D01*
X57728Y-33370D01*
X57765Y-33335D01*
X57802Y-33304D01*
X57841Y-33273D01*
X57852Y-33264D01*
X57868Y-33253D01*
X57829Y-33215D01*
X57689Y-33084D01*
X57541Y-32950D01*
X57384Y-32812D01*
X57222Y-32673D01*
X57054Y-32533D01*
X56881Y-32392D01*
X56704Y-32252D01*
X56538Y-32123D01*
X56472Y-32073D01*
X56447Y-32142D01*
X56400Y-32258D01*
X56344Y-32369D01*
X56280Y-32474D01*
X56208Y-32573D01*
X56129Y-32665D01*
X56042Y-32750D01*
X55949Y-32829D01*
X55850Y-32900D01*
X55744Y-32963D01*
X55634Y-33018D01*
X55518Y-33065D01*
X55398Y-33103D01*
X55273Y-33133D01*
X55145Y-33153D01*
X55121Y-33155D01*
X55079Y-33159D01*
X55030Y-33161D01*
X54975Y-33163D01*
X54920Y-33163D01*
X54865Y-33163D01*
X54815Y-33161D01*
X54771Y-33159D01*
X54765Y-33158D01*
X54626Y-33140D01*
X54488Y-33112D01*
X54352Y-33075D01*
X54219Y-33028D01*
X54088Y-32972D01*
X53961Y-32907D01*
X53839Y-32833D01*
X53720Y-32752D01*
X53608Y-32662D01*
X53500Y-32566D01*
X53399Y-32462D01*
X53306Y-32351D01*
X53219Y-32234D01*
X53209Y-32219D01*
X53134Y-32099D01*
X53068Y-31976D01*
X53011Y-31851D01*
X52963Y-31725D01*
X52925Y-31596D01*
X52896Y-31467D01*
X52876Y-31338D01*
X52865Y-31209D01*
X52865Y-31080D01*
X52873Y-30953D01*
X52891Y-30827D01*
X52919Y-30703D01*
X52957Y-30582D01*
X53004Y-30464D01*
X53045Y-30379D01*
X53059Y-30352D01*
X53072Y-30327D01*
X53087Y-30303D01*
X53103Y-30277D01*
X53122Y-30247D01*
X53146Y-30210D01*
X53148Y-30207D01*
X53150Y-30203D01*
X53150Y-30199D01*
X53147Y-30195D01*
X53139Y-30190D01*
X53125Y-30184D01*
X53103Y-30175D01*
X53073Y-30163D01*
X53072Y-30163D01*
X53031Y-30147D01*
X52998Y-30134D01*
X52972Y-30124D01*
X52952Y-30116D01*
X52936Y-30110D01*
X52923Y-30105D01*
X52912Y-30100D01*
X52902Y-30096D01*
X52890Y-30092D01*
X52861Y-30081D01*
X52840Y-30073D01*
X52824Y-30067D01*
X52812Y-30063D01*
X52801Y-30058D01*
X52795Y-30056D01*
X52780Y-30050D01*
X52759Y-30043D01*
X52737Y-30035D01*
X52735Y-30034D01*
X52718Y-30028D01*
X52693Y-30019D01*
X52662Y-30008D01*
X52629Y-29996D01*
X52595Y-29984D01*
X52594Y-29984D01*
X52498Y-29950D01*
X52395Y-29916D01*
X52286Y-29880D01*
X52174Y-29844D01*
X52060Y-29809D01*
X51947Y-29775D01*
X51837Y-29742D01*
X51765Y-29722D01*
X51737Y-29714D01*
X51703Y-29705D01*
X51664Y-29695D01*
X51622Y-29683D01*
X51577Y-29672D01*
X51531Y-29660D01*
X51485Y-29648D01*
X51440Y-29636D01*
X51397Y-29625D01*
X51357Y-29615D01*
X51321Y-29606D01*
X51291Y-29598D01*
X51267Y-29592D01*
X51250Y-29589D01*
X51243Y-29587D01*
X51243Y-29587D01*
X51243Y-29593D01*
X51244Y-29606D01*
X51247Y-29625D01*
X51249Y-29641D01*
X51252Y-29668D01*
X51255Y-29704D01*
X51256Y-29746D01*
X51257Y-29791D01*
X51258Y-29838D01*
X51257Y-29885D01*
X51257Y-29928D01*
X51255Y-29967D01*
X51252Y-29998D01*
X51251Y-30005D01*
X51231Y-30129D01*
X51201Y-30249D01*
X51161Y-30364D01*
X51112Y-30474D01*
X51054Y-30580D01*
X50987Y-30680D01*
X50912Y-30775D01*
X50847Y-30845D01*
X50756Y-30929D01*
X50658Y-31005D01*
X50554Y-31073D01*
X50445Y-31133D01*
X50329Y-31184D01*
X50209Y-31227D01*
X50084Y-31262D01*
X49954Y-31287D01*
X49845Y-31301D01*
X49806Y-31304D01*
X49759Y-31306D01*
X49707Y-31307D01*
X49653Y-31306D01*
X49599Y-31306D01*
X49548Y-31303D01*
X49503Y-31301D01*
X49481Y-31299D01*
X49339Y-31278D01*
X49200Y-31249D01*
X49064Y-31209D01*
X48931Y-31158D01*
X48800Y-31098D01*
X48796Y-31096D01*
X48757Y-31077D01*
X48726Y-31060D01*
X48700Y-31046D01*
X48676Y-31032D01*
X48652Y-31018D01*
X48626Y-31002D01*
X48596Y-30982D01*
X48575Y-30968D01*
X48461Y-30886D01*
X48355Y-30798D01*
X48255Y-30703D01*
X48164Y-30601D01*
X48080Y-30494D01*
X48005Y-30382D01*
X47939Y-30264D01*
X47881Y-30143D01*
X47833Y-30018D01*
X47807Y-29932D01*
X47781Y-29823D01*
X47762Y-29711D01*
X47751Y-29598D01*
X47748Y-29486D01*
X47754Y-29376D01*
X47767Y-29272D01*
X47776Y-29219D01*
X47734Y-29219D01*
X47709Y-29219D01*
X47676Y-29220D01*
X47636Y-29221D01*
X47589Y-29223D01*
X47539Y-29224D01*
X47485Y-29227D01*
X47430Y-29229D01*
X47376Y-29232D01*
X47323Y-29234D01*
X47273Y-29237D01*
X47266Y-29237D01*
X46895Y-29263D01*
X46524Y-29298D01*
X46155Y-29342D01*
X45790Y-29396D01*
X45669Y-29416D01*
X45620Y-29424D01*
X45569Y-29433D01*
X45518Y-29442D01*
X45467Y-29451D01*
X45418Y-29460D01*
X45372Y-29469D01*
X45330Y-29477D01*
X45292Y-29484D01*
X45260Y-29490D01*
X45236Y-29496D01*
X45219Y-29499D01*
X45211Y-29502D01*
X45211Y-29502D01*
X45211Y-29508D01*
X45213Y-29522D01*
X45218Y-29542D01*
X45222Y-29558D01*
X45241Y-29626D01*
X45255Y-29693D01*
X45265Y-29760D01*
X45270Y-29831D01*
X45273Y-29909D01*
X45273Y-29932D01*
X45272Y-29994D01*
X45269Y-30048D01*
X45265Y-30098D01*
X45258Y-30146D01*
X45249Y-30196D01*
X45244Y-30223D01*
X45212Y-30343D01*
X45170Y-30460D01*
X45119Y-30574D01*
X45058Y-30685D01*
X44989Y-30791D01*
X44912Y-30893D01*
X44826Y-30990D01*
X44733Y-31080D01*
X44632Y-31165D01*
X44525Y-31243D01*
X44515Y-31249D01*
X44475Y-31275D01*
X44439Y-31297D01*
X44403Y-31318D01*
X44366Y-31338D01*
X44323Y-31360D01*
X44284Y-31379D01*
X44162Y-31433D01*
X44037Y-31478D01*
X43908Y-31515D01*
X43779Y-31543D01*
X43650Y-31561D01*
X43573Y-31567D01*
X43513Y-31570D01*
X43513Y-33414D01*
X43513Y-35258D01*
X43513Y-35258D01*
X43513Y-35258D01*
G37*
G36*
X43513Y-36606D02*
X43533Y-36603D01*
X43544Y-36601D01*
X43563Y-36599D01*
X43590Y-36597D01*
X43621Y-36594D01*
X43656Y-36590D01*
X43670Y-36589D01*
X44010Y-36564D01*
X44354Y-36549D01*
X44703Y-36542D01*
X45056Y-36545D01*
X45415Y-36557D01*
X45779Y-36579D01*
X45779Y-36579D01*
X46160Y-36611D01*
X46543Y-36653D01*
X46927Y-36705D01*
X47311Y-36767D01*
X47695Y-36839D01*
X48078Y-36920D01*
X48459Y-37010D01*
X48838Y-37110D01*
X49215Y-37219D01*
X49588Y-37337D01*
X49957Y-37463D01*
X50322Y-37598D01*
X50681Y-37741D01*
X51023Y-37888D01*
X51327Y-38026D01*
X51624Y-38170D01*
X51914Y-38319D01*
X52196Y-38472D01*
X52470Y-38630D01*
X52737Y-38792D01*
X52995Y-38959D01*
X53244Y-39129D01*
X53486Y-39304D01*
X53718Y-39482D01*
X53942Y-39665D01*
X54157Y-39850D01*
X54362Y-40040D01*
X54558Y-40232D01*
X54745Y-40428D01*
X54922Y-40627D01*
X55060Y-40793D01*
X55211Y-40988D01*
X55352Y-41185D01*
X55483Y-41383D01*
X55605Y-41584D01*
X55716Y-41785D01*
X55817Y-41989D01*
X55908Y-42194D01*
X55988Y-42400D01*
X56059Y-42608D01*
X56119Y-42816D01*
X56168Y-43026D01*
X56173Y-43050D01*
X56179Y-43077D01*
X56183Y-43101D01*
X56187Y-43123D01*
X56189Y-43146D01*
X56192Y-43170D01*
X56194Y-43199D01*
X56195Y-43234D01*
X56197Y-43277D01*
X56198Y-43291D01*
X56199Y-43329D01*
X56200Y-43376D01*
X56201Y-43431D01*
X56201Y-43491D01*
X56201Y-43556D01*
X56201Y-43624D01*
X56201Y-43695D01*
X56201Y-43765D01*
X56200Y-43836D01*
X56200Y-43904D01*
X56199Y-43969D01*
X56198Y-44029D01*
X56196Y-44084D01*
X56195Y-44131D01*
X56193Y-44169D01*
X56193Y-44182D01*
X56180Y-44375D01*
X56166Y-44560D01*
X56149Y-44738D01*
X56130Y-44912D01*
X56109Y-45082D01*
X56085Y-45252D01*
X56057Y-45423D01*
X56027Y-45598D01*
X56021Y-45627D01*
X55957Y-45947D01*
X55883Y-46266D01*
X55799Y-46585D01*
X55705Y-46903D01*
X55602Y-47218D01*
X55491Y-47530D01*
X55371Y-47836D01*
X55243Y-48138D01*
X55156Y-48329D01*
X55141Y-48360D01*
X55127Y-48391D01*
X55114Y-48419D01*
X55103Y-48442D01*
X55098Y-48454D01*
X55080Y-48492D01*
X55680Y-48492D01*
X55759Y-48492D01*
X55834Y-48491D01*
X55906Y-48491D01*
X55974Y-48491D01*
X56037Y-48491D01*
X56094Y-48490D01*
X56145Y-48490D01*
X56189Y-48490D01*
X56225Y-48489D01*
X56253Y-48489D01*
X56272Y-48488D01*
X56282Y-48488D01*
X56283Y-48488D01*
X56286Y-48482D01*
X56292Y-48468D01*
X56300Y-48447D01*
X56311Y-48421D01*
X56323Y-48391D01*
X56327Y-48381D01*
X56445Y-48082D01*
X56552Y-47779D01*
X56650Y-47472D01*
X56738Y-47162D01*
X56816Y-46849D01*
X56884Y-46532D01*
X56942Y-46213D01*
X56990Y-45891D01*
X57028Y-45566D01*
X57056Y-45239D01*
X57060Y-45171D01*
X57066Y-45061D01*
X57071Y-44946D01*
X57075Y-44827D01*
X57078Y-44705D01*
X57080Y-44582D01*
X57080Y-44459D01*
X57080Y-44337D01*
X57078Y-44220D01*
X57076Y-44107D01*
X57072Y-44000D01*
X57067Y-43902D01*
X57063Y-43836D01*
X57049Y-43690D01*
X57028Y-43537D01*
X57000Y-43379D01*
X56967Y-43216D01*
X56927Y-43051D01*
X56881Y-42883D01*
X56830Y-42715D01*
X56774Y-42547D01*
X56713Y-42380D01*
X56647Y-42216D01*
X56637Y-42191D01*
X56529Y-41949D01*
X56410Y-41710D01*
X56282Y-41474D01*
X56145Y-41242D01*
X55998Y-41014D01*
X55841Y-40789D01*
X55675Y-40568D01*
X55499Y-40352D01*
X55315Y-40139D01*
X55121Y-39932D01*
X54919Y-39728D01*
X54708Y-39530D01*
X54592Y-39426D01*
X54359Y-39228D01*
X54117Y-39035D01*
X53867Y-38848D01*
X53609Y-38666D01*
X53341Y-38490D01*
X53065Y-38319D01*
X52781Y-38153D01*
X52487Y-37993D01*
X52184Y-37838D01*
X52179Y-37835D01*
X52128Y-37810D01*
X52085Y-37788D01*
X52047Y-37770D01*
X52013Y-37754D01*
X51982Y-37738D01*
X51951Y-37724D01*
X51918Y-37708D01*
X51882Y-37692D01*
X51856Y-37680D01*
X51829Y-37667D01*
X51798Y-37652D01*
X51768Y-37639D01*
X51760Y-37635D01*
X51740Y-37625D01*
X51723Y-37618D01*
X51712Y-37613D01*
X51709Y-37612D01*
X51703Y-37610D01*
X51691Y-37604D01*
X51672Y-37596D01*
X51656Y-37588D01*
X51635Y-37579D01*
X51618Y-37571D01*
X51607Y-37566D01*
X51604Y-37565D01*
X51598Y-37563D01*
X51586Y-37558D01*
X51577Y-37554D01*
X51559Y-37546D01*
X51542Y-37538D01*
X51536Y-37536D01*
X51523Y-37530D01*
X51505Y-37521D01*
X51491Y-37515D01*
X51468Y-37505D01*
X51443Y-37495D01*
X51428Y-37488D01*
X51409Y-37481D01*
X51393Y-37474D01*
X51384Y-37470D01*
X51375Y-37466D01*
X51358Y-37459D01*
X51339Y-37451D01*
X51335Y-37449D01*
X51312Y-37440D01*
X51290Y-37431D01*
X51273Y-37424D01*
X51272Y-37423D01*
X51195Y-37391D01*
X51125Y-37362D01*
X51061Y-37337D01*
X51006Y-37315D01*
X50999Y-37313D01*
X50974Y-37303D01*
X50945Y-37292D01*
X50918Y-37282D01*
X50918Y-37281D01*
X50894Y-37272D01*
X50871Y-37263D01*
X50852Y-37256D01*
X50849Y-37255D01*
X50820Y-37244D01*
X50797Y-37235D01*
X50778Y-37228D01*
X50760Y-37221D01*
X50752Y-37218D01*
X50733Y-37211D01*
X50709Y-37202D01*
X50684Y-37193D01*
X50681Y-37193D01*
X50665Y-37186D01*
X50640Y-37178D01*
X50609Y-37166D01*
X50574Y-37154D01*
X50538Y-37141D01*
X50514Y-37132D01*
X50457Y-37112D01*
X50392Y-37089D01*
X50320Y-37064D01*
X50244Y-37038D01*
X50164Y-37012D01*
X50084Y-36985D01*
X50004Y-36959D01*
X49926Y-36934D01*
X49852Y-36911D01*
X49784Y-36889D01*
X49771Y-36885D01*
X49541Y-36816D01*
X49311Y-36749D01*
X49080Y-36685D01*
X48846Y-36623D01*
X48608Y-36564D01*
X48365Y-36506D01*
X48116Y-36449D01*
X47859Y-36394D01*
X47594Y-36339D01*
X47484Y-36317D01*
X47299Y-36281D01*
X47123Y-36247D01*
X46955Y-36216D01*
X46795Y-36188D01*
X46640Y-36162D01*
X46491Y-36138D01*
X46346Y-36117D01*
X46205Y-36098D01*
X46066Y-36080D01*
X45929Y-36064D01*
X45792Y-36050D01*
X45655Y-36037D01*
X45516Y-36025D01*
X45375Y-36015D01*
X45230Y-36006D01*
X45223Y-36005D01*
X45192Y-36004D01*
X45151Y-36003D01*
X45102Y-36002D01*
X45047Y-36001D01*
X44985Y-36000D01*
X44919Y-35999D01*
X44850Y-35999D01*
X44779Y-35999D01*
X44708Y-35999D01*
X44636Y-35999D01*
X44566Y-35999D01*
X44499Y-36000D01*
X44436Y-36000D01*
X44378Y-36001D01*
X44326Y-36002D01*
X44283Y-36003D01*
X44248Y-36005D01*
X44237Y-36005D01*
X44173Y-36009D01*
X44106Y-36014D01*
X44038Y-36019D01*
X43970Y-36024D01*
X43903Y-36029D01*
X43838Y-36035D01*
X43776Y-36040D01*
X43718Y-36045D01*
X43666Y-36050D01*
X43620Y-36055D01*
X43580Y-36060D01*
X43550Y-36064D01*
X43528Y-36067D01*
X43527Y-36067D01*
X43513Y-36070D01*
X43513Y-36338D01*
X43513Y-36606D01*
X43513Y-36606D01*
X43513Y-36606D01*
G37*
G36*
X45690Y-46454D02*
X45913Y-46661D01*
X45954Y-46699D01*
X45992Y-46734D01*
X46027Y-46767D01*
X46058Y-46797D01*
X46086Y-46823D01*
X46107Y-46844D01*
X46123Y-46859D01*
X46133Y-46869D01*
X46136Y-46872D01*
X46131Y-46874D01*
X46120Y-46875D01*
X46111Y-46874D01*
X46092Y-46872D01*
X46068Y-46870D01*
X46051Y-46868D01*
X46015Y-46865D01*
X46015Y-46826D01*
X46015Y-46787D01*
X45981Y-46787D01*
X45947Y-46787D01*
X45947Y-46828D01*
X45947Y-46869D01*
X45930Y-46877D01*
X45917Y-46885D01*
X45901Y-46897D01*
X45883Y-46912D01*
X45880Y-46915D01*
X45864Y-46929D01*
X45852Y-46938D01*
X45842Y-46942D01*
X45831Y-46944D01*
X45822Y-46944D01*
X45795Y-46944D01*
X45795Y-46981D01*
X45795Y-47000D01*
X45796Y-47011D01*
X45799Y-47016D01*
X45805Y-47017D01*
X45809Y-47017D01*
X45818Y-47019D01*
X45821Y-47024D01*
X45819Y-47035D01*
X45818Y-47047D01*
X45815Y-47067D01*
X45812Y-47090D01*
X45810Y-47103D01*
X45804Y-47154D01*
X45786Y-47154D01*
X45769Y-47154D01*
X45769Y-47269D01*
X45769Y-47385D01*
X45789Y-47385D01*
X45790Y-47385D01*
X45790Y-47364D01*
X45790Y-47272D01*
X45790Y-47180D01*
X45816Y-47180D01*
X45828Y-47180D01*
X45828Y-47140D01*
X45829Y-47126D01*
X45832Y-47103D01*
X45834Y-47088D01*
X45838Y-47060D01*
X45842Y-47040D01*
X45846Y-47028D01*
X45853Y-47021D01*
X45863Y-47018D01*
X45879Y-47017D01*
X45891Y-47017D01*
X45891Y-46938D01*
X45896Y-46931D01*
X45907Y-46921D01*
X45920Y-46910D01*
X45932Y-46902D01*
X45941Y-46897D01*
X45942Y-46897D01*
X45945Y-46901D01*
X45947Y-46913D01*
X45947Y-46921D01*
X45947Y-46944D01*
X45918Y-46944D01*
X45900Y-46943D01*
X45892Y-46941D01*
X45891Y-46938D01*
X45891Y-47017D01*
X45898Y-47017D01*
X45947Y-47017D01*
X45947Y-47309D01*
X45947Y-47363D01*
X45947Y-47414D01*
X45946Y-47460D01*
X45946Y-47502D01*
X45945Y-47537D01*
X45945Y-47566D01*
X45944Y-47586D01*
X45943Y-47598D01*
X45943Y-47600D01*
X45936Y-47597D01*
X45925Y-47590D01*
X45918Y-47585D01*
X45892Y-47563D01*
X45872Y-47538D01*
X45857Y-47508D01*
X45845Y-47471D01*
X45837Y-47430D01*
X45834Y-47409D01*
X45832Y-47395D01*
X45834Y-47388D01*
X45838Y-47385D01*
X45846Y-47385D01*
X45847Y-47385D01*
X45863Y-47385D01*
X45863Y-47269D01*
X45863Y-47154D01*
X45845Y-47154D01*
X45837Y-47154D01*
X45831Y-47153D01*
X45828Y-47149D01*
X45828Y-47140D01*
X45828Y-47180D01*
X45842Y-47180D01*
X45842Y-47272D01*
X45842Y-47364D01*
X45816Y-47364D01*
X45790Y-47364D01*
X45790Y-47385D01*
X45808Y-47385D01*
X45814Y-47428D01*
X45822Y-47472D01*
X45832Y-47507D01*
X45845Y-47537D01*
X45863Y-47563D01*
X45875Y-47577D01*
X45890Y-47593D01*
X45898Y-47603D01*
X45901Y-47609D01*
X45899Y-47613D01*
X45895Y-47615D01*
X45880Y-47629D01*
X45872Y-47648D01*
X45870Y-47670D01*
X45875Y-47692D01*
X45876Y-47694D01*
X45891Y-47714D01*
X45911Y-47724D01*
X45928Y-47726D01*
X45950Y-47722D01*
X45969Y-47713D01*
X45983Y-47700D01*
X45989Y-47684D01*
X45989Y-47682D01*
X45993Y-47675D01*
X46002Y-47673D01*
X46011Y-47672D01*
X46014Y-47667D01*
X46015Y-47654D01*
X46015Y-47652D01*
X46015Y-47631D01*
X46015Y-47353D01*
X46015Y-47288D01*
X46015Y-47248D01*
X46015Y-46886D01*
X46030Y-46888D01*
X46042Y-46890D01*
X46061Y-46892D01*
X46083Y-46894D01*
X46089Y-46894D01*
X46108Y-46895D01*
X46123Y-46896D01*
X46137Y-46898D01*
X46149Y-46901D01*
X46161Y-46905D01*
X46173Y-46911D01*
X46187Y-46921D01*
X46204Y-46934D01*
X46224Y-46952D01*
X46243Y-46968D01*
X46243Y-46909D01*
X46248Y-46909D01*
X46263Y-46910D01*
X46285Y-46912D01*
X46315Y-46914D01*
X46350Y-46917D01*
X46390Y-46920D01*
X46433Y-46924D01*
X46479Y-46928D01*
X46525Y-46932D01*
X46571Y-46935D01*
X46616Y-46939D01*
X46658Y-46943D01*
X46696Y-46947D01*
X46730Y-46950D01*
X46757Y-46952D01*
X46776Y-46954D01*
X46788Y-46956D01*
X46790Y-46956D01*
X46787Y-46960D01*
X46777Y-46970D01*
X46762Y-46985D01*
X46742Y-47005D01*
X46719Y-47027D01*
X46694Y-47051D01*
X46668Y-47076D01*
X46642Y-47101D01*
X46617Y-47125D01*
X46594Y-47147D01*
X46574Y-47165D01*
X46558Y-47179D01*
X46548Y-47188D01*
X46545Y-47191D01*
X46540Y-47187D01*
X46529Y-47177D01*
X46512Y-47162D01*
X46489Y-47141D01*
X46462Y-47117D01*
X46432Y-47089D01*
X46400Y-47059D01*
X46391Y-47051D01*
X46358Y-47020D01*
X46327Y-46991D01*
X46300Y-46966D01*
X46278Y-46944D01*
X46260Y-46927D01*
X46248Y-46915D01*
X46243Y-46910D01*
X46243Y-46909D01*
X46243Y-46968D01*
X46248Y-46974D01*
X46278Y-47001D01*
X46314Y-47034D01*
X46342Y-47061D01*
X46377Y-47093D01*
X46410Y-47124D01*
X46440Y-47152D01*
X46465Y-47176D01*
X46486Y-47196D01*
X46501Y-47211D01*
X46510Y-47220D01*
X46512Y-47222D01*
X46509Y-47226D01*
X46499Y-47237D01*
X46484Y-47253D01*
X46464Y-47272D01*
X46441Y-47295D01*
X46427Y-47308D01*
X46340Y-47391D01*
X46340Y-47272D01*
X46340Y-47154D01*
X46288Y-47154D01*
X46236Y-47154D01*
X46236Y-47296D01*
X46236Y-47437D01*
X46263Y-47437D01*
X46291Y-47437D01*
X46228Y-47500D01*
X46165Y-47563D01*
X46111Y-47563D01*
X46057Y-47563D01*
X46057Y-47584D01*
X46056Y-47597D01*
X46052Y-47604D01*
X46041Y-47608D01*
X46024Y-47610D01*
X46023Y-47609D01*
X46021Y-47607D01*
X46020Y-47604D01*
X46019Y-47597D01*
X46018Y-47587D01*
X46017Y-47572D01*
X46017Y-47552D01*
X46016Y-47527D01*
X46016Y-47495D01*
X46016Y-47456D01*
X46016Y-47409D01*
X46015Y-47353D01*
X46015Y-47631D01*
X46037Y-47631D01*
X46050Y-47632D01*
X46056Y-47635D01*
X46057Y-47643D01*
X46056Y-47649D01*
X46055Y-47653D01*
X46051Y-47660D01*
X46045Y-47668D01*
X46036Y-47679D01*
X46023Y-47693D01*
X46007Y-47711D01*
X45985Y-47732D01*
X45959Y-47758D01*
X45928Y-47788D01*
X45891Y-47824D01*
X45848Y-47866D01*
X45798Y-47913D01*
X45741Y-47968D01*
X45719Y-47989D01*
X45714Y-47994D01*
X45714Y-47997D01*
X45721Y-47998D01*
X45736Y-47998D01*
X45740Y-47998D01*
X45771Y-47998D01*
X45914Y-47859D01*
X46057Y-47720D01*
X46078Y-47720D01*
X46078Y-47613D01*
X46078Y-47589D01*
X46106Y-47589D01*
X46133Y-47589D01*
X46110Y-47613D01*
X46097Y-47625D01*
X46087Y-47634D01*
X46082Y-47637D01*
X46080Y-47632D01*
X46078Y-47620D01*
X46078Y-47613D01*
X46078Y-47720D01*
X46081Y-47720D01*
X46081Y-47700D01*
X46133Y-47647D01*
X46152Y-47628D01*
X46169Y-47612D01*
X46182Y-47601D01*
X46189Y-47595D01*
X46190Y-47595D01*
X46191Y-47599D01*
X46193Y-47613D01*
X46194Y-47632D01*
X46194Y-47647D01*
X46194Y-47700D01*
X46137Y-47700D01*
X46081Y-47700D01*
X46081Y-47720D01*
X46136Y-47720D01*
X46215Y-47720D01*
X46215Y-47668D01*
X46215Y-47582D01*
X46216Y-47577D01*
X46222Y-47569D01*
X46232Y-47557D01*
X46246Y-47542D01*
X46266Y-47521D01*
X46292Y-47495D01*
X46325Y-47464D01*
X46364Y-47425D01*
X46377Y-47413D01*
X46412Y-47380D01*
X46444Y-47349D01*
X46473Y-47321D01*
X46498Y-47297D01*
X46519Y-47278D01*
X46534Y-47264D01*
X46542Y-47256D01*
X46544Y-47255D01*
X46549Y-47258D01*
X46560Y-47267D01*
X46574Y-47280D01*
X46574Y-47223D01*
X46663Y-47138D01*
X46692Y-47110D01*
X46722Y-47081D01*
X46750Y-47054D01*
X46775Y-47030D01*
X46795Y-47010D01*
X46800Y-47006D01*
X46848Y-46959D01*
X46959Y-46969D01*
X47070Y-46978D01*
X47070Y-47170D01*
X47070Y-47361D01*
X47045Y-47363D01*
X47017Y-47369D01*
X46988Y-47382D01*
X46963Y-47402D01*
X46951Y-47415D01*
X46937Y-47440D01*
X46928Y-47469D01*
X46925Y-47498D01*
X46926Y-47513D01*
X46928Y-47526D01*
X46926Y-47531D01*
X46918Y-47531D01*
X46916Y-47531D01*
X46908Y-47526D01*
X46893Y-47515D01*
X46871Y-47496D01*
X46842Y-47470D01*
X46805Y-47437D01*
X46762Y-47397D01*
X46757Y-47392D01*
X46723Y-47361D01*
X46692Y-47331D01*
X46663Y-47304D01*
X46637Y-47281D01*
X46617Y-47261D01*
X46601Y-47247D01*
X46593Y-47240D01*
X46592Y-47239D01*
X46574Y-47223D01*
X46574Y-47280D01*
X46577Y-47282D01*
X46598Y-47301D01*
X46623Y-47323D01*
X46650Y-47349D01*
X46679Y-47375D01*
X46709Y-47403D01*
X46738Y-47430D01*
X46765Y-47456D01*
X46790Y-47480D01*
X46812Y-47500D01*
X46829Y-47517D01*
X46841Y-47529D01*
X46847Y-47535D01*
X46847Y-47536D01*
X46841Y-47537D01*
X46826Y-47539D01*
X46802Y-47541D01*
X46771Y-47544D01*
X46733Y-47548D01*
X46689Y-47552D01*
X46640Y-47556D01*
X46587Y-47561D01*
X46533Y-47566D01*
X46477Y-47571D01*
X46424Y-47576D01*
X46375Y-47580D01*
X46332Y-47584D01*
X46293Y-47587D01*
X46262Y-47590D01*
X46239Y-47592D01*
X46224Y-47593D01*
X46219Y-47594D01*
X46216Y-47590D01*
X46215Y-47582D01*
X46215Y-47668D01*
X46215Y-47646D01*
X46215Y-47629D01*
X46216Y-47618D01*
X46216Y-47615D01*
X46223Y-47615D01*
X46238Y-47614D01*
X46262Y-47612D01*
X46293Y-47609D01*
X46329Y-47606D01*
X46371Y-47602D01*
X46417Y-47599D01*
X46465Y-47594D01*
X46514Y-47590D01*
X46564Y-47586D01*
X46614Y-47581D01*
X46661Y-47577D01*
X46706Y-47573D01*
X46746Y-47570D01*
X46781Y-47566D01*
X46810Y-47564D01*
X46832Y-47562D01*
X46845Y-47561D01*
X46848Y-47560D01*
X46875Y-47557D01*
X46933Y-47612D01*
X46933Y-47555D01*
X46937Y-47554D01*
X46939Y-47555D01*
X46944Y-47560D01*
X46944Y-47561D01*
X46940Y-47561D01*
X46939Y-47560D01*
X46934Y-47556D01*
X46933Y-47555D01*
X46933Y-47612D01*
X46966Y-47642D01*
X46966Y-47498D01*
X46966Y-47484D01*
X46973Y-47456D01*
X46988Y-47432D01*
X47009Y-47415D01*
X47033Y-47405D01*
X47060Y-47401D01*
X47086Y-47406D01*
X47111Y-47420D01*
X47115Y-47423D01*
X47135Y-47446D01*
X47145Y-47471D01*
X47148Y-47496D01*
X47144Y-47520D01*
X47133Y-47542D01*
X47117Y-47561D01*
X47096Y-47576D01*
X47073Y-47584D01*
X47047Y-47584D01*
X47019Y-47576D01*
X47009Y-47571D01*
X46987Y-47552D01*
X46972Y-47527D01*
X46966Y-47498D01*
X46966Y-47642D01*
X47073Y-47742D01*
X47112Y-47778D01*
X47149Y-47812D01*
X47183Y-47844D01*
X47214Y-47872D01*
X47240Y-47897D01*
X47261Y-47917D01*
X47276Y-47931D01*
X47285Y-47939D01*
X47286Y-47940D01*
X47301Y-47953D01*
X47315Y-47939D01*
X47324Y-47930D01*
X47326Y-47924D01*
X47322Y-47918D01*
X47319Y-47915D01*
X47313Y-47910D01*
X47300Y-47898D01*
X47281Y-47880D01*
X47258Y-47858D01*
X47230Y-47832D01*
X47198Y-47803D01*
X47165Y-47772D01*
X47155Y-47762D01*
X47121Y-47731D01*
X47091Y-47702D01*
X47063Y-47676D01*
X47040Y-47654D01*
X47022Y-47637D01*
X47009Y-47624D01*
X47003Y-47618D01*
X47003Y-47618D01*
X47009Y-47618D01*
X47021Y-47620D01*
X47025Y-47621D01*
X47058Y-47625D01*
X47091Y-47620D01*
X47122Y-47606D01*
X47150Y-47586D01*
X47171Y-47559D01*
X47176Y-47550D01*
X47187Y-47517D01*
X47188Y-47484D01*
X47181Y-47451D01*
X47166Y-47421D01*
X47143Y-47395D01*
X47116Y-47377D01*
X47091Y-47364D01*
X47091Y-47219D01*
X47091Y-47075D01*
X47146Y-47075D01*
X47201Y-47075D01*
X47201Y-47025D01*
X47201Y-46976D01*
X47146Y-46976D01*
X47122Y-46975D01*
X47106Y-46975D01*
X47096Y-46973D01*
X47091Y-46970D01*
X47089Y-46966D01*
X47087Y-46962D01*
X47083Y-46959D01*
X47073Y-46957D01*
X47058Y-46955D01*
X47035Y-46953D01*
X47004Y-46950D01*
X46962Y-46947D01*
X46929Y-46944D01*
X46906Y-46941D01*
X46890Y-46939D01*
X46880Y-46937D01*
X46877Y-46935D01*
X46877Y-46934D01*
X46881Y-46930D01*
X46891Y-46919D01*
X46908Y-46903D01*
X46930Y-46882D01*
X46956Y-46856D01*
X46986Y-46827D01*
X47019Y-46796D01*
X47054Y-46762D01*
X47090Y-46727D01*
X47127Y-46691D01*
X47163Y-46656D01*
X47198Y-46622D01*
X47232Y-46590D01*
X47263Y-46560D01*
X47291Y-46533D01*
X47314Y-46511D01*
X47333Y-46493D01*
X47344Y-46482D01*
X47350Y-46476D01*
X47350Y-46470D01*
X47344Y-46462D01*
X47341Y-46458D01*
X47328Y-46443D01*
X47305Y-46464D01*
X47297Y-46472D01*
X47282Y-46486D01*
X47261Y-46506D01*
X47235Y-46531D01*
X47205Y-46560D01*
X47170Y-46593D01*
X47133Y-46629D01*
X47094Y-46666D01*
X47070Y-46690D01*
X47030Y-46728D01*
X46991Y-46765D01*
X46955Y-46799D01*
X46923Y-46831D01*
X46894Y-46858D01*
X46870Y-46881D01*
X46852Y-46899D01*
X46840Y-46910D01*
X46836Y-46914D01*
X46814Y-46934D01*
X46512Y-46908D01*
X46209Y-46882D01*
X45978Y-46666D01*
X45748Y-46450D01*
X45719Y-46452D01*
X45690Y-46454D01*
X45690Y-46454D01*
X45690Y-46454D01*
G37*
G36*
X47641Y-47946D02*
X47817Y-47946D01*
X47993Y-47946D01*
X47993Y-47256D01*
X47993Y-46566D01*
X47817Y-46566D01*
X47641Y-46566D01*
X47641Y-47256D01*
X47641Y-47946D01*
X47641Y-47946D01*
X47641Y-47946D01*
G37*
G36*
X69303Y-44222D02*
X69304Y-44259D01*
X69312Y-44293D01*
X69330Y-44325D01*
X69355Y-44353D01*
X69384Y-44373D01*
X69405Y-44384D01*
X69414Y-44362D01*
X69419Y-44347D01*
X69418Y-44339D01*
X69418Y-44338D01*
X69403Y-44330D01*
X69386Y-44317D01*
X69371Y-44301D01*
X69360Y-44286D01*
X69359Y-44285D01*
X69351Y-44259D01*
X69349Y-44230D01*
X69355Y-44203D01*
X69366Y-44179D01*
X69383Y-44161D01*
X69386Y-44159D01*
X69408Y-44150D01*
X69428Y-44148D01*
X69444Y-44150D01*
X69459Y-44155D01*
X69472Y-44164D01*
X69485Y-44180D01*
X69500Y-44203D01*
X69516Y-44234D01*
X69527Y-44255D01*
X69541Y-44282D01*
X69555Y-44308D01*
X69568Y-44331D01*
X69578Y-44347D01*
X69582Y-44351D01*
X69609Y-44375D01*
X69641Y-44390D01*
X69677Y-44397D01*
X69708Y-44395D01*
X69745Y-44383D01*
X69775Y-44363D01*
X69799Y-44335D01*
X69811Y-44315D01*
X69820Y-44283D01*
X69824Y-44247D01*
X69822Y-44210D01*
X69814Y-44176D01*
X69809Y-44163D01*
X69787Y-44127D01*
X69756Y-44097D01*
X69736Y-44083D01*
X69715Y-44072D01*
X69702Y-44067D01*
X69693Y-44068D01*
X69688Y-44075D01*
X69683Y-44087D01*
X69675Y-44109D01*
X69703Y-44124D01*
X69734Y-44145D01*
X69758Y-44172D01*
X69773Y-44202D01*
X69779Y-44235D01*
X69777Y-44268D01*
X69768Y-44294D01*
X69750Y-44319D01*
X69726Y-44336D01*
X69697Y-44344D01*
X69684Y-44345D01*
X69666Y-44344D01*
X69651Y-44340D01*
X69637Y-44332D01*
X69624Y-44320D01*
X69610Y-44301D01*
X69595Y-44275D01*
X69578Y-44241D01*
X69573Y-44232D01*
X69555Y-44197D01*
X69541Y-44171D01*
X69528Y-44151D01*
X69517Y-44136D01*
X69510Y-44129D01*
X69481Y-44108D01*
X69450Y-44097D01*
X69418Y-44097D01*
X69384Y-44107D01*
X69383Y-44108D01*
X69351Y-44128D01*
X69327Y-44155D01*
X69311Y-44186D01*
X69303Y-44222D01*
X69303Y-44222D01*
X69303Y-44222D01*
G37*
G36*
X68981Y-43345D02*
X69189Y-43345D01*
X69397Y-43345D01*
X69371Y-43373D01*
X69342Y-43408D01*
X69322Y-43443D01*
X69309Y-43479D01*
X69302Y-43528D01*
X69304Y-43575D01*
X69316Y-43621D01*
X69336Y-43663D01*
X69349Y-43681D01*
X69349Y-43527D01*
X69355Y-43487D01*
X69368Y-43453D01*
X69393Y-43416D01*
X69424Y-43386D01*
X69462Y-43363D01*
X69504Y-43348D01*
X69549Y-43341D01*
X69596Y-43344D01*
X69596Y-43345D01*
X69643Y-43357D01*
X69685Y-43377D01*
X69721Y-43405D01*
X69749Y-43439D01*
X69761Y-43460D01*
X69768Y-43476D01*
X69773Y-43490D01*
X69775Y-43506D01*
X69776Y-43527D01*
X69776Y-43540D01*
X69776Y-43565D01*
X69774Y-43583D01*
X69771Y-43597D01*
X69765Y-43612D01*
X69762Y-43619D01*
X69738Y-43655D01*
X69708Y-43685D01*
X69671Y-43708D01*
X69630Y-43724D01*
X69585Y-43732D01*
X69539Y-43732D01*
X69503Y-43726D01*
X69461Y-43710D01*
X69423Y-43687D01*
X69391Y-43657D01*
X69368Y-43623D01*
X69359Y-43604D01*
X69350Y-43567D01*
X69349Y-43527D01*
X69349Y-43681D01*
X69363Y-43701D01*
X69398Y-43732D01*
X69439Y-43757D01*
X69473Y-43770D01*
X69506Y-43778D01*
X69543Y-43783D01*
X69580Y-43784D01*
X69613Y-43781D01*
X69614Y-43781D01*
X69655Y-43770D01*
X69695Y-43752D01*
X69732Y-43730D01*
X69762Y-43705D01*
X69770Y-43695D01*
X69798Y-43653D01*
X69816Y-43608D01*
X69824Y-43562D01*
X69824Y-43515D01*
X69813Y-43470D01*
X69794Y-43426D01*
X69765Y-43385D01*
X69754Y-43373D01*
X69726Y-43345D01*
X69768Y-43345D01*
X69810Y-43345D01*
X69810Y-43319D01*
X69810Y-43293D01*
X69396Y-43293D01*
X68981Y-43293D01*
X68981Y-43319D01*
X68981Y-43345D01*
X68981Y-43345D01*
X68981Y-43345D01*
G37*
G36*
X69303Y-42677D02*
X69312Y-42724D01*
X69330Y-42768D01*
X69349Y-42795D01*
X69349Y-42651D01*
X69354Y-42607D01*
X69368Y-42567D01*
X69390Y-42533D01*
X69420Y-42503D01*
X69456Y-42480D01*
X69497Y-42465D01*
X69543Y-42458D01*
X69558Y-42457D01*
X69607Y-42461D01*
X69652Y-42474D01*
X69692Y-42494D01*
X69725Y-42521D01*
X69751Y-42554D01*
X69770Y-42593D01*
X69772Y-42600D01*
X69777Y-42631D01*
X69778Y-42665D01*
X69774Y-42699D01*
X69765Y-42729D01*
X69764Y-42733D01*
X69748Y-42760D01*
X69725Y-42787D01*
X69699Y-42810D01*
X69685Y-42820D01*
X69646Y-42837D01*
X69603Y-42847D01*
X69557Y-42851D01*
X69513Y-42847D01*
X69474Y-42837D01*
X69433Y-42816D01*
X69400Y-42789D01*
X69374Y-42754D01*
X69357Y-42715D01*
X69349Y-42670D01*
X69349Y-42651D01*
X69349Y-42795D01*
X69357Y-42808D01*
X69369Y-42821D01*
X69394Y-42847D01*
X69353Y-42847D01*
X69312Y-42847D01*
X69312Y-42873D01*
X69312Y-42900D01*
X69561Y-42900D01*
X69810Y-42900D01*
X69810Y-42873D01*
X69810Y-42847D01*
X69770Y-42847D01*
X69730Y-42847D01*
X69757Y-42821D01*
X69786Y-42785D01*
X69807Y-42744D01*
X69820Y-42701D01*
X69824Y-42657D01*
X69821Y-42612D01*
X69810Y-42569D01*
X69791Y-42528D01*
X69765Y-42491D01*
X69732Y-42460D01*
X69693Y-42436D01*
X69651Y-42420D01*
X69603Y-42410D01*
X69555Y-42406D01*
X69509Y-42409D01*
X69495Y-42412D01*
X69456Y-42426D01*
X69417Y-42447D01*
X69381Y-42475D01*
X69351Y-42507D01*
X69332Y-42535D01*
X69313Y-42581D01*
X69303Y-42629D01*
X69303Y-42677D01*
X69303Y-42677D01*
X69303Y-42677D01*
G37*
G36*
X68981Y-42055D02*
X69396Y-42055D01*
X69810Y-42055D01*
X69810Y-42031D01*
X69810Y-42008D01*
X69396Y-42008D01*
X68981Y-42008D01*
X68981Y-42031D01*
X68981Y-42055D01*
X68981Y-42055D01*
X68981Y-42055D01*
G37*
G36*
X69270Y-41636D02*
X69284Y-41626D01*
X69292Y-41620D01*
X69308Y-41609D01*
X69329Y-41593D01*
X69354Y-41575D01*
X69383Y-41553D01*
X69414Y-41531D01*
X69529Y-41447D01*
X69545Y-41459D01*
X69553Y-41465D01*
X69569Y-41476D01*
X69590Y-41492D01*
X69616Y-41511D01*
X69646Y-41533D01*
X69678Y-41557D01*
X69686Y-41563D01*
X69810Y-41656D01*
X69810Y-41565D01*
X69810Y-41474D01*
X69724Y-41413D01*
X69697Y-41394D01*
X69674Y-41378D01*
X69656Y-41364D01*
X69643Y-41354D01*
X69637Y-41348D01*
X69637Y-41348D01*
X69641Y-41344D01*
X69653Y-41335D01*
X69670Y-41322D01*
X69692Y-41305D01*
X69718Y-41287D01*
X69723Y-41284D01*
X69807Y-41223D01*
X69809Y-41133D01*
X69809Y-41103D01*
X69809Y-41078D01*
X69809Y-41058D01*
X69808Y-41046D01*
X69808Y-41043D01*
X69803Y-41046D01*
X69791Y-41054D01*
X69773Y-41068D01*
X69749Y-41085D01*
X69721Y-41105D01*
X69689Y-41129D01*
X69673Y-41141D01*
X69640Y-41166D01*
X69610Y-41188D01*
X69583Y-41208D01*
X69561Y-41224D01*
X69545Y-41236D01*
X69536Y-41242D01*
X69534Y-41244D01*
X69528Y-41242D01*
X69514Y-41234D01*
X69494Y-41221D01*
X69467Y-41203D01*
X69435Y-41181D01*
X69405Y-41160D01*
X69373Y-41137D01*
X69344Y-41116D01*
X69319Y-41098D01*
X69299Y-41084D01*
X69284Y-41073D01*
X69277Y-41068D01*
X69276Y-41068D01*
X69274Y-41068D01*
X69272Y-41073D01*
X69271Y-41085D01*
X69270Y-41104D01*
X69270Y-41133D01*
X69270Y-41153D01*
X69270Y-41245D01*
X69334Y-41288D01*
X69358Y-41304D01*
X69379Y-41319D01*
X69397Y-41331D01*
X69408Y-41339D01*
X69410Y-41341D01*
X69414Y-41344D01*
X69416Y-41347D01*
X69414Y-41352D01*
X69408Y-41358D01*
X69397Y-41367D01*
X69379Y-41379D01*
X69354Y-41397D01*
X69346Y-41402D01*
X69270Y-41454D01*
X69270Y-41545D01*
X69270Y-41636D01*
X69270Y-41636D01*
X69270Y-41636D01*
G37*
G36*
X65830Y-40241D02*
X65834Y-40246D01*
X65844Y-40257D01*
X65859Y-40273D01*
X65879Y-40293D01*
X65901Y-40315D01*
X65904Y-40319D01*
X65978Y-40392D01*
X66043Y-40327D01*
X66109Y-40261D01*
X66340Y-40261D01*
X66571Y-40261D01*
X66446Y-40386D01*
X66322Y-40510D01*
X66322Y-40731D01*
X66322Y-40951D01*
X66256Y-41016D01*
X66191Y-41082D01*
X66265Y-41157D01*
X66288Y-41179D01*
X66308Y-41199D01*
X66325Y-41215D01*
X66337Y-41226D01*
X66342Y-41231D01*
X66343Y-41231D01*
X66347Y-41228D01*
X66358Y-41218D01*
X66373Y-41203D01*
X66393Y-41184D01*
X66415Y-41161D01*
X66420Y-41157D01*
X66495Y-41082D01*
X66429Y-41016D01*
X66364Y-40951D01*
X66364Y-40741D01*
X66364Y-40531D01*
X66549Y-40346D01*
X66734Y-40161D01*
X67355Y-40161D01*
X67977Y-40161D01*
X67998Y-40140D01*
X68018Y-40119D01*
X67365Y-40119D01*
X66712Y-40119D01*
X66663Y-40169D01*
X66613Y-40219D01*
X66359Y-40219D01*
X66104Y-40219D01*
X66040Y-40155D01*
X65975Y-40091D01*
X65902Y-40164D01*
X65880Y-40187D01*
X65860Y-40207D01*
X65845Y-40223D01*
X65834Y-40235D01*
X65830Y-40241D01*
X65830Y-40241D01*
X65830Y-40241D01*
X65830Y-40241D01*
G37*
G36*
X66762Y-39535D02*
X66817Y-39589D01*
X66873Y-39644D01*
X67153Y-39364D01*
X67434Y-39083D01*
X67890Y-39540D01*
X67948Y-39597D01*
X68003Y-39653D01*
X68056Y-39706D01*
X68106Y-39756D01*
X68153Y-39803D01*
X68195Y-39846D01*
X68233Y-39885D01*
X68267Y-39919D01*
X68295Y-39947D01*
X68317Y-39970D01*
X68334Y-39987D01*
X68344Y-39998D01*
X68347Y-40001D01*
X68343Y-40006D01*
X68332Y-40017D01*
X68315Y-40035D01*
X68292Y-40058D01*
X68263Y-40088D01*
X68229Y-40122D01*
X68190Y-40162D01*
X68147Y-40205D01*
X68100Y-40252D01*
X68050Y-40303D01*
X67997Y-40356D01*
X67941Y-40412D01*
X67890Y-40463D01*
X67434Y-40919D01*
X67152Y-40637D01*
X66870Y-40355D01*
X66816Y-40409D01*
X66762Y-40463D01*
X67097Y-40797D01*
X67146Y-40847D01*
X67193Y-40893D01*
X67237Y-40938D01*
X67279Y-40979D01*
X67316Y-41016D01*
X67349Y-41049D01*
X67378Y-41077D01*
X67401Y-41100D01*
X67419Y-41117D01*
X67430Y-41128D01*
X67434Y-41132D01*
X67438Y-41128D01*
X67449Y-41117D01*
X67466Y-41100D01*
X67490Y-41077D01*
X67520Y-41047D01*
X67555Y-41013D01*
X67595Y-40973D01*
X67639Y-40929D01*
X67688Y-40880D01*
X67740Y-40828D01*
X67796Y-40772D01*
X67855Y-40713D01*
X67916Y-40652D01*
X67980Y-40588D01*
X68002Y-40566D01*
X68567Y-40001D01*
X67999Y-39433D01*
X67431Y-38866D01*
X67097Y-39200D01*
X66762Y-39535D01*
X66762Y-39535D01*
X66762Y-39535D01*
G37*
G36*
X69196Y-40542D02*
X69360Y-40706D01*
X69394Y-40740D01*
X69404Y-40749D01*
X69404Y-40539D01*
X69465Y-40477D01*
X69527Y-40416D01*
X69588Y-40477D01*
X69650Y-40539D01*
X69590Y-40599D01*
X69569Y-40620D01*
X69552Y-40637D01*
X69538Y-40650D01*
X69529Y-40658D01*
X69527Y-40660D01*
X69522Y-40656D01*
X69512Y-40646D01*
X69497Y-40632D01*
X69478Y-40613D01*
X69464Y-40599D01*
X69404Y-40539D01*
X69404Y-40749D01*
X69426Y-40771D01*
X69455Y-40800D01*
X69480Y-40825D01*
X69500Y-40845D01*
X69516Y-40859D01*
X69525Y-40868D01*
X69527Y-40870D01*
X69531Y-40866D01*
X69542Y-40856D01*
X69559Y-40839D01*
X69580Y-40818D01*
X69606Y-40792D01*
X69636Y-40763D01*
X69669Y-40730D01*
X69693Y-40706D01*
X69857Y-40542D01*
X69692Y-40376D01*
X69527Y-40211D01*
X69362Y-40376D01*
X69196Y-40542D01*
X69196Y-40542D01*
X69196Y-40542D01*
G37*
G36*
X68966Y-39595D02*
X69147Y-39595D01*
X69328Y-39595D01*
X69305Y-39623D01*
X69282Y-39656D01*
X69267Y-39691D01*
X69259Y-39730D01*
X69258Y-39760D01*
X69261Y-39808D01*
X69271Y-39850D01*
X69290Y-39889D01*
X69317Y-39926D01*
X69328Y-39938D01*
X69367Y-39972D01*
X69400Y-39991D01*
X69400Y-39730D01*
X69404Y-39692D01*
X69417Y-39660D01*
X69440Y-39633D01*
X69468Y-39612D01*
X69482Y-39605D01*
X69494Y-39600D01*
X69508Y-39598D01*
X69529Y-39597D01*
X69540Y-39597D01*
X69573Y-39599D01*
X69599Y-39604D01*
X69620Y-39614D01*
X69640Y-39630D01*
X69646Y-39635D01*
X69663Y-39654D01*
X69673Y-39672D01*
X69679Y-39693D01*
X69681Y-39719D01*
X69682Y-39731D01*
X69681Y-39754D01*
X69679Y-39771D01*
X69676Y-39784D01*
X69669Y-39797D01*
X69667Y-39800D01*
X69645Y-39828D01*
X69616Y-39849D01*
X69583Y-39862D01*
X69546Y-39866D01*
X69508Y-39863D01*
X69497Y-39860D01*
X69462Y-39844D01*
X69434Y-39822D01*
X69414Y-39793D01*
X69402Y-39758D01*
X69400Y-39730D01*
X69400Y-39991D01*
X69412Y-39999D01*
X69462Y-40017D01*
X69493Y-40022D01*
X69530Y-40024D01*
X69568Y-40024D01*
X69603Y-40020D01*
X69624Y-40015D01*
X69675Y-39995D01*
X69721Y-39968D01*
X69759Y-39934D01*
X69790Y-39894D01*
X69812Y-39848D01*
X69816Y-39835D01*
X69822Y-39812D01*
X69825Y-39791D01*
X69825Y-39767D01*
X69825Y-39750D01*
X69820Y-39708D01*
X69809Y-39672D01*
X69790Y-39639D01*
X69773Y-39619D01*
X69751Y-39595D01*
X69781Y-39595D01*
X69810Y-39595D01*
X69810Y-39519D01*
X69810Y-39443D01*
X69388Y-39443D01*
X68966Y-39443D01*
X68966Y-39519D01*
X68966Y-39595D01*
X68966Y-39595D01*
X68966Y-39595D01*
G37*
G36*
X65136Y-39812D02*
X65140Y-39818D01*
X65150Y-39829D01*
X65165Y-39845D01*
X65184Y-39865D01*
X65206Y-39888D01*
X65210Y-39891D01*
X65283Y-39964D01*
X65347Y-39900D01*
X65412Y-39836D01*
X65865Y-39836D01*
X66319Y-39836D01*
X66411Y-39928D01*
X66503Y-40020D01*
X67311Y-40020D01*
X67419Y-40020D01*
X67516Y-40020D01*
X67605Y-40020D01*
X67684Y-40020D01*
X67755Y-40019D01*
X67817Y-40019D01*
X67872Y-40019D01*
X67921Y-40019D01*
X67962Y-40019D01*
X67998Y-40018D01*
X68027Y-40018D01*
X68052Y-40018D01*
X68073Y-40017D01*
X68089Y-40016D01*
X68101Y-40016D01*
X68111Y-40015D01*
X68117Y-40014D01*
X68122Y-40013D01*
X68125Y-40012D01*
X68127Y-40011D01*
X68128Y-40010D01*
X68133Y-40003D01*
X68132Y-39997D01*
X68125Y-39989D01*
X68112Y-39978D01*
X67318Y-39978D01*
X66524Y-39978D01*
X66429Y-39883D01*
X66335Y-39789D01*
X65873Y-39789D01*
X65412Y-39789D01*
X65347Y-39725D01*
X65283Y-39660D01*
X65210Y-39734D01*
X65187Y-39756D01*
X65167Y-39777D01*
X65152Y-39794D01*
X65141Y-39806D01*
X65136Y-39812D01*
X65136Y-39812D01*
X65136Y-39812D01*
X65136Y-39812D01*
G37*
G36*
X65970Y-38910D02*
X66033Y-38973D01*
X66096Y-39036D01*
X66096Y-39159D01*
X66096Y-39283D01*
X66396Y-39583D01*
X66697Y-39883D01*
X67358Y-39883D01*
X68018Y-39883D01*
X67995Y-39860D01*
X67972Y-39836D01*
X67342Y-39836D01*
X66712Y-39836D01*
X66425Y-39549D01*
X66138Y-39262D01*
X66138Y-39154D01*
X66138Y-39047D01*
X66205Y-38980D01*
X66272Y-38913D01*
X66196Y-38837D01*
X66120Y-38761D01*
X66045Y-38835D01*
X65970Y-38910D01*
X65970Y-38910D01*
X65970Y-38910D01*
G37*
G36*
X69291Y-38813D02*
X69295Y-38864D01*
X69307Y-38910D01*
X69327Y-38950D01*
X69357Y-38986D01*
X69367Y-38996D01*
X69370Y-38998D01*
X69370Y-38797D01*
X69371Y-38780D01*
X69374Y-38766D01*
X69381Y-38750D01*
X69381Y-38749D01*
X69402Y-38715D01*
X69431Y-38688D01*
X69465Y-38667D01*
X69491Y-38658D01*
X69506Y-38655D01*
X69506Y-38810D01*
X69506Y-38856D01*
X69506Y-38892D01*
X69505Y-38920D01*
X69504Y-38941D01*
X69502Y-38954D01*
X69499Y-38962D01*
X69494Y-38966D01*
X69487Y-38965D01*
X69478Y-38962D01*
X69467Y-38957D01*
X69462Y-38955D01*
X69444Y-38945D01*
X69425Y-38932D01*
X69417Y-38925D01*
X69396Y-38903D01*
X69382Y-38879D01*
X69374Y-38851D01*
X69371Y-38820D01*
X69370Y-38797D01*
X69370Y-38998D01*
X69402Y-39022D01*
X69444Y-39044D01*
X69489Y-39060D01*
X69533Y-39069D01*
X69554Y-39070D01*
X69574Y-39070D01*
X69574Y-38860D01*
X69574Y-38649D01*
X69600Y-38652D01*
X69635Y-38661D01*
X69668Y-38679D01*
X69698Y-38704D01*
X69722Y-38735D01*
X69733Y-38754D01*
X69739Y-38772D01*
X69743Y-38791D01*
X69744Y-38815D01*
X69744Y-38824D01*
X69742Y-38859D01*
X69734Y-38888D01*
X69720Y-38915D01*
X69697Y-38942D01*
X69689Y-38950D01*
X69659Y-38978D01*
X69677Y-39005D01*
X69688Y-39020D01*
X69696Y-39033D01*
X69700Y-39038D01*
X69704Y-39041D01*
X69711Y-39039D01*
X69724Y-39031D01*
X69730Y-39027D01*
X69763Y-38996D01*
X69790Y-38959D01*
X69809Y-38916D01*
X69821Y-38870D01*
X69824Y-38821D01*
X69820Y-38772D01*
X69807Y-38723D01*
X69792Y-38687D01*
X69780Y-38669D01*
X69762Y-38647D01*
X69740Y-38626D01*
X69718Y-38607D01*
X69706Y-38598D01*
X69661Y-38576D01*
X69614Y-38562D01*
X69564Y-38557D01*
X69514Y-38561D01*
X69465Y-38572D01*
X69419Y-38592D01*
X69379Y-38619D01*
X69369Y-38628D01*
X69336Y-38665D01*
X69312Y-38706D01*
X69297Y-38751D01*
X69291Y-38802D01*
X69291Y-38813D01*
X69291Y-38813D01*
X69291Y-38813D01*
G37*
G36*
X69112Y-38136D02*
X69207Y-38136D01*
X69301Y-38136D01*
X69301Y-38194D01*
X69301Y-38252D01*
X69341Y-38252D01*
X69380Y-38252D01*
X69380Y-38194D01*
X69380Y-38136D01*
X69595Y-38136D01*
X69810Y-38136D01*
X69810Y-38094D01*
X69810Y-38053D01*
X69595Y-38053D01*
X69380Y-38053D01*
X69380Y-38008D01*
X69380Y-37963D01*
X69341Y-37963D01*
X69301Y-37963D01*
X69301Y-38008D01*
X69301Y-38053D01*
X69207Y-38053D01*
X69112Y-38053D01*
X69112Y-38094D01*
X69112Y-38136D01*
X69112Y-38136D01*
X69112Y-38136D01*
G37*
G36*
X69011Y-37521D02*
X69013Y-37541D01*
X69022Y-37560D01*
X69037Y-37575D01*
X69058Y-37584D01*
X69073Y-37586D01*
X69097Y-37581D01*
X69110Y-37574D01*
X69126Y-37556D01*
X69134Y-37536D01*
X69135Y-37515D01*
X69129Y-37495D01*
X69117Y-37479D01*
X69101Y-37467D01*
X69081Y-37461D01*
X69059Y-37463D01*
X69048Y-37468D01*
X69028Y-37482D01*
X69016Y-37500D01*
X69011Y-37521D01*
X69011Y-37521D01*
X69011Y-37521D01*
G37*
G36*
X69301Y-37565D02*
X69556Y-37565D01*
X69810Y-37565D01*
X69810Y-37523D01*
X69810Y-37481D01*
X69556Y-37481D01*
X69301Y-37481D01*
X69301Y-37523D01*
X69301Y-37565D01*
X69301Y-37565D01*
X69301Y-37565D01*
G37*
G36*
X68976Y-36762D02*
X69174Y-36762D01*
X69373Y-36762D01*
X69343Y-36793D01*
X69318Y-36822D01*
X69302Y-36853D01*
X69293Y-36888D01*
X69291Y-36925D01*
X69295Y-36970D01*
X69307Y-37009D01*
X69328Y-37042D01*
X69358Y-37069D01*
X69396Y-37090D01*
X69409Y-37095D01*
X69417Y-37098D01*
X69426Y-37100D01*
X69437Y-37102D01*
X69452Y-37103D01*
X69472Y-37104D01*
X69497Y-37105D01*
X69529Y-37106D01*
X69569Y-37106D01*
X69619Y-37107D01*
X69623Y-37107D01*
X69810Y-37109D01*
X69810Y-37067D01*
X69810Y-37024D01*
X69643Y-37024D01*
X69594Y-37024D01*
X69554Y-37024D01*
X69522Y-37023D01*
X69498Y-37022D01*
X69479Y-37021D01*
X69464Y-37020D01*
X69453Y-37017D01*
X69449Y-37016D01*
X69418Y-37003D01*
X69394Y-36983D01*
X69379Y-36956D01*
X69371Y-36923D01*
X69370Y-36901D01*
X69373Y-36864D01*
X69385Y-36834D01*
X69405Y-36809D01*
X69433Y-36789D01*
X69464Y-36777D01*
X69474Y-36773D01*
X69485Y-36771D01*
X69497Y-36769D01*
X69513Y-36767D01*
X69532Y-36766D01*
X69557Y-36765D01*
X69589Y-36764D01*
X69630Y-36764D01*
X69654Y-36763D01*
X69810Y-36761D01*
X69810Y-36720D01*
X69810Y-36678D01*
X69393Y-36678D01*
X68976Y-36678D01*
X68976Y-36720D01*
X68976Y-36762D01*
X68976Y-36762D01*
X68976Y-36762D01*
G37*
G36*
X69294Y-35964D02*
X69394Y-36012D01*
X69430Y-36029D01*
X69469Y-36047D01*
X69507Y-36066D01*
X69542Y-36083D01*
X69567Y-36095D01*
X69593Y-36107D01*
X69615Y-36118D01*
X69631Y-36126D01*
X69640Y-36131D01*
X69642Y-36133D01*
X69638Y-36135D01*
X69624Y-36141D01*
X69603Y-36150D01*
X69576Y-36162D01*
X69544Y-36176D01*
X69507Y-36191D01*
X69472Y-36206D01*
X69301Y-36276D01*
X69301Y-36320D01*
X69301Y-36340D01*
X69302Y-36355D01*
X69302Y-36362D01*
X69303Y-36363D01*
X69308Y-36361D01*
X69321Y-36355D01*
X69343Y-36346D01*
X69372Y-36334D01*
X69406Y-36319D01*
X69446Y-36302D01*
X69491Y-36283D01*
X69539Y-36263D01*
X69570Y-36249D01*
X69620Y-36228D01*
X69666Y-36208D01*
X69709Y-36190D01*
X69747Y-36173D01*
X69779Y-36159D01*
X69804Y-36148D01*
X69822Y-36139D01*
X69832Y-36134D01*
X69834Y-36133D01*
X69829Y-36130D01*
X69815Y-36124D01*
X69794Y-36114D01*
X69767Y-36101D01*
X69734Y-36086D01*
X69697Y-36069D01*
X69657Y-36050D01*
X69654Y-36049D01*
X69614Y-36030D01*
X69577Y-36013D01*
X69544Y-35998D01*
X69517Y-35985D01*
X69496Y-35974D01*
X69482Y-35968D01*
X69477Y-35964D01*
X69477Y-35964D01*
X69482Y-35961D01*
X69496Y-35955D01*
X69517Y-35944D01*
X69544Y-35931D01*
X69576Y-35916D01*
X69613Y-35899D01*
X69653Y-35880D01*
X69658Y-35878D01*
X69698Y-35859D01*
X69735Y-35841D01*
X69768Y-35826D01*
X69795Y-35812D01*
X69816Y-35802D01*
X69830Y-35795D01*
X69836Y-35792D01*
X69831Y-35789D01*
X69818Y-35783D01*
X69796Y-35774D01*
X69768Y-35762D01*
X69733Y-35747D01*
X69693Y-35730D01*
X69648Y-35711D01*
X69600Y-35691D01*
X69568Y-35678D01*
X69301Y-35567D01*
X69302Y-35612D01*
X69304Y-35658D01*
X69469Y-35726D01*
X69508Y-35742D01*
X69544Y-35757D01*
X69575Y-35771D01*
X69601Y-35782D01*
X69620Y-35791D01*
X69632Y-35797D01*
X69635Y-35799D01*
X69630Y-35803D01*
X69617Y-35810D01*
X69596Y-35821D01*
X69570Y-35834D01*
X69538Y-35849D01*
X69501Y-35867D01*
X69464Y-35884D01*
X69294Y-35964D01*
X69294Y-35964D01*
X69294Y-35964D01*
G37*
G36*
X57916Y-34470D02*
X57916Y-34513D01*
X57916Y-34548D01*
X57917Y-34577D01*
X57918Y-34601D01*
X57920Y-34623D01*
X57923Y-34644D01*
X57927Y-34666D01*
X57928Y-34671D01*
X57954Y-34789D01*
X57991Y-34904D01*
X58037Y-35015D01*
X58092Y-35123D01*
X58157Y-35226D01*
X58215Y-35304D01*
X58238Y-35331D01*
X58267Y-35363D01*
X58300Y-35398D01*
X58335Y-35433D01*
X58371Y-35467D01*
X58404Y-35498D01*
X58434Y-35523D01*
X58448Y-35534D01*
X58547Y-35605D01*
X58649Y-35667D01*
X58755Y-35720D01*
X58863Y-35764D01*
X58973Y-35798D01*
X59083Y-35822D01*
X59135Y-35830D01*
X59185Y-35836D01*
X59240Y-35839D01*
X59295Y-35841D01*
X59348Y-35841D01*
X59394Y-35839D01*
X59399Y-35838D01*
X59505Y-35825D01*
X59609Y-35802D01*
X59709Y-35770D01*
X59804Y-35730D01*
X59894Y-35681D01*
X59978Y-35624D01*
X60019Y-35591D01*
X60065Y-35550D01*
X60106Y-35509D01*
X60143Y-35467D01*
X60179Y-35420D01*
X60206Y-35381D01*
X60239Y-35333D01*
X60218Y-35348D01*
X60135Y-35405D01*
X60045Y-35455D01*
X59949Y-35496D01*
X59849Y-35529D01*
X59745Y-35553D01*
X59712Y-35559D01*
X59674Y-35563D01*
X59628Y-35566D01*
X59576Y-35568D01*
X59523Y-35569D01*
X59470Y-35567D01*
X59421Y-35565D01*
X59377Y-35561D01*
X59358Y-35559D01*
X59240Y-35536D01*
X59125Y-35503D01*
X59014Y-35460D01*
X58906Y-35409D01*
X58802Y-35348D01*
X58704Y-35279D01*
X58611Y-35203D01*
X58525Y-35118D01*
X58445Y-35026D01*
X58372Y-34927D01*
X58363Y-34913D01*
X58304Y-34814D01*
X58254Y-34713D01*
X58213Y-34610D01*
X58182Y-34505D01*
X58160Y-34399D01*
X58147Y-34293D01*
X58143Y-34187D01*
X58149Y-34083D01*
X58165Y-33979D01*
X58190Y-33879D01*
X58224Y-33781D01*
X58263Y-33696D01*
X58273Y-33675D01*
X58281Y-33659D01*
X58284Y-33649D01*
X58284Y-33646D01*
X58278Y-33650D01*
X58267Y-33660D01*
X58250Y-33675D01*
X58231Y-33694D01*
X58210Y-33716D01*
X58189Y-33738D01*
X58168Y-33761D01*
X58150Y-33781D01*
X58135Y-33799D01*
X58128Y-33807D01*
X58070Y-33893D01*
X58020Y-33983D01*
X57980Y-34076D01*
X57949Y-34175D01*
X57927Y-34273D01*
X57923Y-34295D01*
X57920Y-34315D01*
X57918Y-34337D01*
X57917Y-34360D01*
X57916Y-34389D01*
X57916Y-34424D01*
X57916Y-34468D01*
X57916Y-34470D01*
X57916Y-34470D01*
X57916Y-34470D01*
G37*
G36*
X59110Y-34189D02*
X59111Y-34221D01*
X59122Y-34295D01*
X59142Y-34368D01*
X59171Y-34439D01*
X59209Y-34506D01*
X59255Y-34570D01*
X59308Y-34630D01*
X59368Y-34683D01*
X59435Y-34731D01*
X59500Y-34767D01*
X59559Y-34793D01*
X59620Y-34813D01*
X59683Y-34827D01*
X59743Y-34834D01*
X59800Y-34834D01*
X59825Y-34832D01*
X59884Y-34819D01*
X59935Y-34800D01*
X59979Y-34773D01*
X60015Y-34739D01*
X60043Y-34697D01*
X60064Y-34649D01*
X60065Y-34646D01*
X60072Y-34613D01*
X60076Y-34573D01*
X60077Y-34530D01*
X60074Y-34486D01*
X60068Y-34444D01*
X60065Y-34426D01*
X60041Y-34351D01*
X60009Y-34280D01*
X59967Y-34212D01*
X59915Y-34148D01*
X59870Y-34101D01*
X59803Y-34043D01*
X59732Y-33995D01*
X59657Y-33956D01*
X59579Y-33927D01*
X59532Y-33915D01*
X59503Y-33910D01*
X59467Y-33907D01*
X59429Y-33906D01*
X59390Y-33907D01*
X59355Y-33909D01*
X59327Y-33914D01*
X59319Y-33916D01*
X59264Y-33935D01*
X59218Y-33961D01*
X59180Y-33994D01*
X59150Y-34034D01*
X59128Y-34080D01*
X59115Y-34131D01*
X59110Y-34189D01*
X59110Y-34189D01*
X59110Y-34189D01*
G37*
G36*
X53530Y-31233D02*
X53537Y-31343D01*
X53553Y-31454D01*
X53570Y-31534D01*
X53603Y-31646D01*
X53646Y-31754D01*
X53698Y-31858D01*
X53758Y-31958D01*
X53826Y-32052D01*
X53901Y-32142D01*
X53983Y-32225D01*
X54072Y-32302D01*
X54167Y-32372D01*
X54266Y-32435D01*
X54371Y-32491D01*
X54480Y-32538D01*
X54592Y-32576D01*
X54708Y-32606D01*
X54823Y-32625D01*
X54874Y-32630D01*
X54929Y-32634D01*
X54986Y-32636D01*
X55040Y-32636D01*
X55089Y-32634D01*
X55095Y-32633D01*
X55208Y-32620D01*
X55317Y-32597D01*
X55423Y-32565D01*
X55524Y-32524D01*
X55620Y-32475D01*
X55710Y-32417D01*
X55757Y-32382D01*
X55783Y-32360D01*
X55813Y-32332D01*
X55844Y-32301D01*
X55875Y-32270D01*
X55903Y-32239D01*
X55927Y-32212D01*
X55936Y-32201D01*
X55993Y-32118D01*
X56044Y-32028D01*
X56086Y-31934D01*
X56120Y-31838D01*
X56126Y-31817D01*
X56131Y-31796D01*
X56135Y-31780D01*
X56137Y-31770D01*
X56137Y-31768D01*
X56134Y-31772D01*
X56127Y-31783D01*
X56119Y-31797D01*
X56094Y-31836D01*
X56062Y-31878D01*
X56026Y-31922D01*
X55985Y-31965D01*
X55944Y-32006D01*
X55909Y-32037D01*
X55823Y-32103D01*
X55730Y-32160D01*
X55632Y-32209D01*
X55529Y-32249D01*
X55421Y-32280D01*
X55319Y-32301D01*
X55285Y-32305D01*
X55244Y-32308D01*
X55198Y-32311D01*
X55149Y-32312D01*
X55100Y-32313D01*
X55055Y-32312D01*
X55015Y-32310D01*
X54993Y-32309D01*
X54868Y-32291D01*
X54746Y-32263D01*
X54628Y-32225D01*
X54513Y-32178D01*
X54402Y-32121D01*
X54295Y-32054D01*
X54192Y-31977D01*
X54167Y-31956D01*
X54075Y-31873D01*
X53991Y-31783D01*
X53916Y-31687D01*
X53849Y-31586D01*
X53791Y-31481D01*
X53743Y-31371D01*
X53704Y-31257D01*
X53674Y-31139D01*
X53660Y-31061D01*
X53656Y-31022D01*
X53653Y-30977D01*
X53652Y-30928D01*
X53652Y-30877D01*
X53653Y-30826D01*
X53656Y-30777D01*
X53661Y-30732D01*
X53666Y-30694D01*
X53672Y-30668D01*
X53671Y-30669D01*
X53665Y-30678D01*
X53657Y-30693D01*
X53647Y-30714D01*
X53643Y-30721D01*
X53601Y-30817D01*
X53569Y-30916D01*
X53547Y-31019D01*
X53534Y-31125D01*
X53530Y-31233D01*
X53530Y-31233D01*
X53530Y-31233D01*
G37*
G36*
X64261Y-31858D02*
X64262Y-31882D01*
X64269Y-31914D01*
X64284Y-31939D01*
X64306Y-31957D01*
X64306Y-31866D01*
X64311Y-31846D01*
X64324Y-31830D01*
X64336Y-31823D01*
X64351Y-31817D01*
X64360Y-31815D01*
X64366Y-31819D01*
X64369Y-31829D01*
X64370Y-31847D01*
X64370Y-31871D01*
X64370Y-31896D01*
X64369Y-31912D01*
X64368Y-31921D01*
X64365Y-31924D01*
X64362Y-31923D01*
X64350Y-31921D01*
X64346Y-31920D01*
X64337Y-31917D01*
X64326Y-31908D01*
X64323Y-31905D01*
X64310Y-31886D01*
X64306Y-31866D01*
X64306Y-31957D01*
X64307Y-31958D01*
X64339Y-31970D01*
X64373Y-31976D01*
X64407Y-31979D01*
X64407Y-31897D01*
X64407Y-31866D01*
X64407Y-31844D01*
X64408Y-31830D01*
X64410Y-31821D01*
X64412Y-31817D01*
X64415Y-31815D01*
X64417Y-31815D01*
X64439Y-31820D01*
X64456Y-31832D01*
X64468Y-31850D01*
X64474Y-31871D01*
X64472Y-31894D01*
X64462Y-31917D01*
X64461Y-31919D01*
X64450Y-31934D01*
X64467Y-31954D01*
X64484Y-31975D01*
X64498Y-31954D01*
X64515Y-31919D01*
X64522Y-31883D01*
X64519Y-31845D01*
X64516Y-31835D01*
X64503Y-31808D01*
X64482Y-31787D01*
X64453Y-31772D01*
X64418Y-31765D01*
X64379Y-31764D01*
X64338Y-31771D01*
X64307Y-31783D01*
X64283Y-31802D01*
X64268Y-31827D01*
X64261Y-31858D01*
X64261Y-31858D01*
X64261Y-31858D01*
G37*
G36*
X64261Y-31667D02*
X64269Y-31701D01*
X64273Y-31709D01*
X64282Y-31725D01*
X64291Y-31737D01*
X64296Y-31741D01*
X64304Y-31744D01*
X64311Y-31740D01*
X64320Y-31730D01*
X64321Y-31729D01*
X64334Y-31711D01*
X64323Y-31695D01*
X64314Y-31676D01*
X64311Y-31653D01*
X64314Y-31630D01*
X64317Y-31622D01*
X64326Y-31612D01*
X64339Y-31602D01*
X64340Y-31602D01*
X64359Y-31596D01*
X64383Y-31593D01*
X64408Y-31593D01*
X64430Y-31597D01*
X64436Y-31599D01*
X64454Y-31612D01*
X64465Y-31631D01*
X64470Y-31653D01*
X64467Y-31677D01*
X64457Y-31696D01*
X64445Y-31715D01*
X64462Y-31731D01*
X64473Y-31742D01*
X64480Y-31746D01*
X64486Y-31744D01*
X64493Y-31738D01*
X64508Y-31714D01*
X64518Y-31684D01*
X64521Y-31653D01*
X64521Y-31647D01*
X64513Y-31611D01*
X64498Y-31583D01*
X64476Y-31562D01*
X64445Y-31548D01*
X64408Y-31542D01*
X64391Y-31541D01*
X64367Y-31542D01*
X64350Y-31544D01*
X64334Y-31550D01*
X64319Y-31556D01*
X64301Y-31566D01*
X64289Y-31577D01*
X64279Y-31592D01*
X64275Y-31600D01*
X64262Y-31633D01*
X64261Y-31667D01*
X64261Y-31667D01*
X64261Y-31667D01*
G37*
G36*
X62330Y-30731D02*
X62330Y-30764D01*
X62330Y-30795D01*
X62331Y-30822D01*
X62332Y-30845D01*
X62333Y-30862D01*
X62334Y-30870D01*
X62335Y-30871D01*
X62343Y-30872D01*
X62359Y-30875D01*
X62382Y-30879D01*
X62410Y-30884D01*
X62440Y-30890D01*
X62472Y-30896D01*
X62503Y-30902D01*
X62532Y-30908D01*
X62557Y-30913D01*
X62577Y-30918D01*
X62589Y-30921D01*
X62592Y-30922D01*
X62595Y-30928D01*
X62602Y-30942D01*
X62610Y-30962D01*
X62620Y-30985D01*
X62631Y-31011D01*
X62641Y-31037D01*
X62651Y-31061D01*
X62658Y-31081D01*
X62664Y-31095D01*
X62665Y-31101D01*
X62663Y-31107D01*
X62655Y-31119D01*
X62642Y-31139D01*
X62626Y-31162D01*
X62608Y-31190D01*
X62595Y-31209D01*
X62575Y-31239D01*
X62557Y-31266D01*
X62542Y-31290D01*
X62531Y-31308D01*
X62525Y-31320D01*
X62524Y-31324D01*
X62527Y-31331D01*
X62537Y-31344D01*
X62552Y-31361D01*
X62571Y-31381D01*
X62593Y-31404D01*
X62615Y-31427D01*
X62638Y-31449D01*
X62659Y-31469D01*
X62677Y-31486D01*
X62692Y-31499D01*
X62701Y-31505D01*
X62703Y-31506D01*
X62709Y-31503D01*
X62723Y-31495D01*
X62743Y-31483D01*
X62767Y-31467D01*
X62794Y-31449D01*
X62808Y-31440D01*
X62836Y-31420D01*
X62862Y-31403D01*
X62884Y-31388D01*
X62901Y-31376D01*
X62912Y-31370D01*
X62914Y-31368D01*
X62922Y-31369D01*
X62937Y-31373D01*
X62959Y-31380D01*
X62984Y-31389D01*
X63011Y-31400D01*
X63038Y-31412D01*
X63063Y-31424D01*
X63084Y-31434D01*
X63100Y-31443D01*
X63108Y-31450D01*
X63109Y-31450D01*
X63112Y-31459D01*
X63116Y-31476D01*
X63121Y-31499D01*
X63127Y-31528D01*
X63133Y-31561D01*
X63135Y-31569D01*
X63141Y-31602D01*
X63146Y-31632D01*
X63151Y-31657D01*
X63155Y-31676D01*
X63157Y-31687D01*
X63157Y-31688D01*
X63160Y-31700D01*
X63290Y-31700D01*
X63421Y-31700D01*
X63423Y-31688D01*
X63425Y-31679D01*
X63429Y-31662D01*
X63433Y-31638D01*
X63439Y-31609D01*
X63445Y-31577D01*
X63447Y-31567D01*
X63453Y-31534D01*
X63459Y-31504D01*
X63465Y-31479D01*
X63470Y-31461D01*
X63473Y-31452D01*
X63474Y-31451D01*
X63481Y-31447D01*
X63496Y-31440D01*
X63518Y-31431D01*
X63544Y-31420D01*
X63573Y-31408D01*
X63575Y-31407D01*
X63607Y-31394D01*
X63632Y-31385D01*
X63649Y-31379D01*
X63662Y-31375D01*
X63670Y-31374D01*
X63677Y-31375D01*
X63682Y-31377D01*
X63683Y-31377D01*
X63696Y-31385D01*
X63705Y-31392D01*
X63712Y-31398D01*
X63726Y-31408D01*
X63744Y-31421D01*
X63757Y-31429D01*
X63781Y-31445D01*
X63806Y-31462D01*
X63828Y-31477D01*
X63835Y-31482D01*
X63852Y-31493D01*
X63866Y-31501D01*
X63874Y-31505D01*
X63875Y-31506D01*
X63880Y-31502D01*
X63891Y-31492D01*
X63908Y-31477D01*
X63928Y-31457D01*
X63952Y-31433D01*
X63971Y-31414D01*
X64063Y-31323D01*
X64019Y-31258D01*
X64000Y-31232D01*
X63982Y-31204D01*
X63964Y-31179D01*
X63951Y-31159D01*
X63949Y-31156D01*
X63923Y-31119D01*
X63947Y-31074D01*
X63958Y-31054D01*
X63966Y-31037D01*
X63971Y-31025D01*
X63972Y-31022D01*
X63968Y-31018D01*
X63955Y-31011D01*
X63935Y-31001D01*
X63906Y-30988D01*
X63867Y-30972D01*
X63820Y-30951D01*
X63767Y-30929D01*
X63723Y-30911D01*
X63682Y-30895D01*
X63645Y-30880D01*
X63612Y-30867D01*
X63586Y-30857D01*
X63567Y-30849D01*
X63555Y-30845D01*
X63553Y-30845D01*
X63544Y-30849D01*
X63533Y-30862D01*
X63525Y-30872D01*
X63497Y-30909D01*
X63461Y-30943D01*
X63423Y-30970D01*
X63409Y-30978D01*
X63362Y-30996D01*
X63315Y-31005D01*
X63267Y-31004D01*
X63221Y-30995D01*
X63177Y-30979D01*
X63137Y-30955D01*
X63101Y-30925D01*
X63070Y-30889D01*
X63047Y-30848D01*
X63030Y-30802D01*
X63023Y-30753D01*
X63022Y-30737D01*
X63027Y-30686D01*
X63042Y-30637D01*
X63065Y-30592D01*
X63097Y-30553D01*
X63136Y-30520D01*
X63171Y-30498D01*
X63222Y-30479D01*
X63273Y-30469D01*
X63323Y-30470D01*
X63372Y-30480D01*
X63418Y-30500D01*
X63460Y-30529D01*
X63499Y-30568D01*
X63516Y-30590D01*
X63529Y-30607D01*
X63541Y-30621D01*
X63549Y-30628D01*
X63552Y-30630D01*
X63558Y-30628D01*
X63573Y-30622D01*
X63596Y-30613D01*
X63625Y-30602D01*
X63660Y-30588D01*
X63699Y-30572D01*
X63742Y-30555D01*
X63766Y-30545D01*
X63824Y-30521D01*
X63872Y-30500D01*
X63910Y-30484D01*
X63940Y-30470D01*
X63959Y-30461D01*
X63970Y-30454D01*
X63972Y-30452D01*
X63969Y-30444D01*
X63963Y-30430D01*
X63954Y-30411D01*
X63948Y-30400D01*
X63923Y-30355D01*
X63986Y-30264D01*
X64005Y-30236D01*
X64022Y-30211D01*
X64037Y-30188D01*
X64048Y-30172D01*
X64055Y-30162D01*
X64056Y-30160D01*
X64058Y-30156D01*
X64059Y-30152D01*
X64057Y-30147D01*
X64052Y-30139D01*
X64044Y-30129D01*
X64030Y-30115D01*
X64012Y-30096D01*
X63987Y-30070D01*
X63974Y-30058D01*
X63942Y-30026D01*
X63915Y-30000D01*
X63895Y-29982D01*
X63881Y-29972D01*
X63874Y-29969D01*
X63862Y-29972D01*
X63853Y-29979D01*
X63844Y-29986D01*
X63829Y-29997D01*
X63810Y-30010D01*
X63796Y-30019D01*
X63771Y-30036D01*
X63745Y-30053D01*
X63721Y-30069D01*
X63712Y-30075D01*
X63694Y-30086D01*
X63679Y-30095D01*
X63669Y-30099D01*
X63667Y-30100D01*
X63660Y-30098D01*
X63645Y-30093D01*
X63624Y-30085D01*
X63599Y-30075D01*
X63572Y-30065D01*
X63545Y-30054D01*
X63519Y-30043D01*
X63497Y-30034D01*
X63481Y-30027D01*
X63473Y-30022D01*
X63472Y-30022D01*
X63469Y-30015D01*
X63466Y-30000D01*
X63461Y-29978D01*
X63455Y-29950D01*
X63449Y-29918D01*
X63447Y-29908D01*
X63440Y-29874D01*
X63435Y-29844D01*
X63430Y-29818D01*
X63426Y-29799D01*
X63424Y-29788D01*
X63423Y-29787D01*
X63421Y-29775D01*
X63290Y-29775D01*
X63159Y-29775D01*
X63155Y-29794D01*
X63144Y-29856D01*
X63134Y-29907D01*
X63126Y-29949D01*
X63119Y-29982D01*
X63113Y-30006D01*
X63109Y-30021D01*
X63106Y-30029D01*
X63105Y-30029D01*
X63098Y-30033D01*
X63083Y-30041D01*
X63062Y-30050D01*
X63036Y-30062D01*
X63010Y-30074D01*
X62979Y-30087D01*
X62956Y-30097D01*
X62940Y-30103D01*
X62928Y-30106D01*
X62921Y-30107D01*
X62915Y-30106D01*
X62910Y-30103D01*
X62908Y-30102D01*
X62899Y-30097D01*
X62884Y-30086D01*
X62862Y-30071D01*
X62837Y-30054D01*
X62810Y-30035D01*
X62803Y-30031D01*
X62776Y-30012D01*
X62751Y-29996D01*
X62730Y-29983D01*
X62714Y-29973D01*
X62705Y-29969D01*
X62704Y-29969D01*
X62697Y-29972D01*
X62684Y-29982D01*
X62667Y-29998D01*
X62647Y-30017D01*
X62624Y-30038D01*
X62602Y-30061D01*
X62580Y-30084D01*
X62560Y-30106D01*
X62543Y-30124D01*
X62531Y-30139D01*
X62524Y-30148D01*
X62524Y-30150D01*
X62527Y-30158D01*
X62535Y-30172D01*
X62547Y-30193D01*
X62563Y-30217D01*
X62582Y-30246D01*
X62595Y-30264D01*
X62614Y-30293D01*
X62632Y-30320D01*
X62647Y-30342D01*
X62658Y-30359D01*
X62664Y-30370D01*
X62665Y-30372D01*
X62663Y-30380D01*
X62658Y-30395D01*
X62650Y-30416D01*
X62640Y-30440D01*
X62629Y-30466D01*
X62618Y-30492D01*
X62608Y-30515D01*
X62599Y-30533D01*
X62593Y-30546D01*
X62590Y-30550D01*
X62584Y-30552D01*
X62569Y-30556D01*
X62547Y-30561D01*
X62520Y-30567D01*
X62490Y-30574D01*
X62458Y-30581D01*
X62427Y-30587D01*
X62397Y-30593D01*
X62371Y-30598D01*
X62350Y-30601D01*
X62336Y-30603D01*
X62334Y-30603D01*
X62332Y-30608D01*
X62331Y-30622D01*
X62331Y-30643D01*
X62330Y-30669D01*
X62330Y-30699D01*
X62330Y-30731D01*
X62330Y-30731D01*
X62330Y-30731D01*
G37*
G36*
X64670Y-31596D02*
X64676Y-31629D01*
X64688Y-31655D01*
X64708Y-31675D01*
X64717Y-31678D01*
X64717Y-31583D01*
X64724Y-31562D01*
X64732Y-31553D01*
X64743Y-31543D01*
X64753Y-31538D01*
X64755Y-31537D01*
X64767Y-31535D01*
X64771Y-31534D01*
X64775Y-31534D01*
X64777Y-31538D01*
X64779Y-31547D01*
X64779Y-31564D01*
X64779Y-31587D01*
X64779Y-31611D01*
X64779Y-31627D01*
X64777Y-31636D01*
X64775Y-31641D01*
X64770Y-31642D01*
X64769Y-31642D01*
X64755Y-31640D01*
X64746Y-31636D01*
X64728Y-31622D01*
X64718Y-31603D01*
X64717Y-31583D01*
X64717Y-31678D01*
X64736Y-31687D01*
X64772Y-31693D01*
X64778Y-31694D01*
X64816Y-31696D01*
X64817Y-31615D01*
X64818Y-31585D01*
X64819Y-31563D01*
X64820Y-31549D01*
X64821Y-31540D01*
X64824Y-31537D01*
X64827Y-31536D01*
X64829Y-31536D01*
X64853Y-31543D01*
X64869Y-31556D01*
X64877Y-31569D01*
X64883Y-31594D01*
X64879Y-31618D01*
X64868Y-31637D01*
X64857Y-31653D01*
X64872Y-31671D01*
X64883Y-31683D01*
X64889Y-31688D01*
X64895Y-31687D01*
X64901Y-31680D01*
X64918Y-31654D01*
X64927Y-31623D01*
X64929Y-31590D01*
X64924Y-31558D01*
X64912Y-31530D01*
X64905Y-31520D01*
X64886Y-31503D01*
X64861Y-31492D01*
X64830Y-31486D01*
X64791Y-31486D01*
X64750Y-31490D01*
X64718Y-31501D01*
X64694Y-31518D01*
X64678Y-31542D01*
X64671Y-31571D01*
X64670Y-31596D01*
X64670Y-31596D01*
X64670Y-31596D01*
G37*
G36*
X59730Y-30700D02*
X59735Y-30800D01*
X59748Y-30899D01*
X59749Y-30906D01*
X59772Y-30997D01*
X59804Y-31086D01*
X59846Y-31170D01*
X59895Y-31250D01*
X59901Y-31258D01*
X59901Y-30699D01*
X59902Y-30655D01*
X59904Y-30613D01*
X59908Y-30578D01*
X59909Y-30573D01*
X59928Y-30491D01*
X59955Y-30411D01*
X59990Y-30336D01*
X60025Y-30278D01*
X60075Y-30213D01*
X60132Y-30151D01*
X60195Y-30094D01*
X60262Y-30044D01*
X60306Y-30016D01*
X60379Y-29979D01*
X60453Y-29951D01*
X60528Y-29931D01*
X60607Y-29919D01*
X60693Y-29916D01*
X60694Y-29916D01*
X60772Y-29919D01*
X60844Y-29928D01*
X60912Y-29945D01*
X60979Y-29968D01*
X61026Y-29990D01*
X61104Y-30034D01*
X61177Y-30086D01*
X61243Y-30146D01*
X61303Y-30212D01*
X61355Y-30283D01*
X61400Y-30359D01*
X61435Y-30439D01*
X61460Y-30521D01*
X61462Y-30529D01*
X61471Y-30577D01*
X61477Y-30633D01*
X61479Y-30691D01*
X61479Y-30750D01*
X61475Y-30805D01*
X61470Y-30837D01*
X61451Y-30922D01*
X61422Y-31002D01*
X61385Y-31080D01*
X61337Y-31154D01*
X61280Y-31227D01*
X61277Y-31230D01*
X61214Y-31296D01*
X61145Y-31352D01*
X61073Y-31399D01*
X60996Y-31436D01*
X60915Y-31464D01*
X60874Y-31474D01*
X60798Y-31487D01*
X60726Y-31493D01*
X60652Y-31493D01*
X60609Y-31490D01*
X60520Y-31476D01*
X60435Y-31454D01*
X60355Y-31421D01*
X60278Y-31379D01*
X60205Y-31327D01*
X60149Y-31278D01*
X60084Y-31210D01*
X60029Y-31138D01*
X59983Y-31062D01*
X59947Y-30982D01*
X59921Y-30898D01*
X59906Y-30821D01*
X59903Y-30786D01*
X59901Y-30744D01*
X59901Y-30699D01*
X59901Y-31258D01*
X59952Y-31325D01*
X60016Y-31395D01*
X60086Y-31457D01*
X60162Y-31513D01*
X60242Y-31561D01*
X60327Y-31600D01*
X60416Y-31630D01*
X60483Y-31647D01*
X60580Y-31661D01*
X60680Y-31667D01*
X60777Y-31665D01*
X60854Y-31655D01*
X60933Y-31639D01*
X61011Y-31616D01*
X61086Y-31588D01*
X61154Y-31556D01*
X61165Y-31550D01*
X61241Y-31501D01*
X61314Y-31444D01*
X61382Y-31379D01*
X61443Y-31307D01*
X61499Y-31231D01*
X61546Y-31150D01*
X61586Y-31067D01*
X61615Y-30981D01*
X61623Y-30952D01*
X61632Y-30917D01*
X61638Y-30887D01*
X61643Y-30859D01*
X61646Y-30832D01*
X61648Y-30802D01*
X61650Y-30768D01*
X61650Y-30727D01*
X61650Y-30698D01*
X61650Y-30657D01*
X61649Y-30625D01*
X61649Y-30600D01*
X61647Y-30578D01*
X61645Y-30559D01*
X61642Y-30540D01*
X61638Y-30520D01*
X61636Y-30509D01*
X61611Y-30414D01*
X61578Y-30324D01*
X61535Y-30240D01*
X61483Y-30158D01*
X61422Y-30080D01*
X61383Y-30037D01*
X61331Y-29987D01*
X61274Y-29938D01*
X61217Y-29896D01*
X61206Y-29889D01*
X61126Y-29842D01*
X61041Y-29804D01*
X60952Y-29775D01*
X60861Y-29755D01*
X60767Y-29743D01*
X60673Y-29740D01*
X60579Y-29746D01*
X60487Y-29761D01*
X60396Y-29785D01*
X60309Y-29817D01*
X60226Y-29859D01*
X60176Y-29889D01*
X60093Y-29949D01*
X60017Y-30016D01*
X59949Y-30089D01*
X59890Y-30166D01*
X59840Y-30248D01*
X59799Y-30334D01*
X59768Y-30423D01*
X59749Y-30502D01*
X59735Y-30599D01*
X59730Y-30700D01*
X59730Y-30700D01*
X59730Y-30700D01*
G37*
G36*
X57007Y-30679D02*
X57010Y-30782D01*
X57019Y-30856D01*
X57037Y-30951D01*
X57066Y-31043D01*
X57104Y-31131D01*
X57150Y-31214D01*
X57177Y-31253D01*
X57177Y-30697D01*
X57179Y-30641D01*
X57190Y-30551D01*
X57211Y-30465D01*
X57242Y-30383D01*
X57282Y-30306D01*
X57331Y-30232D01*
X57390Y-30164D01*
X57457Y-30101D01*
X57458Y-30100D01*
X57531Y-30045D01*
X57605Y-30000D01*
X57681Y-29964D01*
X57761Y-29938D01*
X57837Y-29921D01*
X57886Y-29914D01*
X57941Y-29912D01*
X57999Y-29912D01*
X58056Y-29915D01*
X58108Y-29922D01*
X58143Y-29928D01*
X58220Y-29951D01*
X58292Y-29980D01*
X58363Y-30018D01*
X58403Y-30044D01*
X58432Y-30066D01*
X58465Y-30093D01*
X58500Y-30126D01*
X58535Y-30161D01*
X58568Y-30196D01*
X58597Y-30230D01*
X58620Y-30259D01*
X58624Y-30265D01*
X58671Y-30341D01*
X58707Y-30419D01*
X58733Y-30499D01*
X58749Y-30583D01*
X58757Y-30671D01*
X58757Y-30701D01*
X58754Y-30784D01*
X58742Y-30861D01*
X58723Y-30936D01*
X58695Y-31009D01*
X58673Y-31055D01*
X58633Y-31123D01*
X58586Y-31188D01*
X58532Y-31250D01*
X58473Y-31306D01*
X58411Y-31355D01*
X58348Y-31396D01*
X58310Y-31416D01*
X58233Y-31447D01*
X58150Y-31470D01*
X58064Y-31484D01*
X57976Y-31489D01*
X57887Y-31485D01*
X57875Y-31484D01*
X57800Y-31472D01*
X57725Y-31452D01*
X57652Y-31426D01*
X57586Y-31394D01*
X57572Y-31385D01*
X57509Y-31344D01*
X57449Y-31294D01*
X57391Y-31238D01*
X57339Y-31179D01*
X57294Y-31117D01*
X57257Y-31054D01*
X57252Y-31042D01*
X57219Y-30961D01*
X57195Y-30877D01*
X57181Y-30788D01*
X57177Y-30697D01*
X57177Y-31253D01*
X57204Y-31293D01*
X57266Y-31365D01*
X57334Y-31431D01*
X57409Y-31490D01*
X57490Y-31542D01*
X57577Y-31585D01*
X57651Y-31613D01*
X57734Y-31636D01*
X57821Y-31652D01*
X57912Y-31661D01*
X58002Y-31663D01*
X58086Y-31657D01*
X58173Y-31644D01*
X58256Y-31623D01*
X58336Y-31594D01*
X58403Y-31564D01*
X58484Y-31518D01*
X58560Y-31463D01*
X58631Y-31401D01*
X58696Y-31331D01*
X58755Y-31255D01*
X58806Y-31174D01*
X58849Y-31089D01*
X58883Y-31000D01*
X58908Y-30909D01*
X58909Y-30902D01*
X58923Y-30811D01*
X58929Y-30717D01*
X58926Y-30621D01*
X58914Y-30527D01*
X58894Y-30436D01*
X58880Y-30390D01*
X58848Y-30307D01*
X58805Y-30225D01*
X58754Y-30146D01*
X58695Y-30072D01*
X58630Y-30003D01*
X58559Y-29940D01*
X58483Y-29884D01*
X58473Y-29878D01*
X58412Y-29843D01*
X58344Y-29812D01*
X58272Y-29784D01*
X58199Y-29762D01*
X58162Y-29754D01*
X58131Y-29748D01*
X58092Y-29744D01*
X58048Y-29741D01*
X58002Y-29739D01*
X57955Y-29738D01*
X57910Y-29739D01*
X57871Y-29741D01*
X57846Y-29743D01*
X57748Y-29760D01*
X57654Y-29787D01*
X57562Y-29824D01*
X57475Y-29871D01*
X57392Y-29927D01*
X57323Y-29983D01*
X57251Y-30054D01*
X57189Y-30130D01*
X57135Y-30211D01*
X57090Y-30297D01*
X57055Y-30387D01*
X57030Y-30481D01*
X57013Y-30578D01*
X57007Y-30679D01*
X57007Y-30679D01*
X57007Y-30679D01*
G37*
G36*
X54284Y-30696D02*
X54289Y-30796D01*
X54304Y-30894D01*
X54328Y-30990D01*
X54361Y-31082D01*
X54404Y-31170D01*
X54453Y-31249D01*
X54453Y-30722D01*
X54455Y-30637D01*
X54466Y-30553D01*
X54485Y-30470D01*
X54513Y-30391D01*
X54550Y-30315D01*
X54572Y-30281D01*
X54626Y-30206D01*
X54689Y-30138D01*
X54758Y-30078D01*
X54833Y-30026D01*
X54913Y-29982D01*
X54999Y-29947D01*
X55088Y-29921D01*
X55091Y-29921D01*
X55128Y-29914D01*
X55172Y-29910D01*
X55220Y-29908D01*
X55269Y-29908D01*
X55317Y-29910D01*
X55359Y-29914D01*
X55386Y-29918D01*
X55464Y-29938D01*
X55541Y-29966D01*
X55614Y-30001D01*
X55682Y-30042D01*
X55691Y-30048D01*
X55722Y-30072D01*
X55757Y-30102D01*
X55792Y-30135D01*
X55826Y-30170D01*
X55856Y-30203D01*
X55879Y-30231D01*
X55929Y-30307D01*
X55969Y-30387D01*
X56000Y-30469D01*
X56021Y-30553D01*
X56032Y-30639D01*
X56033Y-30725D01*
X56025Y-30811D01*
X56007Y-30897D01*
X55979Y-30981D01*
X55942Y-31063D01*
X55894Y-31142D01*
X55891Y-31146D01*
X55866Y-31179D01*
X55835Y-31216D01*
X55801Y-31254D01*
X55764Y-31289D01*
X55729Y-31321D01*
X55704Y-31341D01*
X55647Y-31379D01*
X55582Y-31413D01*
X55513Y-31441D01*
X55442Y-31462D01*
X55400Y-31471D01*
X55374Y-31476D01*
X55354Y-31479D01*
X55335Y-31481D01*
X55317Y-31482D01*
X55296Y-31483D01*
X55270Y-31483D01*
X55236Y-31482D01*
X55227Y-31482D01*
X55182Y-31481D01*
X55145Y-31478D01*
X55113Y-31475D01*
X55085Y-31469D01*
X55084Y-31469D01*
X54995Y-31445D01*
X54911Y-31412D01*
X54832Y-31369D01*
X54758Y-31318D01*
X54690Y-31258D01*
X54628Y-31190D01*
X54579Y-31122D01*
X54536Y-31049D01*
X54502Y-30971D01*
X54477Y-30890D01*
X54461Y-30807D01*
X54453Y-30722D01*
X54453Y-31249D01*
X54456Y-31253D01*
X54496Y-31306D01*
X54521Y-31335D01*
X54551Y-31367D01*
X54584Y-31400D01*
X54618Y-31431D01*
X54649Y-31458D01*
X54660Y-31466D01*
X54736Y-31518D01*
X54819Y-31563D01*
X54906Y-31599D01*
X54998Y-31628D01*
X55092Y-31647D01*
X55130Y-31652D01*
X55165Y-31655D01*
X55206Y-31657D01*
X55252Y-31657D01*
X55297Y-31656D01*
X55340Y-31654D01*
X55376Y-31651D01*
X55384Y-31650D01*
X55468Y-31635D01*
X55546Y-31614D01*
X55623Y-31585D01*
X55675Y-31561D01*
X55755Y-31517D01*
X55828Y-31467D01*
X55896Y-31409D01*
X55955Y-31348D01*
X56018Y-31270D01*
X56072Y-31187D01*
X56117Y-31100D01*
X56153Y-31010D01*
X56180Y-30918D01*
X56197Y-30823D01*
X56206Y-30728D01*
X56204Y-30632D01*
X56193Y-30536D01*
X56173Y-30442D01*
X56143Y-30349D01*
X56111Y-30276D01*
X56063Y-30189D01*
X56007Y-30108D01*
X55943Y-30034D01*
X55872Y-29966D01*
X55795Y-29906D01*
X55712Y-29854D01*
X55624Y-29810D01*
X55532Y-29775D01*
X55437Y-29750D01*
X55428Y-29748D01*
X55385Y-29741D01*
X55334Y-29736D01*
X55280Y-29734D01*
X55225Y-29733D01*
X55173Y-29735D01*
X55127Y-29739D01*
X55117Y-29740D01*
X55016Y-29760D01*
X54920Y-29789D01*
X54828Y-29828D01*
X54740Y-29876D01*
X54658Y-29933D01*
X54581Y-29999D01*
X54510Y-30073D01*
X54499Y-30087D01*
X54440Y-30165D01*
X54390Y-30248D01*
X54350Y-30335D01*
X54319Y-30425D01*
X54304Y-30492D01*
X54289Y-30594D01*
X54284Y-30696D01*
X54284Y-30696D01*
X54284Y-30696D01*
G37*
G36*
X64261Y-31498D02*
X64266Y-31523D01*
X64268Y-31527D01*
X64275Y-31537D01*
X64280Y-31542D01*
X64280Y-31542D01*
X64286Y-31539D01*
X64296Y-31531D01*
X64303Y-31525D01*
X64314Y-31515D01*
X64318Y-31507D01*
X64317Y-31499D01*
X64315Y-31492D01*
X64311Y-31470D01*
X64317Y-31450D01*
X64330Y-31435D01*
X64337Y-31431D01*
X64344Y-31428D01*
X64355Y-31426D01*
X64371Y-31425D01*
X64393Y-31424D01*
X64424Y-31423D01*
X64431Y-31423D01*
X64517Y-31421D01*
X64517Y-31395D01*
X64517Y-31369D01*
X64391Y-31369D01*
X64265Y-31369D01*
X64265Y-31396D01*
X64266Y-31411D01*
X64268Y-31419D01*
X64273Y-31422D01*
X64276Y-31422D01*
X64281Y-31422D01*
X64282Y-31426D01*
X64278Y-31435D01*
X64273Y-31444D01*
X64263Y-31470D01*
X64261Y-31498D01*
X64261Y-31498D01*
X64261Y-31498D01*
G37*
G36*
X64669Y-31424D02*
X64671Y-31449D01*
X64676Y-31463D01*
X64683Y-31474D01*
X64690Y-31477D01*
X64700Y-31472D01*
X64713Y-31461D01*
X64725Y-31451D01*
X64729Y-31444D01*
X64729Y-31437D01*
X64724Y-31430D01*
X64718Y-31412D01*
X64722Y-31393D01*
X64734Y-31376D01*
X64738Y-31372D01*
X64744Y-31367D01*
X64751Y-31364D01*
X64759Y-31361D01*
X64770Y-31360D01*
X64788Y-31359D01*
X64812Y-31359D01*
X64840Y-31359D01*
X64926Y-31359D01*
X64926Y-31333D01*
X64926Y-31306D01*
X64798Y-31306D01*
X64669Y-31306D01*
X64669Y-31333D01*
X64670Y-31348D01*
X64672Y-31356D01*
X64677Y-31359D01*
X64682Y-31359D01*
X64695Y-31359D01*
X64682Y-31378D01*
X64673Y-31399D01*
X64669Y-31424D01*
X64669Y-31424D01*
X64669Y-31424D01*
G37*
G36*
X65530Y-30194D02*
X65530Y-30198D01*
X65536Y-30209D01*
X65547Y-30224D01*
X65556Y-30237D01*
X65584Y-30277D01*
X65604Y-30313D01*
X65616Y-30348D01*
X65623Y-30383D01*
X65623Y-30422D01*
X65618Y-30468D01*
X65616Y-30480D01*
X65610Y-30524D01*
X65609Y-30561D01*
X65611Y-30593D01*
X65616Y-30616D01*
X65630Y-30657D01*
X65650Y-30693D01*
X65676Y-30725D01*
X65710Y-30752D01*
X65751Y-30776D01*
X65802Y-30797D01*
X65847Y-30811D01*
X65873Y-30819D01*
X65892Y-30823D01*
X65901Y-30823D01*
X65904Y-30819D01*
X65898Y-30809D01*
X65884Y-30793D01*
X65863Y-30771D01*
X65857Y-30765D01*
X65826Y-30732D01*
X65803Y-30703D01*
X65785Y-30676D01*
X65772Y-30648D01*
X65763Y-30619D01*
X65757Y-30585D01*
X65757Y-30583D01*
X65752Y-30552D01*
X65746Y-30521D01*
X65741Y-30490D01*
X65736Y-30463D01*
X65731Y-30442D01*
X65727Y-30427D01*
X65726Y-30424D01*
X65726Y-30416D01*
X65729Y-30415D01*
X65735Y-30419D01*
X65743Y-30433D01*
X65752Y-30453D01*
X65762Y-30479D01*
X65772Y-30508D01*
X65781Y-30539D01*
X65781Y-30540D01*
X65799Y-30601D01*
X65819Y-30653D01*
X65840Y-30698D01*
X65866Y-30736D01*
X65895Y-30771D01*
X65931Y-30803D01*
X65973Y-30833D01*
X66013Y-30858D01*
X66046Y-30876D01*
X66074Y-30887D01*
X66099Y-30890D01*
X66123Y-30887D01*
X66148Y-30876D01*
X66166Y-30866D01*
X66191Y-30850D01*
X66237Y-30893D01*
X66262Y-30915D01*
X66290Y-30939D01*
X66317Y-30960D01*
X66331Y-30971D01*
X66351Y-30985D01*
X66367Y-30998D01*
X66378Y-31007D01*
X66382Y-31012D01*
X66382Y-31020D01*
X66381Y-31035D01*
X66378Y-31056D01*
X66376Y-31066D01*
X66372Y-31122D01*
X66377Y-31176D01*
X66391Y-31226D01*
X66413Y-31272D01*
X66444Y-31313D01*
X66482Y-31349D01*
X66489Y-31353D01*
X66489Y-31199D01*
X66494Y-31184D01*
X66505Y-31176D01*
X66513Y-31175D01*
X66529Y-31180D01*
X66541Y-31193D01*
X66548Y-31209D01*
X66554Y-31223D01*
X66560Y-31229D01*
X66572Y-31232D01*
X66575Y-31232D01*
X66588Y-31232D01*
X66598Y-31231D01*
X66604Y-31225D01*
X66608Y-31213D01*
X66610Y-31195D01*
X66610Y-31169D01*
X66610Y-31151D01*
X66610Y-31081D01*
X66559Y-31081D01*
X66532Y-31080D01*
X66514Y-31079D01*
X66503Y-31074D01*
X66497Y-31067D01*
X66495Y-31055D01*
X66495Y-31048D01*
X66495Y-31038D01*
X66498Y-31032D01*
X66504Y-31027D01*
X66516Y-31024D01*
X66536Y-31023D01*
X66563Y-31022D01*
X66607Y-31021D01*
X66613Y-30998D01*
X66621Y-30978D01*
X66633Y-30968D01*
X66649Y-30967D01*
X66649Y-30967D01*
X66661Y-30975D01*
X66669Y-30990D01*
X66673Y-31007D01*
X66673Y-31008D01*
X66678Y-31018D01*
X66686Y-31023D01*
X66695Y-31028D01*
X66699Y-31037D01*
X66699Y-31049D01*
X66698Y-31065D01*
X66692Y-31075D01*
X66686Y-31079D01*
X66680Y-31083D01*
X66677Y-31088D01*
X66675Y-31097D01*
X66674Y-31110D01*
X66673Y-31131D01*
X66673Y-31144D01*
X66672Y-31185D01*
X66670Y-31217D01*
X66664Y-31242D01*
X66657Y-31260D01*
X66645Y-31273D01*
X66631Y-31282D01*
X66629Y-31283D01*
X66611Y-31288D01*
X66588Y-31290D01*
X66563Y-31289D01*
X66540Y-31286D01*
X66532Y-31284D01*
X66513Y-31273D01*
X66499Y-31255D01*
X66491Y-31228D01*
X66490Y-31222D01*
X66489Y-31199D01*
X66489Y-31353D01*
X66526Y-31377D01*
X66577Y-31397D01*
X66579Y-31398D01*
X66584Y-31399D01*
X66590Y-31400D01*
X66599Y-31401D01*
X66610Y-31402D01*
X66624Y-31403D01*
X66642Y-31404D01*
X66664Y-31404D01*
X66691Y-31405D01*
X66723Y-31405D01*
X66728Y-31405D01*
X66728Y-31211D01*
X66728Y-31182D01*
X66729Y-31142D01*
X66730Y-31110D01*
X66732Y-31086D01*
X66736Y-31069D01*
X66742Y-31055D01*
X66749Y-31045D01*
X66760Y-31037D01*
X66762Y-31035D01*
X66773Y-31031D01*
X66791Y-31028D01*
X66815Y-31026D01*
X66842Y-31024D01*
X66869Y-31024D01*
X66895Y-31025D01*
X66918Y-31026D01*
X66934Y-31029D01*
X66942Y-31032D01*
X66944Y-31038D01*
X66946Y-31050D01*
X66947Y-31068D01*
X66948Y-31094D01*
X66948Y-31129D01*
X66948Y-31159D01*
X66948Y-31277D01*
X66935Y-31284D01*
X66918Y-31290D01*
X66904Y-31288D01*
X66898Y-31282D01*
X66895Y-31275D01*
X66892Y-31260D01*
X66890Y-31238D01*
X66889Y-31207D01*
X66888Y-31188D01*
X66887Y-31156D01*
X66886Y-31132D01*
X66885Y-31116D01*
X66883Y-31105D01*
X66880Y-31098D01*
X66876Y-31093D01*
X66874Y-31090D01*
X66864Y-31083D01*
X66851Y-31080D01*
X66833Y-31079D01*
X66818Y-31079D01*
X66807Y-31081D01*
X66799Y-31086D01*
X66794Y-31095D01*
X66791Y-31109D01*
X66789Y-31131D01*
X66789Y-31160D01*
X66789Y-31186D01*
X66788Y-31222D01*
X66788Y-31249D01*
X66785Y-31267D01*
X66782Y-31279D01*
X66777Y-31286D01*
X66769Y-31290D01*
X66759Y-31291D01*
X66758Y-31291D01*
X66748Y-31290D01*
X66741Y-31289D01*
X66735Y-31284D01*
X66732Y-31275D01*
X66730Y-31261D01*
X66729Y-31240D01*
X66728Y-31211D01*
X66728Y-31405D01*
X66761Y-31406D01*
X66805Y-31406D01*
X66856Y-31406D01*
X66914Y-31407D01*
X66980Y-31407D01*
X67000Y-31407D01*
X67000Y-31230D01*
X67000Y-31199D01*
X67000Y-31168D01*
X67002Y-31128D01*
X67003Y-31098D01*
X67006Y-31075D01*
X67009Y-31059D01*
X67014Y-31047D01*
X67021Y-31040D01*
X67030Y-31034D01*
X67041Y-31030D01*
X67056Y-31027D01*
X67078Y-31025D01*
X67103Y-31024D01*
X67129Y-31024D01*
X67152Y-31025D01*
X67170Y-31027D01*
X67175Y-31029D01*
X67196Y-31041D01*
X67211Y-31058D01*
X67218Y-31078D01*
X67216Y-31097D01*
X67212Y-31103D01*
X67202Y-31107D01*
X67191Y-31107D01*
X67175Y-31106D01*
X67164Y-31100D01*
X67157Y-31091D01*
X67149Y-31083D01*
X67141Y-31078D01*
X67130Y-31076D01*
X67112Y-31076D01*
X67087Y-31077D01*
X67070Y-31083D01*
X67063Y-31092D01*
X67062Y-31102D01*
X67063Y-31108D01*
X67066Y-31111D01*
X67072Y-31114D01*
X67084Y-31115D01*
X67102Y-31116D01*
X67129Y-31118D01*
X67156Y-31119D01*
X67174Y-31120D01*
X67187Y-31122D01*
X67195Y-31125D01*
X67201Y-31129D01*
X67206Y-31135D01*
X67219Y-31157D01*
X67227Y-31184D01*
X67228Y-31212D01*
X67223Y-31239D01*
X67212Y-31262D01*
X67205Y-31270D01*
X67196Y-31277D01*
X67184Y-31283D01*
X67168Y-31286D01*
X67147Y-31288D01*
X67118Y-31289D01*
X67083Y-31288D01*
X67051Y-31287D01*
X67027Y-31286D01*
X67012Y-31284D01*
X67004Y-31281D01*
X67003Y-31279D01*
X67001Y-31272D01*
X67000Y-31255D01*
X67000Y-31230D01*
X67000Y-31407D01*
X67055Y-31407D01*
X67139Y-31408D01*
X67232Y-31408D01*
X67266Y-31408D01*
X67266Y-31157D01*
X67266Y-31118D01*
X67266Y-31088D01*
X67267Y-31066D01*
X67267Y-31064D01*
X67267Y-30956D01*
X67270Y-30941D01*
X67276Y-30930D01*
X67277Y-30928D01*
X67290Y-30924D01*
X67305Y-30924D01*
X67318Y-30927D01*
X67323Y-30930D01*
X67327Y-30939D01*
X67329Y-30953D01*
X67329Y-30968D01*
X67327Y-30981D01*
X67322Y-30988D01*
X67322Y-30988D01*
X67307Y-30991D01*
X67289Y-30990D01*
X67276Y-30985D01*
X67274Y-30983D01*
X67268Y-30972D01*
X67267Y-30956D01*
X67267Y-31064D01*
X67268Y-31051D01*
X67270Y-31041D01*
X67272Y-31035D01*
X67274Y-31031D01*
X67286Y-31025D01*
X67302Y-31023D01*
X67316Y-31026D01*
X67323Y-31029D01*
X67325Y-31035D01*
X67327Y-31048D01*
X67328Y-31069D01*
X67329Y-31098D01*
X67329Y-31137D01*
X67329Y-31158D01*
X67329Y-31197D01*
X67329Y-31227D01*
X67328Y-31249D01*
X67327Y-31264D01*
X67326Y-31274D01*
X67324Y-31280D01*
X67321Y-31284D01*
X67320Y-31285D01*
X67304Y-31290D01*
X67287Y-31289D01*
X67274Y-31282D01*
X67271Y-31278D01*
X67269Y-31271D01*
X67268Y-31260D01*
X67267Y-31244D01*
X67266Y-31220D01*
X67266Y-31189D01*
X67266Y-31157D01*
X67266Y-31408D01*
X67321Y-31408D01*
X67381Y-31408D01*
X67381Y-31104D01*
X67381Y-31057D01*
X67381Y-31020D01*
X67382Y-30991D01*
X67382Y-30969D01*
X67383Y-30953D01*
X67384Y-30943D01*
X67386Y-30936D01*
X67388Y-30932D01*
X67390Y-30930D01*
X67392Y-30929D01*
X67409Y-30924D01*
X67424Y-30928D01*
X67431Y-30935D01*
X67433Y-30940D01*
X67435Y-30947D01*
X67437Y-30958D01*
X67438Y-30973D01*
X67438Y-30995D01*
X67439Y-31024D01*
X67439Y-31061D01*
X67439Y-31107D01*
X67439Y-31111D01*
X67439Y-31159D01*
X67439Y-31197D01*
X67438Y-31228D01*
X67437Y-31251D01*
X67435Y-31267D01*
X67433Y-31278D01*
X67429Y-31285D01*
X67424Y-31289D01*
X67418Y-31290D01*
X67410Y-31291D01*
X67397Y-31287D01*
X67390Y-31282D01*
X67387Y-31279D01*
X67386Y-31273D01*
X67384Y-31264D01*
X67383Y-31250D01*
X67382Y-31230D01*
X67382Y-31203D01*
X67381Y-31169D01*
X67381Y-31125D01*
X67381Y-31104D01*
X67381Y-31408D01*
X67413Y-31408D01*
X67484Y-31408D01*
X67484Y-31157D01*
X67485Y-31120D01*
X67487Y-31093D01*
X67492Y-31072D01*
X67500Y-31057D01*
X67512Y-31045D01*
X67527Y-31035D01*
X67528Y-31035D01*
X67538Y-31030D01*
X67548Y-31027D01*
X67560Y-31025D01*
X67577Y-31024D01*
X67600Y-31024D01*
X67624Y-31025D01*
X67654Y-31025D01*
X67674Y-31026D01*
X67688Y-31028D01*
X67697Y-31030D01*
X67702Y-31033D01*
X67705Y-31036D01*
X67707Y-31044D01*
X67708Y-31061D01*
X67710Y-31085D01*
X67711Y-31114D01*
X67712Y-31148D01*
X67712Y-31184D01*
X67712Y-31221D01*
X67712Y-31257D01*
X67712Y-31291D01*
X67711Y-31322D01*
X67710Y-31346D01*
X67708Y-31364D01*
X67706Y-31373D01*
X67705Y-31374D01*
X67695Y-31378D01*
X67680Y-31380D01*
X67665Y-31378D01*
X67655Y-31373D01*
X67655Y-31373D01*
X67652Y-31365D01*
X67650Y-31349D01*
X67648Y-31329D01*
X67648Y-31325D01*
X67647Y-31304D01*
X67646Y-31292D01*
X67643Y-31286D01*
X67639Y-31285D01*
X67636Y-31286D01*
X67626Y-31287D01*
X67609Y-31288D01*
X67588Y-31288D01*
X67583Y-31288D01*
X67560Y-31287D01*
X67543Y-31285D01*
X67531Y-31281D01*
X67522Y-31276D01*
X67508Y-31266D01*
X67498Y-31253D01*
X67491Y-31237D01*
X67487Y-31215D01*
X67485Y-31186D01*
X67484Y-31157D01*
X67484Y-31408D01*
X67507Y-31408D01*
X67600Y-31408D01*
X67693Y-31409D01*
X67765Y-31409D01*
X67765Y-31141D01*
X67766Y-31109D01*
X67767Y-31085D01*
X67770Y-31068D01*
X67775Y-31055D01*
X67782Y-31046D01*
X67792Y-31039D01*
X67802Y-31034D01*
X67830Y-31025D01*
X67861Y-31023D01*
X67891Y-31028D01*
X67906Y-31034D01*
X67928Y-31045D01*
X67950Y-31034D01*
X67960Y-31029D01*
X67971Y-31026D01*
X67984Y-31025D01*
X68002Y-31024D01*
X68027Y-31024D01*
X68046Y-31024D01*
X68118Y-31026D01*
X68120Y-31152D01*
X68120Y-31192D01*
X68120Y-31222D01*
X68120Y-31245D01*
X68119Y-31261D01*
X68118Y-31272D01*
X68116Y-31279D01*
X68114Y-31283D01*
X68112Y-31284D01*
X68099Y-31290D01*
X68083Y-31290D01*
X68071Y-31285D01*
X68070Y-31284D01*
X68067Y-31277D01*
X68065Y-31261D01*
X68064Y-31235D01*
X68063Y-31200D01*
X68063Y-31198D01*
X68063Y-31161D01*
X68062Y-31133D01*
X68059Y-31113D01*
X68054Y-31100D01*
X68047Y-31090D01*
X68038Y-31084D01*
X68028Y-31081D01*
X68010Y-31079D01*
X67993Y-31080D01*
X67992Y-31080D01*
X67977Y-31084D01*
X67974Y-31182D01*
X67973Y-31219D01*
X67972Y-31247D01*
X67970Y-31266D01*
X67967Y-31279D01*
X67962Y-31286D01*
X67956Y-31289D01*
X67947Y-31290D01*
X67938Y-31289D01*
X67925Y-31286D01*
X67917Y-31283D01*
X67917Y-31283D01*
X67916Y-31277D01*
X67914Y-31262D01*
X67913Y-31240D01*
X67912Y-31213D01*
X67911Y-31191D01*
X67910Y-31158D01*
X67909Y-31134D01*
X67908Y-31117D01*
X67906Y-31106D01*
X67903Y-31098D01*
X67899Y-31093D01*
X67898Y-31092D01*
X67881Y-31081D01*
X67862Y-31077D01*
X67844Y-31081D01*
X67837Y-31085D01*
X67833Y-31089D01*
X67829Y-31094D01*
X67827Y-31101D01*
X67825Y-31112D01*
X67824Y-31128D01*
X67823Y-31152D01*
X67822Y-31184D01*
X67822Y-31189D01*
X67819Y-31283D01*
X67793Y-31283D01*
X67767Y-31283D01*
X67765Y-31182D01*
X67765Y-31141D01*
X67765Y-31409D01*
X67784Y-31409D01*
X67873Y-31408D01*
X67958Y-31408D01*
X68038Y-31408D01*
X68112Y-31408D01*
X68173Y-31408D01*
X68173Y-31162D01*
X68173Y-31157D01*
X68174Y-31121D01*
X68176Y-31093D01*
X68180Y-31073D01*
X68186Y-31058D01*
X68196Y-31047D01*
X68208Y-31038D01*
X68210Y-31036D01*
X68220Y-31032D01*
X68231Y-31029D01*
X68246Y-31027D01*
X68267Y-31026D01*
X68290Y-31026D01*
X68317Y-31026D01*
X68336Y-31027D01*
X68348Y-31029D01*
X68358Y-31032D01*
X68365Y-31036D01*
X68366Y-31037D01*
X68380Y-31050D01*
X68391Y-31065D01*
X68397Y-31084D01*
X68401Y-31109D01*
X68403Y-31138D01*
X68404Y-31182D01*
X68400Y-31217D01*
X68393Y-31243D01*
X68383Y-31262D01*
X68379Y-31266D01*
X68366Y-31277D01*
X68352Y-31284D01*
X68335Y-31288D01*
X68311Y-31289D01*
X68281Y-31289D01*
X68254Y-31288D01*
X68235Y-31286D01*
X68221Y-31282D01*
X68210Y-31277D01*
X68197Y-31268D01*
X68187Y-31257D01*
X68181Y-31243D01*
X68176Y-31223D01*
X68174Y-31197D01*
X68173Y-31162D01*
X68173Y-31408D01*
X68180Y-31408D01*
X68241Y-31407D01*
X68292Y-31407D01*
X68331Y-31407D01*
X68394Y-31406D01*
X68432Y-31405D01*
X68432Y-31184D01*
X68433Y-31164D01*
X68439Y-31152D01*
X68450Y-31145D01*
X68465Y-31144D01*
X68478Y-31145D01*
X68486Y-31152D01*
X68492Y-31164D01*
X68496Y-31186D01*
X68496Y-31187D01*
X68500Y-31204D01*
X68506Y-31216D01*
X68515Y-31224D01*
X68531Y-31228D01*
X68554Y-31230D01*
X68577Y-31230D01*
X68607Y-31230D01*
X68627Y-31228D01*
X68639Y-31225D01*
X68642Y-31223D01*
X68650Y-31214D01*
X68655Y-31200D01*
X68659Y-31180D01*
X68660Y-31153D01*
X68660Y-31117D01*
X68659Y-31089D01*
X68658Y-31053D01*
X68656Y-31027D01*
X68652Y-31008D01*
X68647Y-30996D01*
X68637Y-30988D01*
X68624Y-30985D01*
X68605Y-30983D01*
X68582Y-30982D01*
X68553Y-30982D01*
X68532Y-30984D01*
X68517Y-30989D01*
X68507Y-30998D01*
X68500Y-31013D01*
X68496Y-31025D01*
X68490Y-31042D01*
X68485Y-31052D01*
X68477Y-31056D01*
X68472Y-31057D01*
X68454Y-31057D01*
X68440Y-31050D01*
X68433Y-31039D01*
X68432Y-31024D01*
X68435Y-31004D01*
X68441Y-30983D01*
X68449Y-30964D01*
X68455Y-30955D01*
X68470Y-30942D01*
X68489Y-30932D01*
X68514Y-30925D01*
X68546Y-30922D01*
X68580Y-30921D01*
X68608Y-30921D01*
X68628Y-30922D01*
X68642Y-30924D01*
X68654Y-30927D01*
X68665Y-30932D01*
X68669Y-30934D01*
X68689Y-30947D01*
X68703Y-30964D01*
X68707Y-30971D01*
X68711Y-30980D01*
X68714Y-30988D01*
X68717Y-30999D01*
X68718Y-31013D01*
X68719Y-31032D01*
X68720Y-31057D01*
X68720Y-31091D01*
X68721Y-31102D01*
X68721Y-31143D01*
X68720Y-31176D01*
X68719Y-31201D01*
X68716Y-31220D01*
X68712Y-31234D01*
X68706Y-31246D01*
X68698Y-31256D01*
X68691Y-31263D01*
X68679Y-31273D01*
X68667Y-31280D01*
X68651Y-31285D01*
X68631Y-31288D01*
X68605Y-31290D01*
X68575Y-31290D01*
X68544Y-31290D01*
X68522Y-31289D01*
X68506Y-31287D01*
X68493Y-31284D01*
X68485Y-31281D01*
X68462Y-31265D01*
X68445Y-31243D01*
X68436Y-31212D01*
X68436Y-31212D01*
X68432Y-31184D01*
X68432Y-31405D01*
X68448Y-31405D01*
X68493Y-31405D01*
X68530Y-31404D01*
X68560Y-31403D01*
X68584Y-31403D01*
X68603Y-31402D01*
X68617Y-31401D01*
X68628Y-31399D01*
X68637Y-31398D01*
X68644Y-31396D01*
X68650Y-31394D01*
X68655Y-31392D01*
X68703Y-31366D01*
X68746Y-31331D01*
X68781Y-31290D01*
X68808Y-31243D01*
X68828Y-31190D01*
X68832Y-31173D01*
X68837Y-31143D01*
X68839Y-31119D01*
X68837Y-31095D01*
X68833Y-31066D01*
X68832Y-31063D01*
X68816Y-31010D01*
X68792Y-30962D01*
X68760Y-30921D01*
X68722Y-30887D01*
X68679Y-30860D01*
X68631Y-30842D01*
X68591Y-30834D01*
X68579Y-30834D01*
X68558Y-30833D01*
X68528Y-30832D01*
X68489Y-30832D01*
X68443Y-30831D01*
X68389Y-30831D01*
X68329Y-30831D01*
X68263Y-30830D01*
X68192Y-30830D01*
X68116Y-30830D01*
X68036Y-30829D01*
X67953Y-30829D01*
X67867Y-30829D01*
X67780Y-30829D01*
X67691Y-30829D01*
X67601Y-30829D01*
X67512Y-30829D01*
X67423Y-30829D01*
X67336Y-30829D01*
X67250Y-30829D01*
X67167Y-30829D01*
X67087Y-30830D01*
X67011Y-30830D01*
X66940Y-30830D01*
X66874Y-30831D01*
X66814Y-30831D01*
X66760Y-30832D01*
X66714Y-30832D01*
X66675Y-30833D01*
X66645Y-30833D01*
X66624Y-30834D01*
X66613Y-30834D01*
X66612Y-30835D01*
X66574Y-30843D01*
X66536Y-30857D01*
X66502Y-30874D01*
X66476Y-30893D01*
X66456Y-30909D01*
X66440Y-30919D01*
X66425Y-30923D01*
X66414Y-30924D01*
X66394Y-30921D01*
X66369Y-30913D01*
X66342Y-30903D01*
X66315Y-30890D01*
X66301Y-30882D01*
X66274Y-30860D01*
X66246Y-30833D01*
X66220Y-30801D01*
X66199Y-30770D01*
X66196Y-30763D01*
X66182Y-30728D01*
X66178Y-30696D01*
X66183Y-30668D01*
X66198Y-30643D01*
X66221Y-30624D01*
X66234Y-30617D01*
X66247Y-30612D01*
X66263Y-30609D01*
X66282Y-30609D01*
X66308Y-30611D01*
X66340Y-30616D01*
X66366Y-30620D01*
X66404Y-30625D01*
X66448Y-30629D01*
X66494Y-30632D01*
X66542Y-30634D01*
X66588Y-30634D01*
X66630Y-30634D01*
X66665Y-30632D01*
X66680Y-30630D01*
X66764Y-30614D01*
X66841Y-30589D01*
X66914Y-30555D01*
X66982Y-30512D01*
X67044Y-30460D01*
X67100Y-30399D01*
X67152Y-30329D01*
X67168Y-30303D01*
X67178Y-30291D01*
X67186Y-30289D01*
X67191Y-30296D01*
X67192Y-30314D01*
X67192Y-30315D01*
X67194Y-30335D01*
X67199Y-30352D01*
X67201Y-30358D01*
X67205Y-30368D01*
X67207Y-30377D01*
X67205Y-30388D01*
X67200Y-30406D01*
X67194Y-30434D01*
X67190Y-30467D01*
X67189Y-30503D01*
X67191Y-30537D01*
X67195Y-30568D01*
X67200Y-30587D01*
X67216Y-30618D01*
X67233Y-30638D01*
X67233Y-30501D01*
X67235Y-30460D01*
X67242Y-30426D01*
X67254Y-30401D01*
X67272Y-30383D01*
X67284Y-30376D01*
X67295Y-30372D01*
X67314Y-30369D01*
X67338Y-30364D01*
X67365Y-30360D01*
X67393Y-30357D01*
X67419Y-30354D01*
X67440Y-30352D01*
X67448Y-30352D01*
X67459Y-30347D01*
X67466Y-30335D01*
X67470Y-30318D01*
X67471Y-30300D01*
X67467Y-30284D01*
X67460Y-30273D01*
X67454Y-30268D01*
X67446Y-30265D01*
X67434Y-30264D01*
X67416Y-30263D01*
X67392Y-30263D01*
X67364Y-30263D01*
X67345Y-30264D01*
X67333Y-30267D01*
X67330Y-30270D01*
X67326Y-30278D01*
X67322Y-30294D01*
X67320Y-30305D01*
X67317Y-30321D01*
X67313Y-30330D01*
X67307Y-30335D01*
X67297Y-30337D01*
X67275Y-30340D01*
X67256Y-30337D01*
X67243Y-30331D01*
X67238Y-30324D01*
X67235Y-30298D01*
X67237Y-30270D01*
X67245Y-30243D01*
X67256Y-30219D01*
X67265Y-30209D01*
X67280Y-30196D01*
X67299Y-30187D01*
X67323Y-30181D01*
X67354Y-30177D01*
X67374Y-30176D01*
X67416Y-30175D01*
X67453Y-30177D01*
X67483Y-30182D01*
X67505Y-30189D01*
X67512Y-30193D01*
X67531Y-30213D01*
X67544Y-30239D01*
X67552Y-30274D01*
X67554Y-30297D01*
X67554Y-30334D01*
X67550Y-30364D01*
X67541Y-30387D01*
X67530Y-30405D01*
X67519Y-30415D01*
X67508Y-30423D01*
X67493Y-30430D01*
X67472Y-30435D01*
X67445Y-30439D01*
X67409Y-30443D01*
X67406Y-30444D01*
X67379Y-30447D01*
X67355Y-30450D01*
X67337Y-30452D01*
X67327Y-30454D01*
X67325Y-30454D01*
X67321Y-30460D01*
X67319Y-30476D01*
X67318Y-30496D01*
X67319Y-30517D01*
X67322Y-30532D01*
X67328Y-30542D01*
X67340Y-30548D01*
X67358Y-30550D01*
X67385Y-30551D01*
X67402Y-30550D01*
X67433Y-30549D01*
X67454Y-30546D01*
X67466Y-30542D01*
X67466Y-30542D01*
X67470Y-30533D01*
X67473Y-30518D01*
X67476Y-30498D01*
X67476Y-30497D01*
X67478Y-30459D01*
X67498Y-30454D01*
X67523Y-30452D01*
X67537Y-30454D01*
X67557Y-30459D01*
X67559Y-30493D01*
X67557Y-30533D01*
X67549Y-30567D01*
X67535Y-30594D01*
X67516Y-30615D01*
X67505Y-30621D01*
X67487Y-30627D01*
X67463Y-30633D01*
X67434Y-30637D01*
X67411Y-30640D01*
X67402Y-30639D01*
X67386Y-30638D01*
X67364Y-30636D01*
X67351Y-30635D01*
X67321Y-30631D01*
X67299Y-30626D01*
X67283Y-30619D01*
X67270Y-30610D01*
X67262Y-30603D01*
X67248Y-30583D01*
X67239Y-30559D01*
X67234Y-30528D01*
X67233Y-30501D01*
X67233Y-30638D01*
X67239Y-30644D01*
X67267Y-30663D01*
X67282Y-30669D01*
X67308Y-30674D01*
X67341Y-30678D01*
X67377Y-30681D01*
X67414Y-30681D01*
X67448Y-30679D01*
X67462Y-30677D01*
X67485Y-30674D01*
X67503Y-30670D01*
X67519Y-30663D01*
X67537Y-30654D01*
X67549Y-30648D01*
X67560Y-30642D01*
X67566Y-30641D01*
X67569Y-30645D01*
X67575Y-30654D01*
X67584Y-30665D01*
X67586Y-30668D01*
X67593Y-30674D01*
X67600Y-30678D01*
X67609Y-30680D01*
X67615Y-30681D01*
X67615Y-30442D01*
X67615Y-30407D01*
X67615Y-30349D01*
X67615Y-30300D01*
X67616Y-30261D01*
X67616Y-30230D01*
X67617Y-30207D01*
X67618Y-30191D01*
X67620Y-30181D01*
X67621Y-30178D01*
X67630Y-30174D01*
X67647Y-30170D01*
X67665Y-30169D01*
X67683Y-30169D01*
X67693Y-30170D01*
X67707Y-30174D01*
X67707Y-30256D01*
X67707Y-30285D01*
X67708Y-30310D01*
X67709Y-30330D01*
X67710Y-30342D01*
X67711Y-30345D01*
X67716Y-30348D01*
X67726Y-30350D01*
X67744Y-30351D01*
X67771Y-30351D01*
X67788Y-30351D01*
X67861Y-30349D01*
X67863Y-30265D01*
X67863Y-30233D01*
X67864Y-30210D01*
X67866Y-30194D01*
X67868Y-30183D01*
X67870Y-30177D01*
X67873Y-30175D01*
X67883Y-30171D01*
X67900Y-30169D01*
X67919Y-30168D01*
X67936Y-30170D01*
X67949Y-30172D01*
X67952Y-30174D01*
X67954Y-30179D01*
X67955Y-30189D01*
X67956Y-30206D01*
X67957Y-30230D01*
X67958Y-30262D01*
X67958Y-30302D01*
X67958Y-30352D01*
X67958Y-30405D01*
X67958Y-30461D01*
X67959Y-30507D01*
X67958Y-30545D01*
X67958Y-30575D01*
X67957Y-30597D01*
X67955Y-30614D01*
X67952Y-30626D01*
X67948Y-30634D01*
X67943Y-30638D01*
X67936Y-30640D01*
X67927Y-30640D01*
X67917Y-30640D01*
X67910Y-30640D01*
X67888Y-30639D01*
X67874Y-30634D01*
X67872Y-30632D01*
X67869Y-30627D01*
X67867Y-30619D01*
X67865Y-30606D01*
X67864Y-30586D01*
X67864Y-30559D01*
X67864Y-30538D01*
X67864Y-30506D01*
X67863Y-30482D01*
X67862Y-30467D01*
X67861Y-30457D01*
X67858Y-30451D01*
X67856Y-30449D01*
X67845Y-30447D01*
X67828Y-30446D01*
X67806Y-30446D01*
X67781Y-30446D01*
X67758Y-30447D01*
X67737Y-30448D01*
X67721Y-30450D01*
X67713Y-30452D01*
X67713Y-30452D01*
X67710Y-30459D01*
X67708Y-30475D01*
X67707Y-30499D01*
X67707Y-30533D01*
X67707Y-30546D01*
X67706Y-30579D01*
X67706Y-30603D01*
X67705Y-30619D01*
X67704Y-30629D01*
X67701Y-30635D01*
X67698Y-30637D01*
X67687Y-30639D01*
X67669Y-30640D01*
X67650Y-30640D01*
X67634Y-30638D01*
X67623Y-30635D01*
X67623Y-30635D01*
X67621Y-30633D01*
X67619Y-30628D01*
X67618Y-30619D01*
X67617Y-30606D01*
X67616Y-30588D01*
X67615Y-30563D01*
X67615Y-30531D01*
X67615Y-30491D01*
X67615Y-30442D01*
X67615Y-30681D01*
X67622Y-30682D01*
X67642Y-30682D01*
X67661Y-30682D01*
X67688Y-30682D01*
X67706Y-30681D01*
X67718Y-30680D01*
X67726Y-30677D01*
X67733Y-30672D01*
X67736Y-30670D01*
X67751Y-30657D01*
X67753Y-30579D01*
X67754Y-30543D01*
X67756Y-30518D01*
X67758Y-30502D01*
X67761Y-30497D01*
X67772Y-30494D01*
X67787Y-30493D01*
X67803Y-30495D01*
X67814Y-30498D01*
X67816Y-30500D01*
X67819Y-30508D01*
X67821Y-30526D01*
X67822Y-30554D01*
X67822Y-30575D01*
X67822Y-30604D01*
X67824Y-30629D01*
X67826Y-30647D01*
X67828Y-30658D01*
X67834Y-30668D01*
X67844Y-30675D01*
X67860Y-30679D01*
X67882Y-30681D01*
X67913Y-30682D01*
X67917Y-30682D01*
X67975Y-30682D01*
X67993Y-30663D01*
X68010Y-30644D01*
X68021Y-30651D01*
X68021Y-30481D01*
X68021Y-30470D01*
X68022Y-30431D01*
X68022Y-30401D01*
X68024Y-30378D01*
X68027Y-30361D01*
X68032Y-30348D01*
X68039Y-30337D01*
X68048Y-30327D01*
X68051Y-30325D01*
X68066Y-30314D01*
X68085Y-30306D01*
X68087Y-30305D01*
X68105Y-30302D01*
X68129Y-30300D01*
X68156Y-30299D01*
X68183Y-30300D01*
X68207Y-30302D01*
X68224Y-30304D01*
X68227Y-30305D01*
X68250Y-30318D01*
X68270Y-30337D01*
X68282Y-30355D01*
X68285Y-30368D01*
X68287Y-30388D01*
X68288Y-30415D01*
X68289Y-30446D01*
X68289Y-30478D01*
X68289Y-30510D01*
X68288Y-30539D01*
X68286Y-30562D01*
X68283Y-30579D01*
X68282Y-30584D01*
X68266Y-30608D01*
X68242Y-30626D01*
X68228Y-30633D01*
X68211Y-30636D01*
X68188Y-30639D01*
X68160Y-30640D01*
X68133Y-30640D01*
X68107Y-30638D01*
X68088Y-30636D01*
X68084Y-30634D01*
X68067Y-30626D01*
X68052Y-30615D01*
X68051Y-30615D01*
X68041Y-30605D01*
X68034Y-30595D01*
X68029Y-30582D01*
X68025Y-30566D01*
X68023Y-30545D01*
X68022Y-30517D01*
X68021Y-30481D01*
X68021Y-30651D01*
X68030Y-30657D01*
X68047Y-30667D01*
X68063Y-30673D01*
X68081Y-30678D01*
X68103Y-30681D01*
X68131Y-30682D01*
X68158Y-30682D01*
X68187Y-30682D01*
X68208Y-30682D01*
X68223Y-30680D01*
X68235Y-30678D01*
X68246Y-30673D01*
X68259Y-30668D01*
X68261Y-30667D01*
X68277Y-30659D01*
X68290Y-30653D01*
X68296Y-30651D01*
X68302Y-30654D01*
X68312Y-30663D01*
X68315Y-30667D01*
X68331Y-30683D01*
X68346Y-30682D01*
X68346Y-30412D01*
X68348Y-30314D01*
X68348Y-30279D01*
X68349Y-30253D01*
X68350Y-30235D01*
X68352Y-30222D01*
X68354Y-30212D01*
X68357Y-30206D01*
X68360Y-30201D01*
X68368Y-30191D01*
X68376Y-30184D01*
X68386Y-30178D01*
X68399Y-30174D01*
X68416Y-30171D01*
X68440Y-30169D01*
X68470Y-30168D01*
X68509Y-30168D01*
X68533Y-30168D01*
X68577Y-30168D01*
X68611Y-30169D01*
X68636Y-30170D01*
X68653Y-30171D01*
X68663Y-30173D01*
X68665Y-30174D01*
X68667Y-30179D01*
X68669Y-30189D01*
X68670Y-30206D01*
X68670Y-30230D01*
X68671Y-30262D01*
X68672Y-30302D01*
X68672Y-30352D01*
X68672Y-30405D01*
X68672Y-30461D01*
X68672Y-30507D01*
X68672Y-30545D01*
X68671Y-30575D01*
X68670Y-30597D01*
X68668Y-30614D01*
X68665Y-30626D01*
X68662Y-30634D01*
X68656Y-30638D01*
X68650Y-30640D01*
X68642Y-30640D01*
X68632Y-30640D01*
X68626Y-30640D01*
X68608Y-30639D01*
X68593Y-30637D01*
X68588Y-30635D01*
X68583Y-30632D01*
X68580Y-30626D01*
X68579Y-30617D01*
X68578Y-30601D01*
X68577Y-30578D01*
X68577Y-30565D01*
X68577Y-30532D01*
X68575Y-30509D01*
X68572Y-30496D01*
X68571Y-30494D01*
X68562Y-30491D01*
X68543Y-30489D01*
X68516Y-30488D01*
X68512Y-30488D01*
X68483Y-30489D01*
X68463Y-30491D01*
X68453Y-30494D01*
X68453Y-30494D01*
X68449Y-30503D01*
X68447Y-30522D01*
X68446Y-30552D01*
X68446Y-30565D01*
X68446Y-30594D01*
X68445Y-30615D01*
X68441Y-30628D01*
X68434Y-30636D01*
X68423Y-30639D01*
X68407Y-30640D01*
X68396Y-30640D01*
X68378Y-30640D01*
X68365Y-30638D01*
X68356Y-30634D01*
X68351Y-30625D01*
X68348Y-30610D01*
X68347Y-30588D01*
X68347Y-30557D01*
X68347Y-30554D01*
X68347Y-30524D01*
X68347Y-30503D01*
X68348Y-30488D01*
X68350Y-30479D01*
X68353Y-30471D01*
X68358Y-30465D01*
X68360Y-30463D01*
X68368Y-30452D01*
X68373Y-30446D01*
X68373Y-30445D01*
X68370Y-30440D01*
X68362Y-30430D01*
X68360Y-30427D01*
X68346Y-30412D01*
X68346Y-30682D01*
X68399Y-30681D01*
X68432Y-30680D01*
X68455Y-30678D01*
X68471Y-30673D01*
X68481Y-30665D01*
X68486Y-30651D01*
X68488Y-30631D01*
X68488Y-30603D01*
X68488Y-30597D01*
X68488Y-30572D01*
X68489Y-30556D01*
X68490Y-30545D01*
X68493Y-30540D01*
X68498Y-30536D01*
X68501Y-30534D01*
X68512Y-30531D01*
X68520Y-30533D01*
X68525Y-30541D01*
X68528Y-30556D01*
X68530Y-30581D01*
X68531Y-30598D01*
X68532Y-30624D01*
X68533Y-30642D01*
X68536Y-30653D01*
X68539Y-30661D01*
X68545Y-30668D01*
X68545Y-30668D01*
X68550Y-30673D01*
X68557Y-30676D01*
X68566Y-30678D01*
X68580Y-30679D01*
X68601Y-30679D01*
X68625Y-30680D01*
X68653Y-30679D01*
X68673Y-30679D01*
X68686Y-30678D01*
X68694Y-30676D01*
X68699Y-30672D01*
X68704Y-30667D01*
X68706Y-30664D01*
X68708Y-30660D01*
X68710Y-30654D01*
X68711Y-30645D01*
X68712Y-30632D01*
X68712Y-30615D01*
X68713Y-30592D01*
X68713Y-30563D01*
X68714Y-30527D01*
X68714Y-30482D01*
X68714Y-30428D01*
X68714Y-30404D01*
X68714Y-30343D01*
X68714Y-30292D01*
X68714Y-30250D01*
X68713Y-30216D01*
X68712Y-30189D01*
X68710Y-30168D01*
X68707Y-30153D01*
X68703Y-30142D01*
X68698Y-30135D01*
X68691Y-30130D01*
X68683Y-30128D01*
X68672Y-30127D01*
X68660Y-30126D01*
X68653Y-30125D01*
X68624Y-30123D01*
X68589Y-30122D01*
X68549Y-30122D01*
X68509Y-30122D01*
X68471Y-30123D01*
X68437Y-30124D01*
X68413Y-30126D01*
X68377Y-30133D01*
X68348Y-30147D01*
X68327Y-30169D01*
X68312Y-30198D01*
X68303Y-30236D01*
X68301Y-30251D01*
X68299Y-30270D01*
X68297Y-30283D01*
X68295Y-30289D01*
X68295Y-30289D01*
X68290Y-30287D01*
X68277Y-30281D01*
X68261Y-30273D01*
X68258Y-30272D01*
X68241Y-30264D01*
X68227Y-30259D01*
X68213Y-30256D01*
X68194Y-30255D01*
X68171Y-30255D01*
X68130Y-30255D01*
X68098Y-30258D01*
X68073Y-30262D01*
X68052Y-30269D01*
X68036Y-30278D01*
X68023Y-30287D01*
X68013Y-30293D01*
X68010Y-30294D01*
X68009Y-30289D01*
X68007Y-30276D01*
X68006Y-30256D01*
X68005Y-30231D01*
X68004Y-30226D01*
X68003Y-30191D01*
X68000Y-30165D01*
X67994Y-30146D01*
X67984Y-30134D01*
X67969Y-30128D01*
X67948Y-30124D01*
X67919Y-30124D01*
X67911Y-30124D01*
X67881Y-30124D01*
X67859Y-30127D01*
X67843Y-30133D01*
X67832Y-30143D01*
X67826Y-30159D01*
X67823Y-30183D01*
X67822Y-30215D01*
X67822Y-30231D01*
X67822Y-30259D01*
X67821Y-30278D01*
X67820Y-30291D01*
X67818Y-30298D01*
X67815Y-30302D01*
X67812Y-30304D01*
X67799Y-30309D01*
X67788Y-30310D01*
X67775Y-30309D01*
X67765Y-30306D01*
X67759Y-30299D01*
X67756Y-30287D01*
X67754Y-30268D01*
X67754Y-30240D01*
X67754Y-30233D01*
X67753Y-30196D01*
X67750Y-30169D01*
X67746Y-30149D01*
X67739Y-30137D01*
X67729Y-30129D01*
X67727Y-30129D01*
X67717Y-30127D01*
X67699Y-30126D01*
X67676Y-30125D01*
X67657Y-30125D01*
X67631Y-30125D01*
X67615Y-30126D01*
X67603Y-30128D01*
X67596Y-30131D01*
X67590Y-30136D01*
X67586Y-30141D01*
X67576Y-30153D01*
X67568Y-30165D01*
X67567Y-30166D01*
X67563Y-30171D01*
X67558Y-30171D01*
X67549Y-30166D01*
X67543Y-30161D01*
X67525Y-30150D01*
X67505Y-30141D01*
X67499Y-30139D01*
X67479Y-30135D01*
X67453Y-30133D01*
X67421Y-30131D01*
X67387Y-30132D01*
X67355Y-30133D01*
X67326Y-30135D01*
X67303Y-30139D01*
X67302Y-30139D01*
X67285Y-30143D01*
X67271Y-30145D01*
X67266Y-30144D01*
X67267Y-30139D01*
X67272Y-30126D01*
X67280Y-30106D01*
X67292Y-30081D01*
X67305Y-30052D01*
X67311Y-30041D01*
X67329Y-30004D01*
X67349Y-29962D01*
X67369Y-29919D01*
X67387Y-29879D01*
X67400Y-29851D01*
X67415Y-29813D01*
X67431Y-29773D01*
X67446Y-29733D01*
X67461Y-29693D01*
X67474Y-29655D01*
X67486Y-29620D01*
X67496Y-29589D01*
X67504Y-29563D01*
X67508Y-29544D01*
X67509Y-29533D01*
X67509Y-29531D01*
X67504Y-29534D01*
X67494Y-29543D01*
X67479Y-29556D01*
X67461Y-29574D01*
X67455Y-29580D01*
X67394Y-29637D01*
X67330Y-29685D01*
X67264Y-29723D01*
X67197Y-29751D01*
X67166Y-29760D01*
X67155Y-29763D01*
X67145Y-29765D01*
X67134Y-29767D01*
X67122Y-29769D01*
X67107Y-29770D01*
X67089Y-29770D01*
X67066Y-29771D01*
X67037Y-29771D01*
X67001Y-29771D01*
X66957Y-29771D01*
X66903Y-29770D01*
X66899Y-29770D01*
X66827Y-29770D01*
X66765Y-29770D01*
X66711Y-29771D01*
X66665Y-29773D01*
X66625Y-29775D01*
X66590Y-29779D01*
X66560Y-29784D01*
X66534Y-29790D01*
X66509Y-29797D01*
X66486Y-29806D01*
X66464Y-29817D01*
X66457Y-29821D01*
X66414Y-29848D01*
X66374Y-29886D01*
X66337Y-29934D01*
X66303Y-29991D01*
X66272Y-30057D01*
X66244Y-30132D01*
X66219Y-30216D01*
X66219Y-30218D01*
X66212Y-30248D01*
X66204Y-30280D01*
X66198Y-30312D01*
X66191Y-30343D01*
X66186Y-30371D01*
X66183Y-30394D01*
X66181Y-30409D01*
X66181Y-30416D01*
X66185Y-30415D01*
X66192Y-30406D01*
X66203Y-30392D01*
X66209Y-30383D01*
X66251Y-30322D01*
X66293Y-30270D01*
X66338Y-30224D01*
X66386Y-30184D01*
X66441Y-30146D01*
X66474Y-30126D01*
X66513Y-30105D01*
X66549Y-30087D01*
X66585Y-30073D01*
X66622Y-30062D01*
X66663Y-30053D01*
X66710Y-30046D01*
X66760Y-30039D01*
X66845Y-30028D01*
X66922Y-30013D01*
X66991Y-29995D01*
X67055Y-29973D01*
X67114Y-29947D01*
X67171Y-29916D01*
X67188Y-29905D01*
X67206Y-29894D01*
X67220Y-29885D01*
X67229Y-29880D01*
X67231Y-29880D01*
X67235Y-29883D01*
X67233Y-29891D01*
X67224Y-29904D01*
X67211Y-29919D01*
X67196Y-29935D01*
X67177Y-29951D01*
X67165Y-29960D01*
X67121Y-29988D01*
X67075Y-30011D01*
X67022Y-30030D01*
X66963Y-30047D01*
X66935Y-30053D01*
X66868Y-30067D01*
X66809Y-30081D01*
X66759Y-30093D01*
X66714Y-30104D01*
X66675Y-30116D01*
X66640Y-30127D01*
X66607Y-30139D01*
X66575Y-30152D01*
X66543Y-30166D01*
X66527Y-30174D01*
X66445Y-30218D01*
X66372Y-30268D01*
X66308Y-30323D01*
X66252Y-30385D01*
X66206Y-30452D01*
X66167Y-30525D01*
X66144Y-30587D01*
X66131Y-30630D01*
X66126Y-30667D01*
X66127Y-30703D01*
X66135Y-30740D01*
X66150Y-30780D01*
X66154Y-30791D01*
X66161Y-30806D01*
X66163Y-30816D01*
X66162Y-30824D01*
X66157Y-30831D01*
X66138Y-30851D01*
X66114Y-30863D01*
X66089Y-30866D01*
X66065Y-30862D01*
X66047Y-30850D01*
X66035Y-30830D01*
X66031Y-30809D01*
X66030Y-30793D01*
X66030Y-30769D01*
X66031Y-30739D01*
X66034Y-30705D01*
X66037Y-30669D01*
X66040Y-30635D01*
X66041Y-30631D01*
X66041Y-30617D01*
X66039Y-30598D01*
X66037Y-30584D01*
X66025Y-30548D01*
X66005Y-30512D01*
X65976Y-30475D01*
X65938Y-30437D01*
X65890Y-30398D01*
X65833Y-30358D01*
X65766Y-30316D01*
X65734Y-30298D01*
X65709Y-30284D01*
X65681Y-30269D01*
X65651Y-30253D01*
X65622Y-30238D01*
X65594Y-30224D01*
X65569Y-30211D01*
X65549Y-30202D01*
X65535Y-30196D01*
X65530Y-30194D01*
X65530Y-30194D01*
X65530Y-30194D01*
G37*
G36*
X64265Y-31317D02*
X64391Y-31317D01*
X64517Y-31317D01*
X64517Y-31291D01*
X64517Y-31275D01*
X64514Y-31267D01*
X64509Y-31265D01*
X64507Y-31264D01*
X64502Y-31264D01*
X64501Y-31260D01*
X64504Y-31251D01*
X64510Y-31240D01*
X64520Y-31211D01*
X64521Y-31184D01*
X64511Y-31156D01*
X64511Y-31154D01*
X64497Y-31134D01*
X64478Y-31120D01*
X64475Y-31119D01*
X64466Y-31115D01*
X64457Y-31111D01*
X64446Y-31109D01*
X64431Y-31108D01*
X64410Y-31107D01*
X64382Y-31107D01*
X64359Y-31107D01*
X64265Y-31107D01*
X64265Y-31133D01*
X64265Y-31159D01*
X64355Y-31161D01*
X64445Y-31162D01*
X64457Y-31177D01*
X64467Y-31195D01*
X64470Y-31215D01*
X64466Y-31234D01*
X64459Y-31244D01*
X64450Y-31251D01*
X64440Y-31257D01*
X64426Y-31261D01*
X64408Y-31263D01*
X64382Y-31264D01*
X64348Y-31264D01*
X64344Y-31264D01*
X64265Y-31264D01*
X64265Y-31291D01*
X64265Y-31317D01*
X64265Y-31317D01*
X64265Y-31317D01*
G37*
G36*
X64672Y-31146D02*
X64673Y-31176D01*
X64676Y-31198D01*
X64682Y-31214D01*
X64691Y-31227D01*
X64706Y-31237D01*
X64708Y-31238D01*
X64714Y-31242D01*
X64722Y-31245D01*
X64733Y-31246D01*
X64748Y-31248D01*
X64770Y-31248D01*
X64799Y-31249D01*
X64815Y-31249D01*
X64815Y-31196D01*
X64817Y-31155D01*
X64820Y-31126D01*
X64826Y-31106D01*
X64836Y-31095D01*
X64850Y-31091D01*
X64864Y-31096D01*
X64875Y-31108D01*
X64882Y-31126D01*
X64884Y-31147D01*
X64881Y-31167D01*
X64876Y-31179D01*
X64870Y-31189D01*
X64862Y-31194D01*
X64850Y-31196D01*
X64841Y-31196D01*
X64815Y-31196D01*
X64815Y-31249D01*
X64825Y-31249D01*
X64926Y-31249D01*
X64926Y-31223D01*
X64925Y-31206D01*
X64923Y-31198D01*
X64918Y-31196D01*
X64914Y-31195D01*
X64915Y-31190D01*
X64920Y-31182D01*
X64926Y-31166D01*
X64929Y-31143D01*
X64928Y-31119D01*
X64925Y-31096D01*
X64919Y-31082D01*
X64903Y-31062D01*
X64881Y-31049D01*
X64856Y-31044D01*
X64831Y-31047D01*
X64810Y-31056D01*
X64797Y-31066D01*
X64788Y-31078D01*
X64783Y-31094D01*
X64780Y-31115D01*
X64780Y-31144D01*
X64780Y-31145D01*
X64779Y-31196D01*
X64756Y-31196D01*
X64739Y-31195D01*
X64729Y-31190D01*
X64725Y-31185D01*
X64719Y-31169D01*
X64717Y-31149D01*
X64719Y-31127D01*
X64724Y-31109D01*
X64725Y-31107D01*
X64730Y-31097D01*
X64730Y-31090D01*
X64724Y-31080D01*
X64721Y-31076D01*
X64710Y-31064D01*
X64700Y-31062D01*
X64689Y-31070D01*
X64683Y-31077D01*
X64678Y-31086D01*
X64675Y-31095D01*
X64673Y-31109D01*
X64672Y-31129D01*
X64672Y-31146D01*
X64672Y-31146D01*
X64672Y-31146D01*
G37*
G36*
X64260Y-30946D02*
X64262Y-30978D01*
X64271Y-31007D01*
X64289Y-31032D01*
X64311Y-31048D01*
X64311Y-30967D01*
X64312Y-30947D01*
X64320Y-30928D01*
X64334Y-30914D01*
X64341Y-30910D01*
X64361Y-30905D01*
X64387Y-30903D01*
X64412Y-30904D01*
X64434Y-30908D01*
X64441Y-30911D01*
X64459Y-30924D01*
X64468Y-30942D01*
X64471Y-30961D01*
X64465Y-30981D01*
X64452Y-30998D01*
X64436Y-31008D01*
X64423Y-31011D01*
X64403Y-31012D01*
X64380Y-31011D01*
X64358Y-31008D01*
X64340Y-31004D01*
X64332Y-31001D01*
X64318Y-30986D01*
X64311Y-30967D01*
X64311Y-31048D01*
X64314Y-31050D01*
X64320Y-31054D01*
X64335Y-31058D01*
X64358Y-31061D01*
X64384Y-31063D01*
X64410Y-31063D01*
X64434Y-31062D01*
X64448Y-31059D01*
X64474Y-31048D01*
X64496Y-31029D01*
X64512Y-31004D01*
X64521Y-30976D01*
X64522Y-30945D01*
X64515Y-30915D01*
X64513Y-30910D01*
X64495Y-30884D01*
X64471Y-30866D01*
X64438Y-30855D01*
X64398Y-30851D01*
X64373Y-30851D01*
X64335Y-30857D01*
X64306Y-30869D01*
X64284Y-30887D01*
X64269Y-30912D01*
X64268Y-30914D01*
X64260Y-30946D01*
X64260Y-30946D01*
X64260Y-30946D01*
G37*
G36*
X64669Y-31011D02*
X64670Y-31026D01*
X64672Y-31036D01*
X64673Y-31038D01*
X64679Y-31037D01*
X64693Y-31032D01*
X64715Y-31025D01*
X64743Y-31016D01*
X64774Y-31006D01*
X64800Y-30998D01*
X64924Y-30957D01*
X64925Y-30933D01*
X64927Y-30909D01*
X64891Y-30898D01*
X64870Y-30892D01*
X64843Y-30884D01*
X64815Y-30876D01*
X64804Y-30873D01*
X64783Y-30866D01*
X64766Y-30861D01*
X64756Y-30857D01*
X64753Y-30855D01*
X64758Y-30853D01*
X64771Y-30848D01*
X64789Y-30843D01*
X64804Y-30838D01*
X64831Y-30830D01*
X64859Y-30822D01*
X64883Y-30815D01*
X64891Y-30812D01*
X64927Y-30802D01*
X64925Y-30778D01*
X64924Y-30753D01*
X64821Y-30720D01*
X64789Y-30710D01*
X64758Y-30700D01*
X64730Y-30691D01*
X64709Y-30684D01*
X64695Y-30680D01*
X64694Y-30680D01*
X64669Y-30672D01*
X64669Y-30700D01*
X64669Y-30727D01*
X64755Y-30750D01*
X64783Y-30758D01*
X64808Y-30765D01*
X64828Y-30771D01*
X64840Y-30775D01*
X64844Y-30776D01*
X64840Y-30779D01*
X64829Y-30784D01*
X64809Y-30791D01*
X64785Y-30800D01*
X64759Y-30808D01*
X64669Y-30836D01*
X64669Y-30855D01*
X64669Y-30874D01*
X64759Y-30902D01*
X64787Y-30912D01*
X64811Y-30920D01*
X64830Y-30927D01*
X64841Y-30932D01*
X64844Y-30934D01*
X64838Y-30937D01*
X64823Y-30941D01*
X64802Y-30948D01*
X64776Y-30955D01*
X64755Y-30961D01*
X64669Y-30984D01*
X64669Y-31011D01*
X64669Y-31011D01*
X64669Y-31011D01*
G37*
G36*
X43513Y-31018D02*
X43543Y-31017D01*
X43561Y-31016D01*
X43586Y-31015D01*
X43614Y-31012D01*
X43634Y-31010D01*
X43755Y-30992D01*
X43874Y-30965D01*
X43990Y-30929D01*
X44102Y-30885D01*
X44212Y-30833D01*
X44316Y-30774D01*
X44416Y-30708D01*
X44510Y-30635D01*
X44599Y-30557D01*
X44681Y-30473D01*
X44756Y-30383D01*
X44823Y-30289D01*
X44882Y-30191D01*
X44932Y-30089D01*
X44974Y-29983D01*
X44998Y-29904D01*
X45019Y-29808D01*
X45031Y-29710D01*
X45034Y-29611D01*
X45029Y-29514D01*
X45016Y-29420D01*
X45005Y-29375D01*
X44982Y-29298D01*
X44950Y-29220D01*
X44912Y-29145D01*
X44868Y-29074D01*
X44819Y-29011D01*
X44812Y-29003D01*
X44801Y-28990D01*
X44796Y-28985D01*
X44794Y-28987D01*
X44796Y-28994D01*
X44796Y-28996D01*
X44806Y-29045D01*
X44814Y-29088D01*
X44819Y-29126D01*
X44822Y-29164D01*
X44824Y-29203D01*
X44825Y-29245D01*
X44819Y-29349D01*
X44804Y-29453D01*
X44778Y-29556D01*
X44743Y-29659D01*
X44699Y-29759D01*
X44647Y-29857D01*
X44585Y-29951D01*
X44515Y-30042D01*
X44438Y-30129D01*
X44353Y-30212D01*
X44260Y-30289D01*
X44211Y-30325D01*
X44116Y-30388D01*
X44016Y-30445D01*
X43912Y-30496D01*
X43806Y-30540D01*
X43699Y-30575D01*
X43595Y-30602D01*
X43576Y-30606D01*
X43555Y-30610D01*
X43536Y-30614D01*
X43524Y-30617D01*
X43522Y-30617D01*
X43520Y-30619D01*
X43518Y-30622D01*
X43516Y-30627D01*
X43515Y-30637D01*
X43514Y-30651D01*
X43514Y-30670D01*
X43513Y-30697D01*
X43513Y-30731D01*
X43513Y-30773D01*
X43513Y-30819D01*
X43513Y-31018D01*
X43513Y-31018D01*
X43513Y-31018D01*
G37*
G36*
X64261Y-30726D02*
X64265Y-30757D01*
X64274Y-30783D01*
X64275Y-30785D01*
X64283Y-30799D01*
X64289Y-30809D01*
X64291Y-30811D01*
X64298Y-30809D01*
X64309Y-30802D01*
X64313Y-30799D01*
X64329Y-30784D01*
X64318Y-30761D01*
X64311Y-30739D01*
X64308Y-30717D01*
X64309Y-30697D01*
X64314Y-30682D01*
X64316Y-30680D01*
X64327Y-30674D01*
X64339Y-30672D01*
X64349Y-30674D01*
X64356Y-30682D01*
X64362Y-30696D01*
X64365Y-30719D01*
X64367Y-30737D01*
X64372Y-30769D01*
X64382Y-30792D01*
X64397Y-30808D01*
X64418Y-30817D01*
X64431Y-30820D01*
X64447Y-30821D01*
X64459Y-30820D01*
X64482Y-30811D01*
X64501Y-30792D01*
X64508Y-30780D01*
X64514Y-30766D01*
X64518Y-30750D01*
X64519Y-30730D01*
X64520Y-30714D01*
X64519Y-30690D01*
X64517Y-30672D01*
X64513Y-30658D01*
X64506Y-30642D01*
X64494Y-30622D01*
X64485Y-30610D01*
X64476Y-30606D01*
X64467Y-30610D01*
X64458Y-30618D01*
X64448Y-30629D01*
X64445Y-30637D01*
X64447Y-30644D01*
X64448Y-30644D01*
X64461Y-30666D01*
X64471Y-30690D01*
X64475Y-30712D01*
X64475Y-30715D01*
X64472Y-30738D01*
X64465Y-30755D01*
X64454Y-30766D01*
X64442Y-30770D01*
X64431Y-30768D01*
X64421Y-30757D01*
X64416Y-30739D01*
X64415Y-30736D01*
X64411Y-30704D01*
X64407Y-30681D01*
X64402Y-30663D01*
X64396Y-30651D01*
X64388Y-30640D01*
X64383Y-30636D01*
X64371Y-30626D01*
X64362Y-30621D01*
X64349Y-30620D01*
X64333Y-30620D01*
X64307Y-30625D01*
X64289Y-30635D01*
X64275Y-30654D01*
X64267Y-30670D01*
X64262Y-30696D01*
X64261Y-30726D01*
X64261Y-30726D01*
X64261Y-30726D01*
G37*
G36*
X64564Y-30645D02*
X64718Y-30645D01*
X64718Y-30535D01*
X64719Y-30533D01*
X64726Y-30515D01*
X64740Y-30502D01*
X64763Y-30493D01*
X64767Y-30493D01*
X64797Y-30489D01*
X64824Y-30491D01*
X64848Y-30497D01*
X64865Y-30507D01*
X64866Y-30508D01*
X64877Y-30527D01*
X64880Y-30547D01*
X64873Y-30566D01*
X64860Y-30581D01*
X64851Y-30585D01*
X64832Y-30590D01*
X64808Y-30592D01*
X64782Y-30592D01*
X64760Y-30588D01*
X64751Y-30586D01*
X64731Y-30573D01*
X64720Y-30556D01*
X64718Y-30535D01*
X64718Y-30645D01*
X64745Y-30645D01*
X64926Y-30645D01*
X64926Y-30619D01*
X64926Y-30603D01*
X64923Y-30596D01*
X64918Y-30593D01*
X64916Y-30593D01*
X64910Y-30592D01*
X64909Y-30589D01*
X64913Y-30581D01*
X64917Y-30573D01*
X64926Y-30553D01*
X64929Y-30528D01*
X64929Y-30524D01*
X64926Y-30498D01*
X64917Y-30477D01*
X64899Y-30460D01*
X64890Y-30453D01*
X64882Y-30448D01*
X64874Y-30445D01*
X64863Y-30443D01*
X64847Y-30442D01*
X64825Y-30441D01*
X64801Y-30441D01*
X64766Y-30442D01*
X64739Y-30444D01*
X64719Y-30448D01*
X64704Y-30454D01*
X64692Y-30463D01*
X64683Y-30474D01*
X64675Y-30492D01*
X64671Y-30515D01*
X64672Y-30540D01*
X64677Y-30563D01*
X64684Y-30577D01*
X64696Y-30593D01*
X64630Y-30593D01*
X64564Y-30593D01*
X64564Y-30619D01*
X64564Y-30645D01*
X64564Y-30645D01*
X64564Y-30645D01*
G37*
G36*
X64260Y-30385D02*
X64269Y-30412D01*
X64286Y-30435D01*
X64297Y-30444D01*
X64309Y-30451D01*
X64324Y-30456D01*
X64344Y-30459D01*
X64370Y-30461D01*
X64404Y-30462D01*
X64429Y-30462D01*
X64517Y-30462D01*
X64517Y-30436D01*
X64517Y-30410D01*
X64431Y-30408D01*
X64398Y-30408D01*
X64375Y-30407D01*
X64358Y-30405D01*
X64346Y-30403D01*
X64338Y-30401D01*
X64332Y-30397D01*
X64330Y-30396D01*
X64319Y-30384D01*
X64312Y-30371D01*
X64312Y-30371D01*
X64311Y-30349D01*
X64320Y-30329D01*
X64330Y-30318D01*
X64337Y-30314D01*
X64344Y-30311D01*
X64355Y-30309D01*
X64371Y-30307D01*
X64393Y-30306D01*
X64424Y-30306D01*
X64431Y-30305D01*
X64517Y-30304D01*
X64517Y-30278D01*
X64517Y-30252D01*
X64391Y-30252D01*
X64265Y-30252D01*
X64265Y-30278D01*
X64266Y-30294D01*
X64268Y-30302D01*
X64273Y-30304D01*
X64276Y-30304D01*
X64281Y-30305D01*
X64282Y-30309D01*
X64278Y-30317D01*
X64273Y-30327D01*
X64262Y-30356D01*
X64260Y-30385D01*
X64260Y-30385D01*
X64260Y-30385D01*
G37*
G36*
X64669Y-30380D02*
X64671Y-30405D01*
X64676Y-30419D01*
X64683Y-30430D01*
X64690Y-30433D01*
X64700Y-30428D01*
X64713Y-30417D01*
X64724Y-30406D01*
X64729Y-30399D01*
X64728Y-30392D01*
X64724Y-30386D01*
X64718Y-30368D01*
X64722Y-30350D01*
X64734Y-30332D01*
X64738Y-30328D01*
X64744Y-30323D01*
X64751Y-30320D01*
X64759Y-30318D01*
X64770Y-30316D01*
X64788Y-30315D01*
X64812Y-30315D01*
X64840Y-30315D01*
X64926Y-30315D01*
X64926Y-30289D01*
X64926Y-30263D01*
X64798Y-30263D01*
X64669Y-30263D01*
X64669Y-30289D01*
X64670Y-30304D01*
X64672Y-30312D01*
X64677Y-30315D01*
X64682Y-30315D01*
X64695Y-30315D01*
X64682Y-30334D01*
X64673Y-30355D01*
X64669Y-30380D01*
X64669Y-30380D01*
X64669Y-30380D01*
G37*
G36*
X48073Y-29068D02*
X48076Y-29169D01*
X48088Y-29270D01*
X48109Y-29370D01*
X48140Y-29469D01*
X48181Y-29566D01*
X48230Y-29660D01*
X48254Y-29698D01*
X48293Y-29754D01*
X48339Y-29813D01*
X48390Y-29872D01*
X48444Y-29928D01*
X48499Y-29980D01*
X48553Y-30025D01*
X48563Y-30033D01*
X48666Y-30105D01*
X48774Y-30167D01*
X48887Y-30221D01*
X49005Y-30265D01*
X49126Y-30300D01*
X49251Y-30325D01*
X49258Y-30326D01*
X49281Y-30329D01*
X49309Y-30332D01*
X49342Y-30335D01*
X49377Y-30338D01*
X49411Y-30341D01*
X49444Y-30343D01*
X49472Y-30345D01*
X49494Y-30346D01*
X49508Y-30346D01*
X49509Y-30346D01*
X49517Y-30345D01*
X49533Y-30344D01*
X49555Y-30343D01*
X49580Y-30341D01*
X49703Y-30329D01*
X49823Y-30307D01*
X49939Y-30274D01*
X50052Y-30232D01*
X50129Y-30197D01*
X50153Y-30185D01*
X50177Y-30173D01*
X50196Y-30163D01*
X50207Y-30156D01*
X50223Y-30147D01*
X50242Y-30135D01*
X50255Y-30128D01*
X50272Y-30118D01*
X50286Y-30108D01*
X50293Y-30103D01*
X50302Y-30097D01*
X50316Y-30086D01*
X50335Y-30071D01*
X50354Y-30057D01*
X50431Y-29991D01*
X50503Y-29917D01*
X50567Y-29837D01*
X50624Y-29751D01*
X50672Y-29660D01*
X50712Y-29565D01*
X50742Y-29467D01*
X50749Y-29438D01*
X50757Y-29400D01*
X50763Y-29358D01*
X50768Y-29316D01*
X50772Y-29277D01*
X50773Y-29246D01*
X50773Y-29222D01*
X50754Y-29258D01*
X50702Y-29346D01*
X50641Y-29428D01*
X50571Y-29506D01*
X50494Y-29578D01*
X50410Y-29644D01*
X50320Y-29703D01*
X50224Y-29755D01*
X50122Y-29799D01*
X50017Y-29836D01*
X49963Y-29851D01*
X49892Y-29867D01*
X49826Y-29880D01*
X49761Y-29888D01*
X49693Y-29893D01*
X49620Y-29896D01*
X49590Y-29896D01*
X49465Y-29891D01*
X49345Y-29877D01*
X49228Y-29854D01*
X49113Y-29821D01*
X49000Y-29778D01*
X48895Y-29730D01*
X48859Y-29711D01*
X48821Y-29689D01*
X48783Y-29667D01*
X48748Y-29645D01*
X48719Y-29625D01*
X48703Y-29613D01*
X48689Y-29603D01*
X48680Y-29596D01*
X48660Y-29581D01*
X48634Y-29560D01*
X48605Y-29535D01*
X48574Y-29507D01*
X48544Y-29478D01*
X48518Y-29451D01*
X48441Y-29366D01*
X48374Y-29275D01*
X48316Y-29180D01*
X48268Y-29081D01*
X48229Y-28979D01*
X48206Y-28898D01*
X48197Y-28856D01*
X48189Y-28810D01*
X48183Y-28763D01*
X48178Y-28719D01*
X48176Y-28682D01*
X48176Y-28679D01*
X48176Y-28639D01*
X48159Y-28678D01*
X48123Y-28772D01*
X48096Y-28869D01*
X48080Y-28967D01*
X48073Y-29068D01*
X48073Y-29068D01*
X48073Y-29068D01*
G37*
G36*
X64262Y-30092D02*
X64263Y-30126D01*
X64273Y-30155D01*
X64291Y-30179D01*
X64307Y-30191D01*
X64307Y-30097D01*
X64314Y-30077D01*
X64316Y-30074D01*
X64327Y-30064D01*
X64342Y-30055D01*
X64358Y-30049D01*
X64365Y-30047D01*
X64367Y-30053D01*
X64369Y-30067D01*
X64370Y-30090D01*
X64370Y-30103D01*
X64370Y-30129D01*
X64369Y-30146D01*
X64366Y-30155D01*
X64359Y-30157D01*
X64349Y-30155D01*
X64337Y-30149D01*
X64319Y-30136D01*
X64309Y-30117D01*
X64307Y-30097D01*
X64307Y-30191D01*
X64316Y-30197D01*
X64348Y-30207D01*
X64378Y-30210D01*
X64407Y-30210D01*
X64408Y-30130D01*
X64410Y-30050D01*
X64425Y-30051D01*
X64443Y-30058D01*
X64459Y-30071D01*
X64469Y-30084D01*
X64474Y-30095D01*
X64474Y-30108D01*
X64474Y-30114D01*
X64470Y-30133D01*
X64462Y-30149D01*
X64460Y-30153D01*
X64449Y-30168D01*
X64465Y-30186D01*
X64476Y-30197D01*
X64483Y-30201D01*
X64489Y-30199D01*
X64504Y-30181D01*
X64514Y-30156D01*
X64519Y-30127D01*
X64520Y-30097D01*
X64515Y-30069D01*
X64507Y-30049D01*
X64488Y-30026D01*
X64463Y-30010D01*
X64429Y-30001D01*
X64391Y-29998D01*
X64367Y-29999D01*
X64350Y-30000D01*
X64335Y-30005D01*
X64318Y-30012D01*
X64316Y-30013D01*
X64290Y-30030D01*
X64274Y-30049D01*
X64264Y-30075D01*
X64262Y-30092D01*
X64262Y-30092D01*
X64262Y-30092D01*
G37*
G36*
X64669Y-30098D02*
X64671Y-30131D01*
X64676Y-30156D01*
X64685Y-30174D01*
X64696Y-30187D01*
X64712Y-30202D01*
X64815Y-30204D01*
X64815Y-30152D01*
X64817Y-30111D01*
X64819Y-30087D01*
X64822Y-30071D01*
X64827Y-30061D01*
X64829Y-30058D01*
X64843Y-30048D01*
X64857Y-30048D01*
X64869Y-30056D01*
X64878Y-30072D01*
X64883Y-30094D01*
X64883Y-30096D01*
X64884Y-30115D01*
X64881Y-30127D01*
X64874Y-30138D01*
X64864Y-30147D01*
X64853Y-30151D01*
X64839Y-30152D01*
X64815Y-30152D01*
X64815Y-30204D01*
X64819Y-30204D01*
X64926Y-30205D01*
X64926Y-30179D01*
X64925Y-30162D01*
X64923Y-30154D01*
X64918Y-30152D01*
X64913Y-30151D01*
X64914Y-30146D01*
X64918Y-30140D01*
X64928Y-30117D01*
X64930Y-30090D01*
X64926Y-30062D01*
X64916Y-30036D01*
X64906Y-30020D01*
X64896Y-30010D01*
X64885Y-30005D01*
X64869Y-30002D01*
X64860Y-30002D01*
X64841Y-30001D01*
X64827Y-30003D01*
X64815Y-30009D01*
X64811Y-30012D01*
X64798Y-30022D01*
X64789Y-30034D01*
X64783Y-30049D01*
X64780Y-30070D01*
X64780Y-30099D01*
X64780Y-30101D01*
X64779Y-30152D01*
X64756Y-30152D01*
X64739Y-30151D01*
X64729Y-30146D01*
X64725Y-30141D01*
X64719Y-30125D01*
X64717Y-30105D01*
X64719Y-30083D01*
X64724Y-30065D01*
X64725Y-30063D01*
X64730Y-30054D01*
X64730Y-30047D01*
X64725Y-30037D01*
X64719Y-30030D01*
X64710Y-30018D01*
X64704Y-30014D01*
X64699Y-30016D01*
X64694Y-30020D01*
X64680Y-30039D01*
X64672Y-30066D01*
X64669Y-30098D01*
X64669Y-30098D01*
X64669Y-30098D01*
G37*
G36*
X64261Y-29884D02*
X64267Y-29910D01*
X64280Y-29932D01*
X64300Y-29949D01*
X64310Y-29953D01*
X64310Y-29862D01*
X64312Y-29842D01*
X64323Y-29825D01*
X64330Y-29819D01*
X64347Y-29812D01*
X64371Y-29808D01*
X64397Y-29807D01*
X64420Y-29809D01*
X64445Y-29816D01*
X64462Y-29829D01*
X64469Y-29849D01*
X64470Y-29857D01*
X64467Y-29878D01*
X64457Y-29894D01*
X64441Y-29904D01*
X64416Y-29909D01*
X64382Y-29909D01*
X64357Y-29907D01*
X64340Y-29903D01*
X64329Y-29897D01*
X64315Y-29881D01*
X64310Y-29862D01*
X64310Y-29953D01*
X64311Y-29954D01*
X64327Y-29957D01*
X64351Y-29959D01*
X64382Y-29961D01*
X64397Y-29961D01*
X64431Y-29960D01*
X64457Y-29958D01*
X64476Y-29952D01*
X64491Y-29944D01*
X64502Y-29932D01*
X64511Y-29916D01*
X64521Y-29888D01*
X64521Y-29861D01*
X64510Y-29833D01*
X64509Y-29830D01*
X64496Y-29806D01*
X64596Y-29806D01*
X64695Y-29806D01*
X64682Y-29825D01*
X64671Y-29851D01*
X64668Y-29878D01*
X64674Y-29905D01*
X64688Y-29929D01*
X64707Y-29946D01*
X64715Y-29951D01*
X64722Y-29955D01*
X64731Y-29958D01*
X64742Y-29960D01*
X64758Y-29961D01*
X64780Y-29962D01*
X64810Y-29962D01*
X64828Y-29963D01*
X64926Y-29965D01*
X64926Y-29938D01*
X64926Y-29911D01*
X64846Y-29911D01*
X64814Y-29911D01*
X64790Y-29910D01*
X64772Y-29909D01*
X64760Y-29906D01*
X64750Y-29903D01*
X64748Y-29902D01*
X64730Y-29888D01*
X64720Y-29870D01*
X64719Y-29851D01*
X64727Y-29832D01*
X64742Y-29818D01*
X64750Y-29813D01*
X64757Y-29810D01*
X64767Y-29808D01*
X64782Y-29807D01*
X64802Y-29806D01*
X64830Y-29806D01*
X64843Y-29806D01*
X64926Y-29806D01*
X64926Y-29780D01*
X64926Y-29754D01*
X64596Y-29754D01*
X64265Y-29754D01*
X64265Y-29780D01*
X64266Y-29796D01*
X64268Y-29804D01*
X64273Y-29806D01*
X64276Y-29806D01*
X64281Y-29807D01*
X64282Y-29810D01*
X64278Y-29819D01*
X64272Y-29830D01*
X64262Y-29857D01*
X64261Y-29884D01*
X64261Y-29884D01*
X64261Y-29884D01*
G37*
G36*
X43513Y-29770D02*
X43513Y-29813D01*
X43513Y-29851D01*
X43514Y-29882D01*
X43514Y-29905D01*
X43514Y-29920D01*
X43514Y-29926D01*
X43520Y-29925D01*
X43532Y-29922D01*
X43537Y-29921D01*
X43608Y-29900D01*
X43676Y-29872D01*
X43739Y-29838D01*
X43797Y-29797D01*
X43848Y-29752D01*
X43892Y-29702D01*
X43927Y-29648D01*
X43939Y-29624D01*
X43949Y-29602D01*
X43954Y-29583D01*
X43956Y-29561D01*
X43956Y-29549D01*
X43955Y-29523D01*
X43950Y-29503D01*
X43939Y-29486D01*
X43922Y-29470D01*
X43902Y-29456D01*
X43860Y-29433D01*
X43810Y-29416D01*
X43755Y-29405D01*
X43696Y-29399D01*
X43634Y-29400D01*
X43573Y-29406D01*
X43538Y-29413D01*
X43513Y-29419D01*
X43513Y-29673D01*
X43513Y-29723D01*
X43513Y-29770D01*
X43513Y-29770D01*
X43513Y-29770D01*
G37*
G36*
X64261Y-29614D02*
X64267Y-29643D01*
X64281Y-29669D01*
X64301Y-29690D01*
X64310Y-29695D01*
X64310Y-29602D01*
X64314Y-29583D01*
X64325Y-29566D01*
X64331Y-29561D01*
X64345Y-29556D01*
X64366Y-29552D01*
X64390Y-29550D01*
X64412Y-29550D01*
X64425Y-29551D01*
X64447Y-29560D01*
X64462Y-29576D01*
X64469Y-29597D01*
X64470Y-29604D01*
X64468Y-29623D01*
X64460Y-29637D01*
X64444Y-29650D01*
X64430Y-29656D01*
X64409Y-29659D01*
X64385Y-29659D01*
X64361Y-29657D01*
X64342Y-29652D01*
X64341Y-29652D01*
X64324Y-29640D01*
X64314Y-29622D01*
X64310Y-29602D01*
X64310Y-29695D01*
X64318Y-29700D01*
X64336Y-29705D01*
X64361Y-29708D01*
X64390Y-29710D01*
X64418Y-29709D01*
X64442Y-29707D01*
X64454Y-29704D01*
X64482Y-29690D01*
X64503Y-29668D01*
X64517Y-29641D01*
X64522Y-29609D01*
X64521Y-29594D01*
X64515Y-29563D01*
X64502Y-29539D01*
X64484Y-29520D01*
X64460Y-29508D01*
X64431Y-29500D01*
X64399Y-29498D01*
X64365Y-29499D01*
X64334Y-29505D01*
X64306Y-29516D01*
X64286Y-29531D01*
X64285Y-29532D01*
X64269Y-29556D01*
X64261Y-29585D01*
X64261Y-29614D01*
X64261Y-29614D01*
X64261Y-29614D01*
G37*
G36*
X61503Y-42648D02*
X61505Y-42692D01*
X61510Y-42733D01*
X61516Y-42766D01*
X61532Y-42819D01*
X61552Y-42867D01*
X61577Y-42911D01*
X61609Y-42958D01*
X61646Y-42998D01*
X61686Y-43031D01*
X61728Y-43056D01*
X61771Y-43072D01*
X61814Y-43080D01*
X61854Y-43078D01*
X61888Y-43067D01*
X61920Y-43047D01*
X61950Y-43018D01*
X61978Y-42982D01*
X62001Y-42940D01*
X62020Y-42893D01*
X62024Y-42879D01*
X62029Y-42852D01*
X62032Y-42818D01*
X62033Y-42780D01*
X62033Y-42740D01*
X62031Y-42701D01*
X62027Y-42666D01*
X62022Y-42637D01*
X62021Y-42637D01*
X61998Y-42569D01*
X61968Y-42507D01*
X61931Y-42451D01*
X61888Y-42404D01*
X61845Y-42369D01*
X61803Y-42344D01*
X61760Y-42329D01*
X61717Y-42323D01*
X61676Y-42327D01*
X61646Y-42337D01*
X61617Y-42355D01*
X61589Y-42382D01*
X61563Y-42416D01*
X61541Y-42455D01*
X61523Y-42498D01*
X61513Y-42530D01*
X61507Y-42564D01*
X61504Y-42604D01*
X61503Y-42648D01*
X61503Y-42648D01*
X61503Y-42648D01*
G37*
G36*
X59130Y-38540D02*
X59134Y-38595D01*
X59147Y-38655D01*
X59166Y-38711D01*
X59197Y-38775D01*
X59238Y-38836D01*
X59286Y-38894D01*
X59342Y-38947D01*
X59403Y-38994D01*
X59470Y-39036D01*
X59541Y-39070D01*
X59614Y-39096D01*
X59667Y-39109D01*
X59699Y-39114D01*
X59736Y-39118D01*
X59774Y-39120D01*
X59810Y-39120D01*
X59841Y-39118D01*
X59851Y-39117D01*
X59907Y-39105D01*
X59958Y-39086D01*
X60003Y-39062D01*
X60040Y-39033D01*
X60070Y-38999D01*
X60084Y-38976D01*
X60100Y-38935D01*
X60108Y-38887D01*
X60109Y-38835D01*
X60102Y-38781D01*
X60088Y-38726D01*
X60067Y-38670D01*
X60064Y-38664D01*
X60028Y-38599D01*
X59983Y-38536D01*
X59929Y-38478D01*
X59868Y-38426D01*
X59802Y-38380D01*
X59736Y-38344D01*
X59670Y-38316D01*
X59602Y-38296D01*
X59535Y-38283D01*
X59469Y-38278D01*
X59405Y-38280D01*
X59345Y-38289D01*
X59290Y-38306D01*
X59241Y-38331D01*
X59237Y-38333D01*
X59199Y-38363D01*
X59169Y-38400D01*
X59148Y-38441D01*
X59134Y-38488D01*
X59130Y-38540D01*
X59130Y-38540D01*
X59130Y-38540D01*
G37*
G36*
X54551Y-35877D02*
X54559Y-35934D01*
X54566Y-35965D01*
X54591Y-36034D01*
X54626Y-36102D01*
X54669Y-36166D01*
X54721Y-36226D01*
X54779Y-36282D01*
X54844Y-36333D01*
X54915Y-36378D01*
X54990Y-36417D01*
X55069Y-36448D01*
X55151Y-36471D01*
X55163Y-36474D01*
X55197Y-36479D01*
X55238Y-36484D01*
X55282Y-36486D01*
X55326Y-36487D01*
X55367Y-36487D01*
X55402Y-36484D01*
X55417Y-36482D01*
X55484Y-36466D01*
X55544Y-36443D01*
X55598Y-36414D01*
X55642Y-36380D01*
X55669Y-36353D01*
X55689Y-36327D01*
X55704Y-36299D01*
X55716Y-36271D01*
X55723Y-36244D01*
X55727Y-36209D01*
X55728Y-36170D01*
X55726Y-36131D01*
X55721Y-36093D01*
X55716Y-36067D01*
X55705Y-36035D01*
X55690Y-35997D01*
X55671Y-35958D01*
X55652Y-35921D01*
X55633Y-35889D01*
X55631Y-35886D01*
X55579Y-35818D01*
X55518Y-35757D01*
X55450Y-35701D01*
X55374Y-35653D01*
X55293Y-35611D01*
X55205Y-35578D01*
X55135Y-35557D01*
X55099Y-35550D01*
X55056Y-35545D01*
X55010Y-35541D01*
X54962Y-35540D01*
X54917Y-35541D01*
X54877Y-35544D01*
X54869Y-35545D01*
X54826Y-35553D01*
X54780Y-35566D01*
X54736Y-35583D01*
X54698Y-35601D01*
X54697Y-35601D01*
X54669Y-35620D01*
X54641Y-35644D01*
X54614Y-35670D01*
X54593Y-35697D01*
X54580Y-35718D01*
X54562Y-35767D01*
X54553Y-35820D01*
X54551Y-35877D01*
X54551Y-35877D01*
X54551Y-35877D01*
G37*
G36*
X50591Y-33638D02*
X50592Y-33668D01*
X50602Y-33736D01*
X50622Y-33803D01*
X50651Y-33869D01*
X50689Y-33932D01*
X50735Y-33992D01*
X50788Y-34049D01*
X50848Y-34102D01*
X50914Y-34149D01*
X50985Y-34191D01*
X51062Y-34227D01*
X51115Y-34246D01*
X51181Y-34265D01*
X51249Y-34277D01*
X51319Y-34284D01*
X51386Y-34285D01*
X51448Y-34280D01*
X51463Y-34277D01*
X51530Y-34262D01*
X51589Y-34240D01*
X51640Y-34213D01*
X51684Y-34179D01*
X51704Y-34160D01*
X51735Y-34119D01*
X51757Y-34073D01*
X51770Y-34022D01*
X51774Y-33967D01*
X51768Y-33909D01*
X51756Y-33858D01*
X51730Y-33784D01*
X51694Y-33715D01*
X51649Y-33649D01*
X51596Y-33588D01*
X51535Y-33532D01*
X51467Y-33481D01*
X51393Y-33437D01*
X51313Y-33399D01*
X51228Y-33369D01*
X51180Y-33355D01*
X51132Y-33346D01*
X51084Y-33340D01*
X51032Y-33337D01*
X50981Y-33338D01*
X50930Y-33341D01*
X50886Y-33347D01*
X50846Y-33355D01*
X50807Y-33368D01*
X50767Y-33386D01*
X50763Y-33388D01*
X50735Y-33402D01*
X50714Y-33415D01*
X50693Y-33432D01*
X50673Y-33451D01*
X50638Y-33493D01*
X50612Y-33538D01*
X50597Y-33586D01*
X50591Y-33638D01*
X50591Y-33638D01*
X50591Y-33638D01*
G37*
G36*
X47007Y-47497D02*
X47015Y-47518D01*
X47020Y-47526D01*
X47032Y-47537D01*
X47044Y-47541D01*
X47057Y-47542D01*
X47073Y-47541D01*
X47085Y-47535D01*
X47093Y-47526D01*
X47105Y-47505D01*
X47106Y-47485D01*
X47097Y-47465D01*
X47091Y-47458D01*
X47076Y-47446D01*
X47059Y-47442D01*
X47057Y-47442D01*
X47039Y-47446D01*
X47024Y-47456D01*
X47022Y-47458D01*
X47009Y-47477D01*
X47007Y-47497D01*
X47007Y-47497D01*
X47007Y-47497D01*
G37*
G36*
X60186Y-30694D02*
X60189Y-30764D01*
X60202Y-30837D01*
X60223Y-30904D01*
X60252Y-30964D01*
X60290Y-31017D01*
X60336Y-31065D01*
X60390Y-31106D01*
X60444Y-31136D01*
X60491Y-31157D01*
X60536Y-31172D01*
X60584Y-31183D01*
X60638Y-31190D01*
X60643Y-31191D01*
X60672Y-31193D01*
X60694Y-31195D01*
X60713Y-31195D01*
X60731Y-31195D01*
X60754Y-31193D01*
X60773Y-31191D01*
X60835Y-31180D01*
X60896Y-31163D01*
X60953Y-31139D01*
X61005Y-31111D01*
X61012Y-31106D01*
X61037Y-31086D01*
X61065Y-31061D01*
X61093Y-31034D01*
X61118Y-31007D01*
X61132Y-30988D01*
X61166Y-30931D01*
X61192Y-30870D01*
X61210Y-30804D01*
X61219Y-30737D01*
X61220Y-30670D01*
X61212Y-30603D01*
X61195Y-30539D01*
X61173Y-30487D01*
X61141Y-30435D01*
X61101Y-30388D01*
X61055Y-30348D01*
X61003Y-30317D01*
X60999Y-30315D01*
X60981Y-30306D01*
X60957Y-30297D01*
X60930Y-30288D01*
X60903Y-30280D01*
X60879Y-30273D01*
X60860Y-30269D01*
X60850Y-30268D01*
X60848Y-30273D01*
X60847Y-30287D01*
X60846Y-30308D01*
X60846Y-30336D01*
X60845Y-30368D01*
X60845Y-30388D01*
X60845Y-30427D01*
X60845Y-30457D01*
X60846Y-30479D01*
X60847Y-30494D01*
X60850Y-30504D01*
X60854Y-30510D01*
X60861Y-30513D01*
X60870Y-30515D01*
X60882Y-30517D01*
X60884Y-30517D01*
X60921Y-30528D01*
X60954Y-30549D01*
X60981Y-30577D01*
X61001Y-30612D01*
X61009Y-30632D01*
X61018Y-30671D01*
X61021Y-30713D01*
X61018Y-30753D01*
X61010Y-30788D01*
X61008Y-30794D01*
X60994Y-30820D01*
X60973Y-30848D01*
X60947Y-30873D01*
X60920Y-30894D01*
X60913Y-30899D01*
X60868Y-30919D01*
X60816Y-30935D01*
X60760Y-30944D01*
X60701Y-30948D01*
X60642Y-30946D01*
X60586Y-30938D01*
X60533Y-30924D01*
X60501Y-30911D01*
X60460Y-30887D01*
X60428Y-30858D01*
X60405Y-30823D01*
X60390Y-30782D01*
X60384Y-30738D01*
X60386Y-30685D01*
X60395Y-30639D01*
X60413Y-30599D01*
X60438Y-30566D01*
X60470Y-30541D01*
X60510Y-30522D01*
X60534Y-30515D01*
X60557Y-30510D01*
X60557Y-30545D01*
X60557Y-30580D01*
X60651Y-30485D01*
X60745Y-30391D01*
X60652Y-30297D01*
X60559Y-30202D01*
X60557Y-30239D01*
X60554Y-30275D01*
X60522Y-30282D01*
X60456Y-30300D01*
X60396Y-30326D01*
X60343Y-30360D01*
X60297Y-30401D01*
X60259Y-30448D01*
X60228Y-30502D01*
X60205Y-30561D01*
X60191Y-30625D01*
X60186Y-30694D01*
X60186Y-30694D01*
X60186Y-30694D01*
G37*
G36*
X57671Y-30702D02*
X57672Y-30757D01*
X57672Y-30803D01*
X57672Y-30841D01*
X57672Y-30871D01*
X57674Y-30894D01*
X57675Y-30912D01*
X57677Y-30925D01*
X57681Y-30934D01*
X57685Y-30940D01*
X57690Y-30945D01*
X57696Y-30949D01*
X57703Y-30952D01*
X57708Y-30954D01*
X57717Y-30956D01*
X57729Y-30957D01*
X57745Y-30958D01*
X57768Y-30959D01*
X57797Y-30960D01*
X57834Y-30960D01*
X57880Y-30960D01*
X57920Y-30960D01*
X58123Y-30960D01*
X58123Y-30905D01*
X58123Y-30850D01*
X58356Y-30850D01*
X58589Y-30850D01*
X58589Y-30701D01*
X58589Y-30551D01*
X58356Y-30551D01*
X58123Y-30551D01*
X58123Y-30496D01*
X58123Y-30441D01*
X57918Y-30441D01*
X57861Y-30441D01*
X57813Y-30441D01*
X57774Y-30442D01*
X57744Y-30443D01*
X57722Y-30444D01*
X57708Y-30445D01*
X57700Y-30447D01*
X57700Y-30447D01*
X57693Y-30450D01*
X57688Y-30454D01*
X57683Y-30460D01*
X57680Y-30467D01*
X57677Y-30478D01*
X57675Y-30494D01*
X57673Y-30514D01*
X57672Y-30541D01*
X57672Y-30575D01*
X57672Y-30617D01*
X57672Y-30668D01*
X57671Y-30702D01*
X57671Y-30702D01*
X57671Y-30702D01*
G37*
G36*
X57348Y-30713D02*
X57351Y-30737D01*
X57361Y-30771D01*
X57377Y-30797D01*
X57400Y-30815D01*
X57431Y-30827D01*
X57468Y-30832D01*
X57494Y-30832D01*
X57519Y-30830D01*
X57530Y-30827D01*
X57561Y-30815D01*
X57584Y-30796D01*
X57600Y-30769D01*
X57610Y-30736D01*
X57612Y-30715D01*
X57612Y-30677D01*
X57604Y-30642D01*
X57590Y-30613D01*
X57570Y-30590D01*
X57545Y-30575D01*
X57538Y-30573D01*
X57517Y-30569D01*
X57491Y-30567D01*
X57464Y-30567D01*
X57440Y-30569D01*
X57424Y-30573D01*
X57395Y-30588D01*
X57373Y-30610D01*
X57357Y-30639D01*
X57348Y-30674D01*
X57348Y-30713D01*
X57348Y-30713D01*
X57348Y-30713D01*
G37*
G36*
X54950Y-30989D02*
X54951Y-31027D01*
X54954Y-31053D01*
X54963Y-31089D01*
X54978Y-31126D01*
X54996Y-31160D01*
X55015Y-31186D01*
X55030Y-31201D01*
X55047Y-31215D01*
X55063Y-31227D01*
X55076Y-31234D01*
X55084Y-31235D01*
X55085Y-31235D01*
X55089Y-31229D01*
X55097Y-31216D01*
X55106Y-31198D01*
X55117Y-31178D01*
X55128Y-31157D01*
X55137Y-31139D01*
X55145Y-31125D01*
X55148Y-31117D01*
X55148Y-31116D01*
X55144Y-31112D01*
X55134Y-31103D01*
X55125Y-31097D01*
X55107Y-31080D01*
X55092Y-31060D01*
X55088Y-31054D01*
X55080Y-31037D01*
X55076Y-31023D01*
X55075Y-31006D01*
X55076Y-30992D01*
X55082Y-30958D01*
X55095Y-30930D01*
X55118Y-30909D01*
X55149Y-30892D01*
X55176Y-30883D01*
X55203Y-30879D01*
X55236Y-30877D01*
X55271Y-30878D01*
X55304Y-30882D01*
X55330Y-30888D01*
X55332Y-30889D01*
X55366Y-30906D01*
X55391Y-30929D01*
X55408Y-30958D01*
X55416Y-30992D01*
X55416Y-31005D01*
X55413Y-31038D01*
X55401Y-31066D01*
X55381Y-31092D01*
X55351Y-31116D01*
X55348Y-31118D01*
X55336Y-31126D01*
X55365Y-31185D01*
X55377Y-31207D01*
X55386Y-31225D01*
X55393Y-31238D01*
X55396Y-31243D01*
X55396Y-31244D01*
X55401Y-31241D01*
X55411Y-31233D01*
X55426Y-31222D01*
X55430Y-31218D01*
X55470Y-31182D01*
X55502Y-31139D01*
X55524Y-31092D01*
X55538Y-31040D01*
X55542Y-30989D01*
X55537Y-30931D01*
X55524Y-30878D01*
X55502Y-30831D01*
X55472Y-30790D01*
X55464Y-30782D01*
X55430Y-30753D01*
X55391Y-30732D01*
X55347Y-30716D01*
X55296Y-30707D01*
X55269Y-30705D01*
X55210Y-30706D01*
X55155Y-30715D01*
X55105Y-30732D01*
X55060Y-30757D01*
X55022Y-30790D01*
X54991Y-30829D01*
X54968Y-30875D01*
X54964Y-30885D01*
X54957Y-30914D01*
X54952Y-30950D01*
X54950Y-30989D01*
X54950Y-30989D01*
X54950Y-30989D01*
G37*
G36*
X54949Y-30433D02*
X54953Y-30484D01*
X54964Y-30533D01*
X54981Y-30577D01*
X55004Y-30616D01*
X55009Y-30622D01*
X55022Y-30636D01*
X55037Y-30650D01*
X55053Y-30663D01*
X55068Y-30674D01*
X55079Y-30680D01*
X55084Y-30680D01*
X55088Y-30675D01*
X55095Y-30662D01*
X55105Y-30643D01*
X55117Y-30621D01*
X55119Y-30617D01*
X55132Y-30592D01*
X55140Y-30575D01*
X55145Y-30563D01*
X55146Y-30557D01*
X55144Y-30552D01*
X55141Y-30550D01*
X55112Y-30528D01*
X55090Y-30501D01*
X55078Y-30469D01*
X55075Y-30444D01*
X55078Y-30411D01*
X55090Y-30383D01*
X55110Y-30360D01*
X55139Y-30341D01*
X55148Y-30337D01*
X55162Y-30331D01*
X55174Y-30327D01*
X55188Y-30324D01*
X55207Y-30323D01*
X55232Y-30323D01*
X55240Y-30323D01*
X55280Y-30324D01*
X55311Y-30328D01*
X55337Y-30335D01*
X55358Y-30345D01*
X55375Y-30357D01*
X55398Y-30381D01*
X55411Y-30409D01*
X55416Y-30443D01*
X55416Y-30449D01*
X55413Y-30482D01*
X55401Y-30510D01*
X55381Y-30536D01*
X55351Y-30560D01*
X55348Y-30562D01*
X55336Y-30570D01*
X55364Y-30626D01*
X55375Y-30648D01*
X55385Y-30666D01*
X55393Y-30678D01*
X55398Y-30682D01*
X55405Y-30679D01*
X55417Y-30672D01*
X55424Y-30667D01*
X55466Y-30631D01*
X55498Y-30590D01*
X55521Y-30544D01*
X55535Y-30493D01*
X55540Y-30446D01*
X55538Y-30387D01*
X55528Y-30334D01*
X55509Y-30286D01*
X55482Y-30245D01*
X55448Y-30210D01*
X55405Y-30182D01*
X55356Y-30162D01*
X55327Y-30154D01*
X55293Y-30149D01*
X55253Y-30148D01*
X55212Y-30149D01*
X55172Y-30153D01*
X55139Y-30161D01*
X55132Y-30163D01*
X55084Y-30184D01*
X55042Y-30213D01*
X55007Y-30250D01*
X54980Y-30292D01*
X54961Y-30341D01*
X54951Y-30395D01*
X54949Y-30433D01*
X54949Y-30433D01*
X54949Y-30433D01*
G37*
G36*
X67544Y-31187D02*
X67546Y-31203D01*
X67548Y-31213D01*
X67552Y-31220D01*
X67554Y-31223D01*
X67567Y-31229D01*
X67586Y-31233D01*
X67607Y-31232D01*
X67626Y-31228D01*
X67626Y-31228D01*
X67636Y-31221D01*
X67643Y-31211D01*
X67647Y-31195D01*
X67649Y-31172D01*
X67649Y-31155D01*
X67648Y-31127D01*
X67645Y-31107D01*
X67638Y-31094D01*
X67626Y-31086D01*
X67609Y-31081D01*
X67605Y-31080D01*
X67580Y-31079D01*
X67561Y-31085D01*
X67550Y-31097D01*
X67549Y-31102D01*
X67547Y-31113D01*
X67546Y-31131D01*
X67545Y-31153D01*
X67544Y-31164D01*
X67544Y-31187D01*
X67544Y-31187D01*
X67544Y-31187D01*
G37*
G36*
X68234Y-31159D02*
X68234Y-31188D01*
X68236Y-31209D01*
X68240Y-31221D01*
X68248Y-31229D01*
X68261Y-31232D01*
X68281Y-31233D01*
X68289Y-31233D01*
X68314Y-31232D01*
X68330Y-31229D01*
X68334Y-31227D01*
X68336Y-31219D01*
X68338Y-31203D01*
X68340Y-31182D01*
X68340Y-31162D01*
X68341Y-31131D01*
X68339Y-31109D01*
X68335Y-31095D01*
X68326Y-31085D01*
X68313Y-31080D01*
X68294Y-31078D01*
X68291Y-31077D01*
X68273Y-31076D01*
X68262Y-31077D01*
X68254Y-31082D01*
X68247Y-31089D01*
X68241Y-31096D01*
X68237Y-31103D01*
X68235Y-31113D01*
X68234Y-31128D01*
X68234Y-31151D01*
X68234Y-31159D01*
X68234Y-31159D01*
X68234Y-31159D01*
G37*
G36*
X67061Y-31201D02*
X67063Y-31215D01*
X67069Y-31224D01*
X67081Y-31229D01*
X67101Y-31231D01*
X67107Y-31232D01*
X67126Y-31232D01*
X67142Y-31230D01*
X67151Y-31228D01*
X67161Y-31216D01*
X67164Y-31201D01*
X67160Y-31184D01*
X67158Y-31182D01*
X67153Y-31175D01*
X67147Y-31172D01*
X67137Y-31170D01*
X67120Y-31170D01*
X67110Y-31171D01*
X67087Y-31173D01*
X67073Y-31177D01*
X67065Y-31184D01*
X67062Y-31195D01*
X67061Y-31201D01*
X67061Y-31201D01*
X67061Y-31201D01*
G37*
G36*
X68444Y-30396D02*
X68507Y-30398D01*
X68537Y-30398D01*
X68559Y-30397D01*
X68572Y-30395D01*
X68576Y-30393D01*
X68579Y-30385D01*
X68581Y-30370D01*
X68582Y-30349D01*
X68583Y-30326D01*
X68583Y-30303D01*
X68582Y-30283D01*
X68580Y-30269D01*
X68578Y-30264D01*
X68573Y-30261D01*
X68562Y-30259D01*
X68543Y-30258D01*
X68516Y-30258D01*
X68509Y-30258D01*
X68444Y-30260D01*
X68444Y-30328D01*
X68444Y-30396D01*
X68444Y-30396D01*
X68444Y-30396D01*
G37*
G36*
X68116Y-30471D02*
X68116Y-30500D01*
X68117Y-30521D01*
X68118Y-30535D01*
X68120Y-30545D01*
X68123Y-30550D01*
X68125Y-30553D01*
X68139Y-30560D01*
X68157Y-30561D01*
X68174Y-30559D01*
X68186Y-30552D01*
X68189Y-30546D01*
X68192Y-30538D01*
X68193Y-30524D01*
X68194Y-30504D01*
X68194Y-30475D01*
X68194Y-30469D01*
X68194Y-30436D01*
X68193Y-30412D01*
X68190Y-30396D01*
X68185Y-30386D01*
X68176Y-30380D01*
X68164Y-30378D01*
X68154Y-30378D01*
X68140Y-30379D01*
X68130Y-30382D01*
X68123Y-30389D01*
X68119Y-30401D01*
X68117Y-30420D01*
X68116Y-30447D01*
X68116Y-30471D01*
X68116Y-30471D01*
X68116Y-30471D01*
G37*
%LPC*%
G54D12*
X46500Y-44000D03*
X46500Y-40000D03*
G54D13*
X48500Y-42000D03*
G54D14*
X48500Y-43000D03*
G54D12*
X46500Y-37000D03*
X46500Y-33000D03*
G54D13*
X48500Y-35000D03*
G54D14*
X48500Y-36000D03*
G54D15*
X68500Y-47500D03*
X67500Y-47500D03*
X66500Y-47500D03*
X63500Y-47500D03*
X64500Y-47500D03*
X65500Y-47500D03*
X61500Y-47500D03*
X60500Y-47500D03*
X59500Y-47500D03*
X57500Y-47500D03*
X56500Y-47500D03*
X68500Y-28500D03*
X67500Y-28500D03*
X66500Y-28500D03*
X65500Y-28500D03*
X64500Y-28500D03*
X63500Y-28500D03*
X62500Y-28500D03*
X61500Y-28500D03*
X59900Y-28500D03*
X58900Y-28500D03*
X57900Y-28500D03*
X56900Y-28500D03*
X55900Y-28500D03*
X54900Y-28500D03*
X53900Y-28500D03*
X52900Y-28500D03*
X58500Y-47500D03*
X55500Y-47500D03*
X54500Y-47500D03*
X52000Y-28500D03*
X51000Y-28500D03*
G54D16*
X57250Y-34000D03*
G54D17*
X57250Y-35000D03*
X57250Y-36000D03*
X50250Y-34000D03*
X50250Y-35000D03*
X50250Y-36000D03*
G54D16*
X57250Y-41000D03*
G54D17*
X57250Y-42000D03*
X57250Y-43000D03*
X50250Y-41000D03*
X50250Y-42000D03*
X50250Y-43000D03*
M02*
