M48
;DRILL file {Pcbnew (2013-07-07 BZR 4022)-stable} date 15/12/2015 05:16:41
;FORMAT={-:-/ absolute / inch / decimal}
FMAT,2
INCH,TZ
T1C0.025
T2C0.035
T3C0.040
T4C0.079
T5C0.125
%
G90
G05
M72
T1
X4.7Y-2.9
X5.15Y-2.975
X5.2Y-4.6
X5.9Y-4.65
X5.95Y-3.95
X6.05Y-3.85
X6.1Y-3.1
X6.1Y-3.5
X6.1Y-3.85
X6.1Y-4.2
X6.15Y-3.15
X6.15Y-3.5
X6.15Y-3.85
X6.15Y-4.2
X6.7Y-3.2
X6.8Y-4.125
T2
X4.85Y-3.5
X4.85Y-3.6
X4.85Y-4.2
X4.85Y-4.3
T3
X5.025Y-3.4
X5.025Y-3.5
X5.025Y-3.6
X5.025Y-4.1
X5.025Y-4.2
X5.025Y-4.3
X5.1Y-2.85
X5.2Y-2.85
X5.29Y-2.85
X5.39Y-2.85
X5.45Y-4.75
X5.49Y-2.85
X5.55Y-4.75
X5.59Y-2.85
X5.65Y-4.75
X5.69Y-2.85
X5.725Y-3.4
X5.725Y-3.5
X5.725Y-3.6
X5.725Y-4.1
X5.725Y-4.2
X5.725Y-4.3
X5.75Y-4.75
X5.79Y-2.85
X5.85Y-4.75
X5.89Y-2.85
X5.95Y-4.75
X5.99Y-2.85
X6.05Y-4.75
X6.15Y-2.85
X6.15Y-4.75
X6.25Y-2.85
X6.35Y-2.85
X6.35Y-4.75
X6.45Y-2.85
X6.45Y-4.75
X6.55Y-2.85
X6.55Y-4.75
X6.65Y-2.85
X6.65Y-4.75
X6.75Y-2.85
X6.75Y-4.75
X6.85Y-2.85
X6.85Y-4.75
T4
X4.65Y-3.3
X4.65Y-3.7
X4.65Y-4.
X4.65Y-4.4
T5
X4.9Y-4.75
X4.95Y-2.85
X6.95Y-3.45
X6.95Y-4.55
T0
M30
