G04 (created by PCBNEW (2013-07-07 BZR 4022)-stable) date 15/12/2015 05:16:37*
%MOIN*%
G04 Gerber Fmt 3.4, Leading zero omitted, Abs format*
%FSLAX34Y34*%
G01*
G70*
G90*
G04 APERTURE LIST*
%ADD10C,0.00590551*%
%ADD11C,0.137795*%
%ADD12R,0.0708661X0.0708661*%
%ADD13C,0.0708661*%
%ADD14O,0.06X0.1*%
%ADD15O,0.1X0.0607087*%
%ADD16O,0.1X0.06*%
G04 APERTURE END LIST*
G54D10*
G54D11*
X46500Y-44000D03*
X46500Y-40000D03*
G54D12*
X48500Y-42000D03*
G54D13*
X48500Y-43000D03*
G54D11*
X46500Y-37000D03*
X46500Y-33000D03*
G54D12*
X48500Y-35000D03*
G54D13*
X48500Y-36000D03*
G54D14*
X68500Y-47500D03*
X67500Y-47500D03*
X66500Y-47500D03*
X63500Y-47500D03*
X64500Y-47500D03*
X65500Y-47500D03*
X61500Y-47500D03*
X60500Y-47500D03*
X59500Y-47500D03*
X57500Y-47500D03*
X56500Y-47500D03*
X68500Y-28500D03*
X67500Y-28500D03*
X66500Y-28500D03*
X65500Y-28500D03*
X64500Y-28500D03*
X63500Y-28500D03*
X62500Y-28500D03*
X61500Y-28500D03*
X59900Y-28500D03*
X58900Y-28500D03*
X57900Y-28500D03*
X56900Y-28500D03*
X55900Y-28500D03*
X54900Y-28500D03*
X53900Y-28500D03*
X52900Y-28500D03*
X58500Y-47500D03*
X55500Y-47500D03*
X54500Y-47500D03*
X52000Y-28500D03*
X51000Y-28500D03*
G54D15*
X57250Y-34000D03*
G54D16*
X57250Y-35000D03*
X57250Y-36000D03*
X50250Y-34000D03*
X50250Y-35000D03*
X50250Y-36000D03*
G54D15*
X57250Y-41000D03*
G54D16*
X57250Y-42000D03*
X57250Y-43000D03*
X50250Y-41000D03*
X50250Y-42000D03*
X50250Y-43000D03*
M02*
