G04 (created by PCBNEW (2013-07-07 BZR 4022)-stable) date 15/12/2015 05:16:38*
%MOIN*%
G04 Gerber Fmt 3.4, Leading zero omitted, Abs format*
%FSLAX34Y34*%
G01*
G70*
G90*
G04 APERTURE LIST*
%ADD10C,0.00590551*%
%ADD11R,0.102362X0.0511811*%
%ADD12C,0.0787402*%
%ADD13C,0.137795*%
%ADD14R,0.0708661X0.0708661*%
%ADD15C,0.0708661*%
%ADD16R,0.063X0.0276*%
%ADD17R,0.0827X0.0276*%
%ADD18R,0.1083X0.0787*%
%ADD19R,0.025X0.05*%
%ADD20R,0.055X0.035*%
%ADD21R,0.0472441X0.0708661*%
%ADD22R,0.1004X0.1063*%
%ADD23R,0.1004X0.1496*%
%ADD24O,0.06X0.1*%
%ADD25O,0.1X0.0607087*%
%ADD26O,0.1X0.06*%
G04 APERTURE END LIST*
G54D10*
G54D11*
X44622Y-28114D03*
X47377Y-28114D03*
X44622Y-29885D03*
X47377Y-29885D03*
G54D12*
X44250Y-47750D03*
X68750Y-31250D03*
G54D13*
X46500Y-44000D03*
X46500Y-40000D03*
G54D14*
X48500Y-42000D03*
G54D15*
X48500Y-43000D03*
G54D13*
X46500Y-37000D03*
X46500Y-33000D03*
G54D14*
X48500Y-35000D03*
G54D15*
X48500Y-36000D03*
G54D16*
X60752Y-42659D03*
G54D17*
X60850Y-43250D03*
G54D16*
X60752Y-43841D03*
G54D18*
X61795Y-43250D03*
G54D16*
X60752Y-35659D03*
G54D17*
X60850Y-36250D03*
G54D16*
X60752Y-36841D03*
G54D18*
X61795Y-36250D03*
G54D19*
X60500Y-34350D03*
X61000Y-34350D03*
X61500Y-34350D03*
X62000Y-34350D03*
X62000Y-32150D03*
X61500Y-32150D03*
X61000Y-32150D03*
X60500Y-32150D03*
X60500Y-41350D03*
X61000Y-41350D03*
X61500Y-41350D03*
X62000Y-41350D03*
X62000Y-39150D03*
X61500Y-39150D03*
X61000Y-39150D03*
X60500Y-39150D03*
G54D20*
X59750Y-36125D03*
X59750Y-36875D03*
X63000Y-31125D03*
X63000Y-31875D03*
X64000Y-31125D03*
X64000Y-31875D03*
X51750Y-41125D03*
X51750Y-41875D03*
X51750Y-34125D03*
X51750Y-34875D03*
X58750Y-43125D03*
X58750Y-43875D03*
X59750Y-43125D03*
X59750Y-43875D03*
X58750Y-36125D03*
X58750Y-36875D03*
X59500Y-41375D03*
X59500Y-42125D03*
X59500Y-34375D03*
X59500Y-35125D03*
X53750Y-41125D03*
X53750Y-41875D03*
X52750Y-41125D03*
X52750Y-41875D03*
X53750Y-34125D03*
X53750Y-34875D03*
X52750Y-34125D03*
X52750Y-34875D03*
X59500Y-38875D03*
X59500Y-38125D03*
X59500Y-31875D03*
X59500Y-31125D03*
G54D21*
X66750Y-39992D03*
X65750Y-39992D03*
X64750Y-39992D03*
X63750Y-39992D03*
X63750Y-44007D03*
X64750Y-44007D03*
X65750Y-44007D03*
X66750Y-44007D03*
X66750Y-32992D03*
X65750Y-32992D03*
X64750Y-32992D03*
X63750Y-32992D03*
X63750Y-37007D03*
X64750Y-37007D03*
X65750Y-37007D03*
X66750Y-37007D03*
G54D22*
X53181Y-46000D03*
G54D23*
X50819Y-46000D03*
G54D24*
X68500Y-47500D03*
X67500Y-47500D03*
X66500Y-47500D03*
X63500Y-47500D03*
X64500Y-47500D03*
X65500Y-47500D03*
X61500Y-47500D03*
X60500Y-47500D03*
X59500Y-47500D03*
X57500Y-47500D03*
X56500Y-47500D03*
X68500Y-28500D03*
X67500Y-28500D03*
X66500Y-28500D03*
X65500Y-28500D03*
X64500Y-28500D03*
X63500Y-28500D03*
X62500Y-28500D03*
X61500Y-28500D03*
X59900Y-28500D03*
X58900Y-28500D03*
X57900Y-28500D03*
X56900Y-28500D03*
X55900Y-28500D03*
X54900Y-28500D03*
X53900Y-28500D03*
X52900Y-28500D03*
X58500Y-47500D03*
X55500Y-47500D03*
X54500Y-47500D03*
X52000Y-28500D03*
X51000Y-28500D03*
G54D25*
X57250Y-34000D03*
G54D26*
X57250Y-35000D03*
X57250Y-36000D03*
X50250Y-34000D03*
X50250Y-35000D03*
X50250Y-36000D03*
G54D25*
X57250Y-41000D03*
G54D26*
X57250Y-42000D03*
X57250Y-43000D03*
X50250Y-41000D03*
X50250Y-42000D03*
X50250Y-43000D03*
M02*
